<svg id="Layer_1" data-name="Layer 1" xmlns="http://www.w3.org/2000/svg" viewBox="0 0 1559.99 296.37" width="289.5" height="55">
  <defs>
    <style>
      .cls-1 {
        fill: #de4e00;
      }
    </style>
  </defs>
  <path class="cls-1" d="M167.22,265.27a6.58,6.58,0,0,1,3.34,6.05c-.51,13.25,10.48,25.21,24.2,25.05,32.09-1.33,32.09-47.06,0-48.38A24,24,0,0,0,181,252.27a6.49,6.49,0,0,1-6.83.3c-22.77-12.59-45.31-25.12-68-37.67a6.54,6.54,0,0,1-3.38-5.86c0-1.77.07-3.58.11-5.39a6.54,6.54,0,0,1,9.77-5.56c22,12.48,43.78,25.27,65,39a6.54,6.54,0,0,0,6.82.2l75.18-42.9a6.39,6.39,0,0,1,6.7.25c15.32,10.24,37.52-.68,37.45-20.27a24.22,24.22,0,0,0-24.19-24.19c-13.94-.18-25,12.21-24.18,25.64a6.56,6.56,0,0,1-3.26,6.17q-33.67,19.22-67.37,38.44a6.55,6.55,0,0,1-6.75-.17l-3-1.93a6.55,6.55,0,0,1,.26-11.2c22.37-12.84,42.49-24.28,66.65-37a6.52,6.52,0,0,0,3.49-5.82c-.15-28.91-.41-57.32-.59-86.14a6.6,6.6,0,0,1,3.69-5.93c21.79-10.88,15.55-45.15-10.88-45.77-26.37.61-32.68,34.76-11,45.71a6.67,6.67,0,0,1,3.7,5.9c.18,25.34.38,52.49.55,77.6a6.54,6.54,0,0,1-3.44,5.81l-3,1.59a6.55,6.55,0,0,1-9.65-5.75c0-25.89.06-52,.68-77.8a6.54,6.54,0,0,0-3.37-5.88c-25.28-14-50.16-27.85-75.48-41.83a6.43,6.43,0,0,1-3.28-6.12C134.34,12.26,123.24-.18,109.27,0c-32.09,1.33-32.08,47.06,0,48.38a24,24,0,0,0,13.2-3.92,6.54,6.54,0,0,1,6.77-.24c23,12.74,46.08,25.53,68.31,37.88A6.53,6.53,0,0,1,200.92,88l-.15,4.4a6.55,6.55,0,0,1-9.87,5.42L126.11,59.59a6.53,6.53,0,0,0-6.58-.05Q82.3,80.78,45,102a6.49,6.49,0,0,1-7-.32,24.06,24.06,0,0,0-14-4.47C-8,98.58-8,144.31,24.07,145.63c13.59.15,24.54-11.56,24.2-24.71a6.62,6.62,0,0,1,3.3-5.94C74,102.21,96.78,89.19,119,76.5a6.56,6.56,0,0,1,6.76.16l3,1.94a6.55,6.55,0,0,1-.24,11.2C106.53,102.46,84,115.16,61.86,126.88a6.56,6.56,0,0,0-3.49,5.83c.19,28.95.43,57.73.61,86.78a6.61,6.61,0,0,1-3.66,5.92c-21.69,11-15.37,45.1,11,45.71,26.43-.62,32.68-34.9,10.87-45.77a6.62,6.62,0,0,1-3.71-5.89q-.28-39.08-.56-78.16a6.54,6.54,0,0,1,3.46-5.81l3-1.59A6.55,6.55,0,0,1,89,139.66c0,25.94-.11,51.9-.74,77.8a6.54,6.54,0,0,0,3.37,5.88ZM237.69,40.81a9.86,9.86,0,0,1,9.86,9.86c-.52,13.08-19.21,13.08-19.73,0A9.86,9.86,0,0,1,237.69,40.81ZM109.27,34.05a9.86,9.86,0,0,1-9.86-9.86c.52-13.08,19.21-13.07,19.73,0A9.86,9.86,0,0,1,109.27,34.05ZM24.07,131.3a9.86,9.86,0,0,1-9.87-9.86c.52-13.08,19.21-13.08,19.73,0A9.86,9.86,0,0,1,24.07,131.3ZM66.31,256.79a9.85,9.85,0,0,1-9.86-9.86c.51-13.08,19.2-13.08,19.72,0A9.86,9.86,0,0,1,66.31,256.79Zm128.45,5.53a9.85,9.85,0,0,1,9.86,9.86c-.51,13.08-19.2,13.07-19.72,0A9.86,9.86,0,0,1,194.76,262.32Zm-80.22-79.79-7.79-4.45a6.55,6.55,0,0,1-3.3-5.68V124.58a6.55,6.55,0,0,1,3.3-5.68c13.84-7.91,27.91-15.94,41.92-24a6.55,6.55,0,0,1,6.51,0c14.08,8,28,16,41.93,24a6.53,6.53,0,0,1,3.3,5.68V172.4a6.55,6.55,0,0,1-3.3,5.68c-14,8-27.86,16-42,24a6.53,6.53,0,0,1-6.5,0C137.25,195.5,125.73,188.92,114.54,182.53Zm165.13,1.76a9.86,9.86,0,0,1-9.86-9.87c.52-13.08,19.2-13.07,19.72,0A9.86,9.86,0,0,1,279.67,184.29Z"/>
  <g>
    <path class="cls-1" d="M383.45,181.5v69.6a6.3,6.3,0,0,1-6.3,6.3h-6a6.3,6.3,0,0,1-6.3-6.3V55.2a6.3,6.3,0,0,1,6.3-6.3h70.2q32.7,0,48.75,14.85t16,47q0,45.79-33.57,58.75a6.29,6.29,0,0,0-3.36,8.68l35.07,70.15a6.3,6.3,0,0,1-5.63,9.12h-6.61a6.31,6.31,0,0,1-5.64-3.48l-37.62-75.24a6.29,6.29,0,0,0-5.63-3.48H389.75A6.3,6.3,0,0,0,383.45,181.5ZM487,111c-.1-31.29-14.31-45.5-45.6-45.6h-51.6a6.3,6.3,0,0,0-6.3,6.3v80.4a6.29,6.29,0,0,0,6.45,6.29C432,157.31,487.28,172.32,487,111Z"/>
    <path class="cls-1" d="M599.92,257.57h-70a5.91,5.91,0,0,1-5.91-5.92V55a5.91,5.91,0,0,1,5.91-5.91h70q74.08,0,74.1,101.4Q674,257.57,599.92,257.57Zm54.9-107.1c-.94-95.65-43.9-84.91-106.31-84.6a5.92,5.92,0,0,0-5.89,5.91V235.19a5.92,5.92,0,0,0,5.86,5.91C613.88,241.74,653.55,251.16,654.82,150.47Z"/>
    <path class="cls-1" d="M694.61,252.41V53.6a4.85,4.85,0,0,1,4.84-4.85H726A4.84,4.84,0,0,1,730.55,52L793.87,231a0,0,0,0,0,.08,0L857,52a4.84,4.84,0,0,1,4.57-3.24h26.53a4.85,4.85,0,0,1,4.84,4.85V252.41a4.84,4.84,0,0,1-4.84,4.84h-8.92a4.84,4.84,0,0,1-4.84-4.84V68h-4.2l-64.25,179.2a4.84,4.84,0,0,1-4.56,3.2H786.22a4.84,4.84,0,0,1-4.56-3.2L717.41,68h-4.2V252.41a4.84,4.84,0,0,1-4.84,4.84h-8.92A4.84,4.84,0,0,1,694.61,252.41Z"/>
    <path class="cls-1" d="M1058.55,162.59v-7.82a4.34,4.34,0,0,1,4.34-4.34h48a4.34,4.34,0,0,1,4.34,4.34v92.82a4.34,4.34,0,0,1-3.58,4.28c-90.29,15.89-143.45,12.12-143.12-99.64-1.22-107.51,48.64-119.88,143-100.95a4.35,4.35,0,0,1,3.47,4.5l-.42,7.33a4.34,4.34,0,0,1-5,4c-81.39-13.32-122.9-14.24-121.84,84.78-.5,87,29.59,98.57,105.57,85.82a4.35,4.35,0,0,0,3.63-4.28v-62.2a4.34,4.34,0,0,0-4.34-4.34h-29.72A4.34,4.34,0,0,1,1058.55,162.59Z"/>
    <path class="cls-1" d="M1233.22,105.73h9.69a4,4,0,0,1,4,4v142a4,4,0,0,1-4,4h-9.69a4,4,0,0,1-4-4h0a4,4,0,0,0-5.91-3.52c-25.47,13.71-66.46,16.19-80.64-5.08-14.32-19.82-8.92-99.69-9.62-133.3a4,4,0,0,1,4-4.1h9.71a4,4,0,0,1,4,3.9c.75,29.26-4,103.06,6.3,120.9,11.79,20.37,51.51,11.12,70.14.59a4,4,0,0,0,2-3.47V109.74A4,4,0,0,1,1233.22,105.73Z"/>
    <path class="cls-1" d="M1266,65.59V50.21a3.56,3.56,0,0,1,3.56-3.56h10.57a3.56,3.56,0,0,1,3.57,3.56V65.59a3.57,3.57,0,0,1-3.57,3.56h-10.57A3.56,3.56,0,0,1,1266,65.59Zm0,187.5V110.21a3.56,3.56,0,0,1,3.56-3.56h10.57a3.56,3.56,0,0,1,3.57,3.56V253.09a3.57,3.57,0,0,1-3.57,3.56h-10.57A3.56,3.56,0,0,1,1266,253.09Z"/>
    <path class="cls-1" d="M1419.67,42.47V250.84a4.11,4.11,0,0,1-4.12,4.12h-9.77a4.11,4.11,0,0,1-4.11-4.12h0a4.11,4.11,0,0,0-6-3.64c-19.55,10.1-41,13.73-60.92,8.28q-.27-.07-.54-.18c-26.53-10.72-32.53-31-33.33-69.79-.72-74.15,29.7-91.67,96-80.5a4.12,4.12,0,0,0,4.81-4.05V42.47a4.11,4.11,0,0,1,4.11-4.11h9.77A4.11,4.11,0,0,1,1419.67,42.47Zm-77.25,197.19c16.72,5.8,41.17-1.6,57-9.63a4.12,4.12,0,0,0,2.25-3.67V125.09a4.12,4.12,0,0,0-3.58-4.09c-27.45-3.6-54.51-8.58-68.87,12.46-13.08,16.82-13.52,85.9,2,98.4A32.59,32.59,0,0,0,1342.42,239.66Z"/>
    <path class="cls-1" d="M1545,242.12l5-.5a3.7,3.7,0,0,1,4.06,3.53l.3,7.24a3.69,3.69,0,0,1-3.39,3.83c-36.64,3.21-78.34,12.79-99.07-15.28Q1439,222,1439,182.73q0-78.58,61.8-78.6c49.5-.81,61.65,37.06,58.75,82.08a3.68,3.68,0,0,1-3.69,3.42h-94.83a3.7,3.7,0,0,0-3.7,3.76c1.25,62,39.31,50.74,87.47,48.75Zm-83.94-67.49h77.05a3.71,3.71,0,0,0,3.7-3.82c-1-31.87-8.33-50.34-40.86-51.08-31.76.58-42.66,19.61-43.58,51.1A3.69,3.69,0,0,0,1461.1,174.63Z"/>
  </g>
</svg>
