<?xml version="1.0" encoding="UTF-8" standalone="no"?>
<svg
   xmlns:dc="http://purl.org/dc/elements/1.1/"
   xmlns:cc="http://creativecommons.org/ns#"
   xmlns:rdf="http://www.w3.org/1999/02/22-rdf-syntax-ns#"
   xmlns:svg="http://www.w3.org/2000/svg"
   xmlns="http://www.w3.org/2000/svg"
   xmlns:sodipodi="http://sodipodi.sourceforge.net/DTD/sodipodi-0.dtd"
   version="1.1"
   id="Layer_1"
   x="0px"
   y="0px"
   viewBox="0 0 124.53352 109.75582"
   xml:space="preserve"
   sodipodi:docname="data_management_hub.svg"
   width="124.53352"
   height="109.75581">
<path
   d="m 119.81403,58.434371 c 1.96219,0 3.55646,-1.594273 3.55646,-3.556463 0,-1.962188 -1.59427,-3.556465 -3.55646,-3.556465 h -17.90497 v -7.174247 h 10.73073 c 1.96218,0 3.55647,-1.594277 3.55647,-3.556465 V 22.011273 c 4.16963,-1.471641 7.17423,-5.457332 7.17423,-10.117528 0,-5.947879 -4.84415,-10.73071 -10.7307,-10.73071 -5.94789,0 -10.73073,4.844149 -10.73073,10.73071 0,4.660196 3.00461,8.645887 7.17425,10.117528 v 14.961676 h -7.17425 v -10.73071 c 0,-1.962186 -1.59426,-3.556464 -3.556446,-3.556464 h -72.11038 c -1.96219,0 -3.556457,1.594278 -3.556457,3.556464 v 10.73071 h -7.17425 V 22.011273 c 4.16965,-1.471641 7.11293,-5.457332 7.11293,-10.117528 0,-5.886561 -4.78284,-10.73071 -10.73071,-10.73071 -5.947886,0 -10.730712,4.844149 -10.730712,10.73071 0,4.660196 3.004599,8.645887 7.174252,10.117528 v 18.51814 c 0,1.962188 1.59427,3.556465 3.55646,3.556465 h 10.73071 v 7.174244 H 4.719499 c -1.962187,0 -3.556464,1.594278 -3.556464,3.556464 0,1.962191 1.594277,3.556464 3.556464,3.556464 h 17.904958 v 7.174242 h -10.73071 c -1.96219,0 -3.55646,1.59428 -3.55646,3.55647 v 18.51814 c -4.169653,1.59428 -7.174252,5.51866 -7.174252,10.24018 0,5.947868 4.844152,10.730698 10.730712,10.730698 5.88656,0 10.73071,-4.84415 10.73071,-10.730698 0,-4.66021 -3.0046,-8.6459 -7.17425,-10.11754 v -14.96167 h 7.17425 v 10.7307 c 0,1.96219 1.594277,3.55647 3.556457,3.55647 h 32.43741 v 7.17425 h -10.66939 c -1.9622,0 -3.55646,1.59427 -3.55646,3.55646 0,1.96218 1.59426,3.556458 3.55646,3.556458 h 28.63566 c 1.9622,0 3.55647,-1.594278 3.55647,-3.556458 0,-1.96219 -1.59427,-3.55646 -3.55647,-3.55646 h -10.73071 v -7.17425 h 32.4374 c 1.962196,0 3.556476,-1.59428 3.556476,-3.55647 v -10.7307 h 7.23555 v 14.96167 c -4.16964,1.47164 -7.17425,5.45733 -7.17425,10.11754 0,5.947868 4.84415,10.730698 10.73073,10.730698 5.94788,0 10.7307,-4.84415 10.7307,-10.730698 0,-4.66021 -3.0046,-8.6459 -7.17423,-10.11754 v -18.51814 c 0,-1.96219 -1.59429,-3.55647 -3.55647,-3.55647 H 101.90906 V 58.434371 Z M 112.63979,8.337282 c 1.96218,0 3.55647,1.594276 3.55647,3.556463 0,1.962188 -1.59429,3.556465 -3.55647,3.556465 -1.96219,0 -3.55648,-1.594277 -3.55648,-3.556465 0,-1.962187 1.59429,-3.556463 3.55648,-3.556463 z M 11.893747,15.511528 c -1.96219,0 -3.55646,-1.594277 -3.55646,-3.556464 0,-1.962187 1.59427,-3.556464 3.55646,-3.556464 1.96219,0 3.55646,1.594277 3.55646,3.556464 0,1.962187 -1.59427,3.556464 -3.55646,3.556464 z m 0,85.907012 c -1.96219,0 -3.55646,-1.594288 -3.55646,-3.556458 0,-1.9622 1.59427,-3.55649 3.55646,-3.55649 1.96219,0 3.55646,1.59429 3.55646,3.55649 0.0613,1.96217 -1.59427,3.556458 -3.55646,3.556458 z M 94.734824,79.957112 h -64.93612 v -50.15841 h 64.93612 z m 17.904966,14.28718 c 1.96218,0 3.55647,1.59427 3.55647,3.55646 0,1.96218 -1.59429,3.556458 -3.55647,3.556458 -1.96219,0 -3.55648,-1.594278 -3.55648,-3.556458 0,-1.96219 1.59429,-3.55646 3.55648,-3.55646 z"
   id="path36"
   style="fill:#de4d00;"/>
</svg>
