<?xml version="1.0" encoding="utf-8"?>
<!-- Generator: Adobe Illustrator 24.1.2, SVG Export Plug-In . SVG Version: 6.00 Build 0)  -->
<svg version="1.1"
	 id="Layer_1" sodipodi:docname="data_management_hub.svg" xmlns:cc="http://creativecommons.org/ns#" xmlns:dc="http://purl.org/dc/elements/1.1/" xmlns:rdf="http://www.w3.org/1999/02/22-rdf-syntax-ns#" xmlns:sodipodi="http://sodipodi.sourceforge.net/DTD/sodipodi-0.dtd" xmlns:svg="http://www.w3.org/2000/svg"
	 xmlns="http://www.w3.org/2000/svg" xmlns:xlink="http://www.w3.org/1999/xlink" x="0px" y="0px" viewBox="0 0 686 109.8"
	 style="enable-background:new 0 0 686 109.8;" xml:space="preserve">
<style type="text/css">
	.st0{fill:#DE4D00;}
</style>
<path id="path36" class="st0" d="M119.8,58.4c2,0,3.6-1.6,3.6-3.6s-1.6-3.6-3.6-3.6h-17.9v-7.2h10.7c2,0,3.6-1.6,3.6-3.6V22
	c4.2-1.5,7.2-5.5,7.2-10.1c0-5.9-4.8-10.7-10.7-10.7c-5.9,0-10.7,4.8-10.7,10.7c0,4.7,3,8.6,7.2,10.1v15h-7.2V26.2
	c0-2-1.6-3.6-3.6-3.6H26.2c-2,0-3.6,1.6-3.6,3.6V37h-7.2V22c4.2-1.5,7.1-5.5,7.1-10.1c0-5.9-4.8-10.7-10.7-10.7
	C5.9,1.2,1.2,6,1.2,11.9c0,4.7,3,8.6,7.2,10.1v18.5c0,2,1.6,3.6,3.6,3.6h10.7v7.2H4.7c-2,0-3.6,1.6-3.6,3.6c0,2,1.6,3.6,3.6,3.6
	h17.9v7.2H11.9c-2,0-3.6,1.6-3.6,3.6v18.5c-4.2,1.6-7.2,5.5-7.2,10.2c0,5.9,4.8,10.7,10.7,10.7s10.7-4.8,10.7-10.7
	c0-4.7-3-8.6-7.2-10.1v-15h7.2v10.7c0,2,1.6,3.6,3.6,3.6h32.4v7.2H47.9c-2,0-3.6,1.6-3.6,3.6c0,2,1.6,3.6,3.6,3.6h28.6
	c2,0,3.6-1.6,3.6-3.6c0-2-1.6-3.6-3.6-3.6H65.9v-7.2h32.4c2,0,3.6-1.6,3.6-3.6V72.8h7.2v15c-4.2,1.5-7.2,5.5-7.2,10.1
	c0,5.9,4.8,10.7,10.7,10.7c5.9,0,10.7-4.8,10.7-10.7c0-4.7-3-8.6-7.2-10.1V69.2c0-2-1.6-3.6-3.6-3.6h-10.7v-7.2H119.8z M112.6,8.3
	c2,0,3.6,1.6,3.6,3.6s-1.6,3.6-3.6,3.6c-2,0-3.6-1.6-3.6-3.6S110.7,8.3,112.6,8.3z M11.9,15.5c-2,0-3.6-1.6-3.6-3.6s1.6-3.6,3.6-3.6
	s3.6,1.6,3.6,3.6S13.9,15.5,11.9,15.5z M11.9,101.4c-2,0-3.6-1.6-3.6-3.6c0-2,1.6-3.6,3.6-3.6s3.6,1.6,3.6,3.6
	C15.5,99.8,13.9,101.4,11.9,101.4z M94.7,80H29.8V29.8h64.9V80z M112.6,94.2c2,0,3.6,1.6,3.6,3.6c0,2-1.6,3.6-3.6,3.6
	c-2,0-3.6-1.6-3.6-3.6C109.1,95.8,110.7,94.2,112.6,94.2z"/>
<g>
	<path class="st0" d="M158.8,63.9v30.7h-8.9V14.4h29.7c8.5,0,14.9,2,19.2,5.9s6.4,10.1,6.4,18.4c0,12.4-4.9,20.1-14.7,23.3
		l15.4,32.6H196l-14.5-30.7H158.8z M179.7,56c10.9,0,16.4-5.6,16.4-16.9s-5.5-16.9-16.5-16.9h-20.8V56H179.7z"/>
	<path class="st0" d="M250,94.7h-28.7V14.4H250c13.1,0,21.7,5.2,26,15.5c2.5,6,3.7,13.8,3.7,23.4c0,20.2-5,32.9-15.1,38.2
		C260.6,93.6,255.7,94.7,250,94.7z M270.5,53.4c0-15.4-3.4-25-10.3-28.8c-2.8-1.5-6.2-2.3-10.2-2.3h-19.7v64.5H250
		C263.7,86.8,270.5,75.6,270.5,53.4z"/>
	<path class="st0" d="M296.1,94.7V14.4h16.1L335,82.3l22.7-67.9h16.1v80.3h-8.9V23.9h-1.6L340,91.8h-10l-23.3-67.9h-1.6v70.8H296.1z
		"/>
	<path class="st0" d="M450.9,61.6v-8H473V93c-9.7,1.9-18.4,2.8-26.1,2.8c-11.7,0-19.8-3.4-24.3-10.1c-4.5-6.7-6.8-17.1-6.8-31.1
		c0-14,2.3-24.4,6.8-31.2c4.5-6.8,12.5-10.1,24.1-10.1c7.2,0,14.7,0.8,22.4,2.3l3.9,0.7l-0.3,7.4c-9.6-1.6-17.9-2.4-24.9-2.4
		c-8.9,0-14.9,2.6-18,7.7c-3.1,5.1-4.6,13.7-4.6,25.6c0,11.9,1.5,20.5,4.6,25.6c3.1,5.1,9,7.7,17.9,7.7c5.4,0,10.9-0.5,16.6-1.6
		V61.6H450.9z"/>
	<path class="st0" d="M525.2,36.7h8.7v58h-8.7v-4.1c-5.8,3.5-11.5,5.2-17.2,5.2c-7.9,0-13.1-2-15.7-6.1c-2.6-4.1-3.9-11.7-3.9-22.7
		V36.7h8.7v30.2c0,8.4,0.7,14.1,2.2,16.9c1.5,2.9,4.8,4.3,10,4.3c2.6,0,5.1-0.4,7.8-1.1c2.6-0.7,4.6-1.5,6-2.1l2.1-1V36.7z"/>
	<path class="st0" d="M550.6,23.6V13.5h8.7v10.1H550.6z M550.6,94.7v-58h8.7v58H550.6z"/>
	<path class="st0" d="M620.6,11.4v83.3H612v-3.9c-6,3.4-11.8,5.1-17.6,5.1c-3.1,0-5.8-0.4-8.1-1.2c-2.3-0.8-4.5-2.2-6.5-4.2
		c-4.2-4.2-6.3-11.9-6.3-23.1s1.9-19.4,5.6-24.4c3.8-5,10-7.5,18.6-7.5c4.5,0,9.2,0.5,14.3,1.5V11.4H620.6z M590.4,87.2
		c1.4,0.5,3.2,0.8,5.4,0.8s4.7-0.4,7.4-1.1c2.7-0.7,4.9-1.5,6.4-2.1l2.3-1V44.4c-4.9-0.9-9.6-1.4-13.8-1.4c-5.9,0-10,1.9-12.3,5.6
		c-2.3,3.8-3.5,9.6-3.5,17.5c0,9,1.4,15,4.1,18.1C587.7,85.7,589,86.7,590.4,87.2z"/>
	<path class="st0" d="M676.8,87.5l3.4-0.3l0.2,6.8c-8.8,1.2-16.4,1.9-22.6,1.9c-8.4,0-14.3-2.4-17.7-7.3c-3.5-4.8-5.2-12.4-5.2-22.6
		c0-20.3,8.1-30.5,24.2-30.5c7.8,0,13.6,2.2,17.5,6.6c3.9,4.4,5.8,11.2,5.8,20.6l-0.5,6.6h-38.3c0,6.4,1.2,11.2,3.5,14.3
		c2.3,3.1,6.4,4.6,12.1,4.6C665,88.2,670.9,87.9,676.8,87.5z M673.7,62.3c0-7.1-1.1-12.1-3.4-15.1c-2.3-2.9-6-4.4-11.1-4.4
		c-5.1,0-9,1.5-11.6,4.6c-2.6,3.1-3.9,8-4,14.8H673.7z"/>
</g>
</svg>
