<svg xmlns="http://www.w3.org/2000/svg" width="23.47mm" height="24.18mm" viewBox="0 0 66.53 68.53">
  <defs>
    <style>
      .a {
        fill: #f18564;
      }

      .b {
        fill: #40555b;
      }
    </style>
  </defs>
  <path class="a" d="M66.53,35.72a31.27,31.27,0,0,1-10,23.52C42.33,72.07,22.89,71.57,9.68,58-11.57,36.57,4.61-1,34.6,0,43.06-.07,56,6.1,58,12.64c.77,2.57-2.47,5-5.35,3.34-5.2-3.67-8.93-9.57-17.31-9.91C11.58,5.56-1.6,39.47,15.57,55.79a12.19,12.19,0,0,0,1,.86c17.51,13.13,43.85,3,43.94-19.35a.94.94,0,0,0-.86-.93c-6.9-.45-20.85.64-27.14.63-5.7,0-4.8-5.13-.18-4.83a237.63,237.63,0,0,0,27.36-.08h.19C63.43,32.1,66.53,33.19,66.53,35.72Z"/>
  <path class="b" d="M46.49,16.38C27,33.73,30.61,29.14,18.78,52.28c-.23.45.23.81.61.47C38.84,35.41,35.27,40,47.1,16.85,47.33,16.4,46.87,16,46.49,16.38Z"/>
  <circle class="a" cx="32.94" cy="34.57" r="1.87"/>
</svg>
