<svg xmlns="http://www.w3.org/2000/svg" width="142.47mm" height="24.18mm" viewBox="0 0 403.86 68.53">
  <defs>
    <style>
      .a {
        fill: #40555b;
      }

      .b {
        fill: #f18564;
      }
    </style>
  </defs>
  <g>
    <g>
      <path class="a" d="M10.61,40.82,11.05,64A4.8,4.8,0,0,1,10,67.14a3.15,3.15,0,0,1-5,0,4,4,0,0,1-1-2.61c0-.9.05-2.74.17-5.53q.35-12.34.35-21.53T4.35,23.12q-.09-5.18-.22-8.18c-.08-2-.13-3.2-.13-3.61a9.69,9.69,0,0,1-1.39.17C.87,11.5,0,10.55,0,8.63Q0,5.06,6.87,3A43.67,43.67,0,0,1,19.14,1q11.92,0,18,5.61a18,18,0,0,1,6.09,13.79A18.48,18.48,0,0,1,39.72,31a21.28,21.28,0,0,1-9.62,7.62Q38.27,58,43.76,61.09a3.92,3.92,0,0,0,2.44.7c1.22-.18,1.82.17,1.82,1a5.45,5.45,0,0,1-1.56,4,5,5,0,0,1-3.57,1.56q-3.3,0-7-4.87Q30.71,56,23.84,40.65a45,45,0,0,1-8.27.78ZM36.8,20.9a12.71,12.71,0,0,0-4.44-10C29.41,8.27,25.5,7,20.66,7s-8.16.52-10,1.56q-.25,4.53-.26,14T10.53,34a30.71,30.71,0,0,1,8-1,30.06,30.06,0,0,1,7.48.87,13.6,13.6,0,0,0,7.35-4.57A12.16,12.16,0,0,0,36.8,20.9Z"/>
      <path class="a" d="M98.74,11.2A29.36,29.36,0,0,0,88.13,3.37a33,33,0,0,0-13.75-3,51.89,51.89,0,0,0-13,1.48q-5.74,1.49-5.74,4.44,0,3.3,4.17,3.3l.44,24.88L60,59.31a4.71,4.71,0,0,0-2.26-.61,2.32,2.32,0,0,0-1.79.7,2.45,2.45,0,0,0-.65,1.74q0,3,5.44,4.83a42.38,42.38,0,0,0,13.57,1.87A35,35,0,0,0,88.78,65,27.92,27.92,0,0,0,99,57.48a33.9,33.9,0,0,0,8.1-22.62A36,36,0,0,0,98.74,11.2ZM93.52,53.74q-6.78,7.92-19.14,7.92a41.09,41.09,0,0,1-7.3-.44q-.52-10.44-.53-28.75t.44-25A29.33,29.33,0,0,1,85.26,9a22.92,22.92,0,0,1,8.44,6.27,29.31,29.31,0,0,1,6.61,19.27A28.45,28.45,0,0,1,93.52,53.74Z"/>
      <path class="a" d="M113,34.17l-.44-28.89a4.83,4.83,0,0,1,1-3.35A3.79,3.79,0,0,1,116.5.85q1.91,0,3.21,3,7,15.92,8.92,19.88T134.33,36q3.82,8.22,5.13,10.83Q148,30.34,155.12,12.85q2.79-6.78,4-9.39T162.69.85c2.38,0,3.57,1.47,3.57,4.43,0,.47,0,2.05-.13,4.74s-.16,6.25-.22,10.66-.09,8.91-.09,13.49,0,9.06.09,13.44.13,7.92.22,10.61.13,4.48.13,5.35a4,4,0,0,1-1,2.57,3.16,3.16,0,0,1-5.05,0,4,4,0,0,1-1-2.57c0-.87,0-2.66.08-5.39q.53-14.79.52-24V17.29L142.94,54.18c-.81,1.8-1.93,2.69-3.35,2.69s-2.53-1-3.35-2.95q-10.52-23.49-17-37V34.17L119.71,63a4.79,4.79,0,0,1-1,3.18,3.16,3.16,0,0,1-5,0,4.85,4.85,0,0,1-1-3.18Z"/>
      <path class="a" d="M259.33,35.72a31.27,31.27,0,0,1-10,23.52c-14.16,12.83-33.6,12.33-46.82-1.24C181.22,36.57,197.41-1,227.4,0c8.46-.09,21.39,6.08,23.35,12.62.77,2.57-2.47,5-5.35,3.34-5.2-3.67-8.94-9.57-17.31-9.91-23.72-.51-36.89,33.4-19.72,49.72.32.3.66.59,1,.86,17.52,13.13,43.86,3,43.94-19.35a.93.93,0,0,0-.86-.93c-6.89-.45-20.84.64-27.13.63-5.71,0-4.8-5.13-.19-4.83a237.81,237.81,0,0,0,27.37-.08h.18C256.23,32.1,259.33,33.19,259.33,35.72Z"/>
      <path class="a" d="M271.35,29.29l-.69,19.14a16.77,16.77,0,0,0,2.52,9.62,8,8,0,0,0,7,3.7q4.49,0,8.66-5a28.89,28.89,0,0,0,5.83-11.26l-.26-18.88q0-4.44,3.3-4.44c2.67,0,4,2.05,4,6.13A118.35,118.35,0,0,1,300,45.48a48.46,48.46,0,0,0,.95,10.65c.64,2.76,1.4,4.31,2.26,4.66a4,4,0,0,0,1.27.35,2.9,2.9,0,0,1,1,.26.73.73,0,0,1,.31.69,5.25,5.25,0,0,1-1.44,3.83,4.81,4.81,0,0,1-3.61,1.48q-5.49,0-5.48-11.14Q288.85,67.41,279.1,67.4a12.62,12.62,0,0,1-10.79-5.18,20.7,20.7,0,0,1-3.83-12.65L265,36.43a28.88,28.88,0,0,0-.69-6.48,21.59,21.59,0,0,1-.7-4.31,3.4,3.4,0,0,1,1-2.39,3.57,3.57,0,0,1,2.7-1.09Q271.35,22.16,271.35,29.29Z"/>
      <path class="a" d="M314.2,3.46a3.14,3.14,0,0,1,2.7,1.17,4.83,4.83,0,0,1,.87,3,6.32,6.32,0,0,1-1.22,3.57,3.6,3.6,0,0,1-3,1.78,3.21,3.21,0,0,1-2.74-1.22,5.21,5.21,0,0,1-.92-3.22A5.35,5.35,0,0,1,311.11,5,3.85,3.85,0,0,1,314.2,3.46Z"/>
      <path class="a" d="M316.64,44.78l.43,18.27q0,4.35-3.3,4.35t-3.31-4.35l.44-18.27-.44-18.27q0-4.35,3.31-4.35t3.3,4.35Z"/>
      <path class="a" d="M363.62,61c-1.51-.29-2.52-2.43-3-6.44a136.07,136.07,0,0,1-.79-16.61q.43-5.74,1.14-12.83t1-11.4q.34-4.3.35-7.27a7.21,7.21,0,0,0-1.18-4.48,3.68,3.68,0,0,0-3-1.52,2.92,2.92,0,0,0-2.7,1.35q-.82,1.35-.83,7t-.17,17.7a20.59,20.59,0,0,0-12.35-4.26,18.13,18.13,0,0,0-14.71,7.05,25.43,25.43,0,0,0-5.74,16.53,27.84,27.84,0,0,0,1.74,9.57,20.73,20.73,0,0,0,5.83,8.44,14.15,14.15,0,0,0,9.74,3.65q9.75,0,16.1-11.66c.4,4.06,1.09,7,2,8.88s2.28,2.78,4,2.78a4.15,4.15,0,0,0,3.7-1.74,6.08,6.08,0,0,0,1.17-3.39C365.88,61.4,365.13,61,363.62,61ZM354.4,46.69q-5.91,15.06-15,15.06-5.22,0-8.27-4.92A22,22,0,0,1,328,45a18.36,18.36,0,0,1,4.22-12q4.22-5.13,9.79-5.13a17.19,17.19,0,0,1,12.35,5Z"/>
      <path class="a" d="M401.47,56.87c-.72,0-2.25.9-4.57,2.7a13.84,13.84,0,0,1-3.82,1.78,17.29,17.29,0,0,1-5.48.83q-5,0-9-4.39A17.24,17.24,0,0,1,374,47.3a58,58,0,0,0,11.05,1.31,25.61,25.61,0,0,0,13.36-3.26,10.47,10.47,0,0,0,5.43-9.53,13,13,0,0,0-4.39-10.18q-4.39-3.91-11.4-3.91a17.48,17.48,0,0,0-12.35,5,25.64,25.64,0,0,0-7.27,12.88,6.18,6.18,0,0,0-2.6-.79,2.45,2.45,0,0,0-1.79.74,2.8,2.8,0,0,0-.74,2q0,3.14,4.61,4.52a25,25,0,0,0,5.75,15.31Q379,67.84,388,67.84a20,20,0,0,0,10.83-3.14c3.34-2.08,5-3.94,5-5.56a2.16,2.16,0,0,0-.65-1.61A2.32,2.32,0,0,0,401.47,56.87ZM379.16,31.69a12.53,12.53,0,0,1,9.65-4.31,8.55,8.55,0,0,1,6.57,2.48,8.32,8.32,0,0,1,2.31,5.87q0,3.39-3.53,5.4a19,19,0,0,1-9.39,2,38.39,38.39,0,0,1-10.66-1.39A20.54,20.54,0,0,1,379.16,31.69Z"/>
    </g>
    <g>
      <path class="b" d="M10.61,40.82,11.05,64A4.8,4.8,0,0,1,10,67.14a3.15,3.15,0,0,1-5,0,4,4,0,0,1-1-2.61c0-.9.05-2.74.17-5.53q.35-12.34.35-21.53T4.35,23.12q-.09-5.18-.22-8.18c-.08-2-.13-3.2-.13-3.61a9.69,9.69,0,0,1-1.39.17C.87,11.5,0,10.55,0,8.63Q0,5.06,6.87,3A43.67,43.67,0,0,1,19.14,1q11.92,0,18,5.61a18,18,0,0,1,6.09,13.79A18.48,18.48,0,0,1,39.72,31a21.28,21.28,0,0,1-9.62,7.62Q38.27,58,43.76,61.09a3.92,3.92,0,0,0,2.44.7c1.22-.18,1.82.17,1.82,1a5.45,5.45,0,0,1-1.56,4,5,5,0,0,1-3.57,1.56q-3.3,0-7-4.87Q30.71,56,23.84,40.65a45,45,0,0,1-8.27.78ZM36.8,20.9a12.71,12.71,0,0,0-4.44-10C29.41,8.27,25.5,7,20.66,7s-8.16.52-10,1.56q-.25,4.53-.26,14T10.53,34a30.71,30.71,0,0,1,8-1,30.06,30.06,0,0,1,7.48.87,13.6,13.6,0,0,0,7.35-4.57A12.16,12.16,0,0,0,36.8,20.9Z"/>
      <path class="b" d="M98.74,11.2A29.36,29.36,0,0,0,88.13,3.37a33,33,0,0,0-13.75-3,51.89,51.89,0,0,0-13,1.48q-5.74,1.49-5.74,4.44,0,3.3,4.17,3.3l.44,24.88L60,59.31a4.71,4.71,0,0,0-2.26-.61,2.32,2.32,0,0,0-1.79.7,2.45,2.45,0,0,0-.65,1.74q0,3,5.44,4.83a42.38,42.38,0,0,0,13.57,1.87A35,35,0,0,0,88.78,65,27.92,27.92,0,0,0,99,57.48a33.9,33.9,0,0,0,8.1-22.62A36,36,0,0,0,98.74,11.2ZM93.52,53.74q-6.78,7.92-19.14,7.92a41.09,41.09,0,0,1-7.3-.44q-.52-10.44-.53-28.75t.44-25A29.33,29.33,0,0,1,85.26,9a22.92,22.92,0,0,1,8.44,6.27,29.31,29.31,0,0,1,6.61,19.27A28.45,28.45,0,0,1,93.52,53.74Z"/>
      <path class="b" d="M113,34.17l-.44-28.89a4.83,4.83,0,0,1,1-3.35A3.79,3.79,0,0,1,116.5.85q1.91,0,3.21,3,7,15.92,8.92,19.88T134.33,36q3.82,8.22,5.13,10.83Q148,30.34,155.12,12.85q2.79-6.78,4-9.39T162.69.85c2.38,0,3.57,1.47,3.57,4.43,0,.47,0,2.05-.13,4.74s-.16,6.25-.22,10.66-.09,8.91-.09,13.49,0,9.06.09,13.44.13,7.92.22,10.61.13,4.48.13,5.35a4,4,0,0,1-1,2.57,3.16,3.16,0,0,1-5.05,0,4,4,0,0,1-1-2.57c0-.87,0-2.66.08-5.39q.53-14.79.52-24V17.29L142.94,54.18c-.81,1.8-1.93,2.69-3.35,2.69s-2.53-1-3.35-2.95q-10.52-23.49-17-37V34.17L119.71,63a4.79,4.79,0,0,1-1,3.18,3.16,3.16,0,0,1-5,0,4.85,4.85,0,0,1-1-3.18Z"/>
      <path class="b" d="M259.33,35.72a31.27,31.27,0,0,1-10,23.52c-14.16,12.83-33.6,12.33-46.82-1.24C181.22,36.57,197.41-1,227.4,0c8.46-.09,21.39,6.08,23.35,12.62.77,2.57-2.47,5-5.35,3.34-5.2-3.67-8.94-9.57-17.31-9.91-23.72-.51-36.89,33.4-19.72,49.72.32.3.66.59,1,.86,17.52,13.13,43.86,3,43.94-19.35a.93.93,0,0,0-.86-.93c-6.89-.45-20.84.64-27.13.63-5.71,0-4.8-5.13-.19-4.83a237.81,237.81,0,0,0,27.37-.08h.18C256.23,32.1,259.33,33.19,259.33,35.72Z"/>
      <path class="b" d="M271.35,29.29l-.69,19.14a16.77,16.77,0,0,0,2.52,9.62,8,8,0,0,0,7,3.7q4.49,0,8.66-5a28.89,28.89,0,0,0,5.83-11.26l-.26-18.88q0-4.44,3.3-4.44c2.67,0,4,2.05,4,6.13A118.35,118.35,0,0,1,300,45.48a48.46,48.46,0,0,0,.95,10.65c.64,2.76,1.4,4.31,2.26,4.66a4,4,0,0,0,1.27.35,2.9,2.9,0,0,1,1,.26.73.73,0,0,1,.31.69,5.25,5.25,0,0,1-1.44,3.83,4.81,4.81,0,0,1-3.61,1.48q-5.49,0-5.48-11.14Q288.85,67.41,279.1,67.4a12.62,12.62,0,0,1-10.79-5.18,20.7,20.7,0,0,1-3.83-12.65L265,36.43a28.88,28.88,0,0,0-.69-6.48,21.59,21.59,0,0,1-.7-4.31,3.4,3.4,0,0,1,1-2.39,3.57,3.57,0,0,1,2.7-1.09Q271.35,22.16,271.35,29.29Z"/>
      <path class="b" d="M314.2,3.46a3.14,3.14,0,0,1,2.7,1.17,4.83,4.83,0,0,1,.87,3,6.32,6.32,0,0,1-1.22,3.57,3.6,3.6,0,0,1-3,1.78,3.21,3.21,0,0,1-2.74-1.22,5.21,5.21,0,0,1-.92-3.22A5.35,5.35,0,0,1,311.11,5,3.85,3.85,0,0,1,314.2,3.46Z"/>
      <path class="b" d="M316.64,44.78l.43,18.27q0,4.35-3.3,4.35t-3.31-4.35l.44-18.27-.44-18.27q0-4.35,3.31-4.35t3.3,4.35Z"/>
      <path class="b" d="M363.62,61c-1.51-.29-2.52-2.43-3-6.44a136.07,136.07,0,0,1-.79-16.61q.43-5.74,1.14-12.83t1-11.4q.34-4.3.35-7.27a7.21,7.21,0,0,0-1.18-4.48,3.68,3.68,0,0,0-3-1.52,2.92,2.92,0,0,0-2.7,1.35q-.82,1.35-.83,7t-.17,17.7a20.59,20.59,0,0,0-12.35-4.26,18.13,18.13,0,0,0-14.71,7.05,25.43,25.43,0,0,0-5.74,16.53,27.84,27.84,0,0,0,1.74,9.57,20.73,20.73,0,0,0,5.83,8.44,14.15,14.15,0,0,0,9.74,3.65q9.75,0,16.1-11.66c.4,4.06,1.09,7,2,8.88s2.28,2.78,4,2.78a4.15,4.15,0,0,0,3.7-1.74,6.08,6.08,0,0,0,1.17-3.39C365.88,61.4,365.13,61,363.62,61ZM354.4,46.69q-5.91,15.06-15,15.06-5.22,0-8.27-4.92A22,22,0,0,1,328,45a18.36,18.36,0,0,1,4.22-12q4.22-5.13,9.79-5.13a17.19,17.19,0,0,1,12.35,5Z"/>
      <path class="b" d="M401.47,56.87c-.72,0-2.25.9-4.57,2.7a13.84,13.84,0,0,1-3.82,1.78,17.29,17.29,0,0,1-5.48.83q-5,0-9-4.39A17.24,17.24,0,0,1,374,47.3a58,58,0,0,0,11.05,1.31,25.61,25.61,0,0,0,13.36-3.26,10.47,10.47,0,0,0,5.43-9.53,13,13,0,0,0-4.39-10.18q-4.39-3.91-11.4-3.91a17.48,17.48,0,0,0-12.35,5,25.64,25.64,0,0,0-7.27,12.88,6.18,6.18,0,0,0-2.6-.79,2.45,2.45,0,0,0-1.79.74,2.8,2.8,0,0,0-.74,2q0,3.14,4.61,4.52a25,25,0,0,0,5.75,15.31Q379,67.84,388,67.84a20,20,0,0,0,10.83-3.14c3.34-2.08,5-3.94,5-5.56a2.16,2.16,0,0,0-.65-1.61A2.32,2.32,0,0,0,401.47,56.87ZM379.16,31.69a12.53,12.53,0,0,1,9.65-4.31,8.55,8.55,0,0,1,6.57,2.48,8.32,8.32,0,0,1,2.31,5.87q0,3.39-3.53,5.4a19,19,0,0,1-9.39,2,38.39,38.39,0,0,1-10.66-1.39A20.54,20.54,0,0,1,379.16,31.69Z"/>
    </g>
  </g>
  <path class="a" d="M239.29,16.38c-19.45,17.35-15.88,12.76-27.71,35.9-.24.45.23.81.6.47C231.64,35.41,228.07,40,239.9,16.85,240.13,16.4,239.67,16,239.29,16.38Z"/>
  <circle class="b" cx="225.74" cy="34.57" r="1.87"/>
</svg>
