<svg xmlns="http://www.w3.org/2000/svg" viewBox="0 0 274.43 44.83">
  <defs>
    <style>
      .a {
        fill: #f18564;
      }

      .b {
        fill: #40555b;
      }
    </style>
  </defs>
  <g>
    <path class="a" d="M23.41,34.75c-1-1.54-2-2.95-3-4.24s-1.76-2.31-2.36-3.07a13.16,13.16,0,0,0,6.14-3.7,10,10,0,0,0,2.33-7q0-6-4.12-9.1T10.16,4.57c-1.56,0-3.25.08-5.09.26a27.52,27.52,0,0,0-4.81.82V44.34H4.13V28.41H10.5c1.21,0,2.43-.06,3.64-.17l2.39,3.18c.91,1.22,1.85,2.53,2.82,4s1.91,2.89,2.84,4.41,1.79,3,2.59,4.55h4.15a47.24,47.24,0,0,0-2.5-4.78C25.44,37.89,24.44,36.29,23.41,34.75Zm-8.87-9.9a47.66,47.66,0,0,1-5.06.26H4.13V8.32l2.7-.25c1.08-.1,2.34-.14,3.78-.14A25.4,25.4,0,0,1,15,8.3a10.75,10.75,0,0,1,3.79,1.36,7.76,7.76,0,0,1,2.67,2.7,8.33,8.33,0,0,1,1,4.33,8.51,8.51,0,0,1-1,4.49,6.69,6.69,0,0,1-2.79,2.53A12,12,0,0,1,14.54,24.85Z" transform="translate(-0.26 -0.19)"/>
    <path class="a" d="M58.65,9.58a19,19,0,0,0-6.86-3.76A29.2,29.2,0,0,0,43,4.57a48.59,48.59,0,0,0-5,.26,26,26,0,0,0-4.61.82v38a30.67,30.67,0,0,0,4.61.77c1.74.17,3.41.26,5,.26a29.2,29.2,0,0,0,8.76-1.25,19,19,0,0,0,6.86-3.76,17,17,0,0,0,4.47-6.26,22.48,22.48,0,0,0,1.59-8.82,22.38,22.38,0,0,0-1.59-8.76A17.09,17.09,0,0,0,58.65,9.58Zm.88,22a13.7,13.7,0,0,1-3.24,5.27,14.41,14.41,0,0,1-5.35,3.32,21.58,21.58,0,0,1-7.45,1.17A42.24,42.24,0,0,1,39,41.15c-.93-.11-1.51-.19-1.73-.23V8.32L39,8.1a39.65,39.65,0,0,1,4.47-.17,21.83,21.83,0,0,1,7.45,1.16,14.56,14.56,0,0,1,5.35,3.33,13.77,13.77,0,0,1,3.24,5.23,20.89,20.89,0,0,1,1.08,6.94A21.07,21.07,0,0,1,59.53,31.56Z" transform="translate(-0.26 -0.19)"/>
    <path class="a" d="M108.56,4.91h-3.24q-1.71,2.85-3.65,6.57c-1.29,2.49-2.57,5.06-3.85,7.74s-2.5,5.31-3.7,7.91-2.25,4.94-3.16,7c-.92-2.08-2-4.43-3.17-7s-2.43-5.24-3.7-7.91S81.53,14,80.24,11.48s-2.51-4.67-3.65-6.57H73.18q-1,9-1.62,18.83t-1.17,20.6H74.2q.35-9.17.77-17.5T76.13,11.4c.31.53.79,1.44,1.43,2.73s1.39,2.78,2.23,4.49,1.72,3.54,2.63,5.49S84.23,28,85.11,29.8s1.66,3.54,2.37,5.09,1.24,2.81,1.63,3.76h3.47c.38-.95.92-2.2,1.62-3.76s1.49-3.25,2.36-5.09,1.76-3.74,2.67-5.69,1.79-3.78,2.62-5.49,1.57-3.2,2.22-4.49,1.12-2.2,1.42-2.73q.74,7.11,1.17,15.44t.77,17.5h3.92q-.51-10.76-1.17-20.6T108.56,4.91Z" transform="translate(-0.26 -0.19)"/>
    <path class="a" d="M196.63,40.75a12.32,12.32,0,0,1-2.44.51,31.63,31.63,0,0,1-4.55.29,11.46,11.46,0,0,1-4-.6A5.76,5.76,0,0,1,183,39a8.46,8.46,0,0,1-1.48-3.5,25.68,25.68,0,0,1-.46-5.29V14.92h-3.7v16.5a23.7,23.7,0,0,0,.6,5.52,11.13,11.13,0,0,0,2,4.27,9.07,9.07,0,0,0,3.59,2.73,13.92,13.92,0,0,0,5.52,1,35.4,35.4,0,0,0,6.82-.57c1.86-.38,3.34-.72,4.44-1V14.92h-3.7Z" transform="translate(-0.26 -0.19)"/>
    <path class="a" d="M210.94,3.2A2.7,2.7,0,0,0,209,4a2.76,2.76,0,0,0-.8,2.08,2.74,2.74,0,0,0,.8,2.07,2.82,2.82,0,0,0,3.87,0,2.74,2.74,0,0,0,.8-2.07,2.76,2.76,0,0,0-.8-2.08A2.7,2.7,0,0,0,210.94,3.2Z" transform="translate(-0.26 -0.19)"/>
    <rect class="a" x="208.86" y="14.73" width="3.7" height="29.41"/>
    <path class="a" d="M240.28,16.69a12.63,12.63,0,0,0-3.1-1.57,13.92,13.92,0,0,0-5-.82,13.37,13.37,0,0,0-5.66,1.14,11.64,11.64,0,0,0-4.18,3.18,14.11,14.11,0,0,0-2.59,4.87,20.44,20.44,0,0,0-.88,6.17,18.49,18.49,0,0,0,1,6.43,13.79,13.79,0,0,0,3,4.83,12.62,12.62,0,0,0,4.55,3A15.8,15.8,0,0,0,233.29,45a34.12,34.12,0,0,0,6.48-.51A32.79,32.79,0,0,0,244,43.43V.19l-3.7.68Zm0,24.18a16.23,16.23,0,0,1-2.53.54,30.68,30.68,0,0,1-4.41.25,10,10,0,0,1-7.68-3.1q-2.9-3.09-2.9-8.9a20.43,20.43,0,0,1,.51-4.64,10.8,10.8,0,0,1,1.65-3.81,8.36,8.36,0,0,1,3-2.59,9.85,9.85,0,0,1,4.58-1,11.9,11.9,0,0,1,2.5.26,14.86,14.86,0,0,1,2.22.65,12,12,0,0,1,1.79.86,11.81,11.81,0,0,1,1.28.85Z" transform="translate(-0.26 -0.19)"/>
    <path class="a" d="M271.48,17.77a11.1,11.1,0,0,0-8.62-3.53,12.42,12.42,0,0,0-4.75.94,11.36,11.36,0,0,0-4.1,2.87,15,15,0,0,0-2.9,4.81A18.67,18.67,0,0,0,250,29.6a22.59,22.59,0,0,0,.8,6.17,12.56,12.56,0,0,0,2.56,4.87,11.79,11.79,0,0,0,4.49,3.18,17.11,17.11,0,0,0,6.6,1.14,19.17,19.17,0,0,0,5.15-.62,15.86,15.86,0,0,0,3-1.08l-.68-3.19a21.85,21.85,0,0,1-2.56,1,16.09,16.09,0,0,1-4.78.57q-5.46,0-8-2.91t-2.67-8.3h20.65c0-.27.07-.55.09-.86s0-.6,0-.91Q274.69,21.3,271.48,17.77ZM254,27.27a12.77,12.77,0,0,1,.77-3.7,10,10,0,0,1,1.82-3.1,9.09,9.09,0,0,1,2.73-2.13,7.74,7.74,0,0,1,3.56-.8,7,7,0,0,1,5.8,2.56,11.63,11.63,0,0,1,2.16,7.17Z" transform="translate(-0.26 -0.19)"/>
    <path class="a" d="M170.84,22.09,166.59,22l-14.51-.24-2,4h16.5a23.37,23.37,0,0,1-.89,5.3,14.7,14.7,0,0,1-2.86,5.4,14.15,14.15,0,0,1-1.08,1.11,12.8,12.8,0,0,1-3.68,2.33l-.18.07a15.55,15.55,0,0,1-2.56.76l-.3,0a34.12,34.12,0,0,1-4.93.3c-.51,0-1,0-1.49-.06l-.57,0a15.83,15.83,0,0,1-4.31-1l-.19-.07a12.68,12.68,0,0,1-4.75-3.44A14.56,14.56,0,0,1,136,31a24.73,24.73,0,0,1-1-7.09,21.64,21.64,0,0,1,1.15-7.39,15.43,15.43,0,0,1,3.16-5.35,12.87,12.87,0,0,1,2.9-2.32,15.46,15.46,0,0,1,3.49-1.26,24.52,24.52,0,0,1,5.64-.7,23.27,23.27,0,0,1,4.62.67,16.94,16.94,0,0,1,3.08,1.07,9.81,9.81,0,0,1,1.41.78l1.21-3,.14-.33h0c-.14-.09-.31-.17-.46-.26a18.51,18.51,0,0,0-7.5-2.33c-.72-.07-1.45-.12-2.19-.12h-.31c-.44,0-.88,0-1.35,0a22.32,22.32,0,0,0-3.6.3,20,20,0,0,0-3.84,1.06,17.32,17.32,0,0,0-7.8,5.93,19.87,19.87,0,0,0-2.47,4.45,23.4,23.4,0,0,0-1.54,8.79,25.17,25.17,0,0,0,1.42,8.79,20.13,20.13,0,0,0,1.23,2.69,16.45,16.45,0,0,0,8.63,7.7l.35.12a9.56,9.56,0,0,0,1.31.44,2.25,2.25,0,0,0,.35.09l.09,0h.05a19.7,19.7,0,0,0,2.93.53,20.22,20.22,0,0,0,2.36.14h.63c.67,0,1.36,0,2.09,0,.42,0,.82,0,1.23,0a19.48,19.48,0,0,0,6.21-1.32,16.77,16.77,0,0,0,5.93-4,18,18,0,0,0,3.93-6.43c.11-.31.2-.65.3-1a24.32,24.32,0,0,0,1-6c0-.59.06-1.17.06-1.79S170.88,22.71,170.84,22.09Z" transform="translate(-0.26 -0.19)"/>
  </g>
  <g>
    <path class="b" d="M159.59,12c-12.78,11.39-10.43,8.37-18.2,23.57-.15.3.15.53.4.31,12.77-11.39,10.43-8.38,18.2-23.57C160.14,12,159.83,11.8,159.59,12Z" transform="translate(-0.26 -0.19)"/>
    <circle class="a" cx="150.43" cy="23.77" r="1.23"/>
  </g>
</svg>
