<svg xmlns="http://www.w3.org/2000/svg" viewBox="0 0 40.15 41.1">
  <defs>
    <style>
      .a {
        fill: #f18564;
      }

      .b {
        fill: #40555b;
      }
    </style>
  </defs>
  <path class="a" d="M40.08,18.68l-4.25-.07-14.51-.24-2,4h16.5a23.18,23.18,0,0,1-.89,5.3,14.77,14.77,0,0,1-2.86,5.4A11.35,11.35,0,0,1,31,34.16a12.83,12.83,0,0,1-3.68,2.34l-.18.06a13.83,13.83,0,0,1-2.56.76l-.3,0a34.17,34.17,0,0,1-4.94.3c-.51,0-1,0-1.48-.06l-.57-.05a15.12,15.12,0,0,1-4.31-1l-.19-.06a12.78,12.78,0,0,1-3.67-2.34A12.47,12.47,0,0,1,8.06,33,14.52,14.52,0,0,1,5.2,27.62a24.65,24.65,0,0,1-1-7.08,21.7,21.7,0,0,1,1.15-7.4A15.61,15.61,0,0,1,8.56,7.79a12.87,12.87,0,0,1,2.9-2.32,16.05,16.05,0,0,1,3.48-1.26,25.25,25.25,0,0,1,5.65-.7,24.83,24.83,0,0,1,4.62.67,16.94,16.94,0,0,1,3.08,1.07A10.89,10.89,0,0,1,29.7,6l1.21-2.95.14-.34h0l-.46-.25a17.83,17.83,0,0,0-2.24-1.09A19.72,19.72,0,0,0,23.1.15,19.82,19.82,0,0,0,20.91,0H20.6c-.44,0-.88,0-1.35,0a21.24,21.24,0,0,0-3.6.31,18.66,18.66,0,0,0-3.84,1.06,17.77,17.77,0,0,0-6.11,4A17.1,17.1,0,0,0,4,7.3a19.85,19.85,0,0,0-2.48,4.45A23.61,23.61,0,0,0,0,20.54a25.17,25.17,0,0,0,1.42,8.79A20,20,0,0,0,2.65,32a17.16,17.16,0,0,0,2.69,3.74,17,17,0,0,0,5.94,4,3.59,3.59,0,0,0,.35.12,9.53,9.53,0,0,0,1.31.45l.35.09.09,0h0a19.7,19.7,0,0,0,2.93.54,22.67,22.67,0,0,0,2.36.14l.63,0c.67,0,1.36,0,2.09,0,.42,0,.82,0,1.23-.05a19.48,19.48,0,0,0,6.21-1.31,16.8,16.8,0,0,0,5.93-4,18.12,18.12,0,0,0,3.93-6.42c.11-.32.2-.66.3-1a24.24,24.24,0,0,0,1.05-6c0-.58.06-1.17.06-1.78S40.12,19.3,40.08,18.68Z"/>
  <g>
    <path class="b" d="M28.83,8.61C16.05,20,18.4,17,10.63,32.18c-.15.3.15.53.4.31C23.8,21.1,21.45,24.12,29.23,8.92,29.38,8.62,29.07,8.39,28.83,8.61Z"/>
    <circle class="a" cx="19.93" cy="20.55" r="1.23"/>
  </g>
</svg>
