<svg id="Layer_1" data-name="Layer 1" xmlns="http://www.w3.org/2000/svg" viewBox="0 0 685.85 668.94">
  <defs>
    <style>
      .cls-1 {
        fill: #de4e00;
      }
    </style>
  </defs>
  <path class="cls-1" d="M377.44,598.75A14.87,14.87,0,0,1,385,612.4c-1.15,29.91,23.64,56.9,54.63,56.54,72.43-3,72.42-106.21,0-109.2a54.3,54.3,0,0,0-31,9.67,14.66,14.66,0,0,1-15.42.68c-51.4-28.41-102.27-56.7-153.44-85a14.77,14.77,0,0,1-7.62-13.22c.08-4,.16-8.08.24-12.17a14.78,14.78,0,0,1,22.06-12.56c49.64,28.18,98.81,57.06,146.67,88.16a14.82,14.82,0,0,0,15.39.46q84.83-48.44,169.69-96.83a14.38,14.38,0,0,1,15.13.55c34.58,23.11,84.67-1.53,84.52-45.74a54.66,54.66,0,0,0-54.6-54.6c-31.47-.41-56.5,27.55-54.57,57.86a14.86,14.86,0,0,1-7.36,13.93q-76,43.37-152.06,86.76a14.78,14.78,0,0,1-15.25-.38l-6.85-4.36a14.78,14.78,0,0,1,.58-25.28c50.49-29,95.91-54.79,150.44-83.6a14.81,14.81,0,0,0,7.89-13.15c-.35-65.24-.93-129.36-1.34-194.42a14.89,14.89,0,0,1,8.32-13.39c49.2-24.54,35.1-101.91-24.56-103.31C477,61.15,462.73,138.23,511.7,163a15,15,0,0,1,8.34,13.3c.41,57.2.86,118.48,1.25,175.16a14.78,14.78,0,0,1-7.78,13.12l-6.68,3.59a14.78,14.78,0,0,1-21.77-13c-.09-58.42.13-117.42,1.54-175.59A14.78,14.78,0,0,0,479,166.25c-57.06-31.57-113.21-62.84-170.38-94.4A14.57,14.57,0,0,1,301.21,58c2-30.36-23-58.44-54.56-58-72.44,3-72.42,106.22,0,109.21a54.23,54.23,0,0,0,29.79-8.87,14.82,14.82,0,0,1,15.28-.53c51.91,28.75,104,57.63,154.19,85.49a14.75,14.75,0,0,1,7.58,13.4l-.32,9.92a14.77,14.77,0,0,1-22.28,12.23L284.64,134.49a14.78,14.78,0,0,0-14.83-.11q-84.08,48-168.14,95.94a14.67,14.67,0,0,1-15.76-.72,54.31,54.31,0,0,0-31.59-10.09c-72.43,3-72.42,106.21,0,109.2C85,329,109.71,302.61,109,272.93a14.91,14.91,0,0,1,7.44-13.41c50.59-28.81,102-58.2,152.23-86.85a14.74,14.74,0,0,1,15.24.36l6.9,4.39a14.77,14.77,0,0,1-.56,25.28c-49.76,28.57-100.53,57.23-150.57,83.68a14.8,14.8,0,0,0-7.89,13.17c.43,65.33,1,130.3,1.37,195.87a14.88,14.88,0,0,1-8.25,13.35C75.9,533.5,90.16,610.58,149.66,612c59.67-1.41,73.76-78.79,24.54-103.32a15,15,0,0,1-8.38-13.29q-.63-88.2-1.25-176.41a14.78,14.78,0,0,1,7.8-13.12l6.68-3.59a14.78,14.78,0,0,1,21.76,13c.09,58.55-.23,117.16-1.66,175.6a14.77,14.77,0,0,0,7.6,13.28ZM536.49,92.11a22.26,22.26,0,0,1,22.26,22.25c-1.17,29.53-43.35,29.52-44.52,0A22.26,22.26,0,0,1,536.49,92.11ZM246.65,76.87a22.26,22.26,0,0,1-22.26-22.26c1.17-29.53,43.35-29.52,44.51,0A22.26,22.26,0,0,1,246.65,76.87ZM54.32,296.37a22.26,22.26,0,0,1-22.26-22.26c1.17-29.53,43.35-29.52,44.52,0A22.26,22.26,0,0,1,54.32,296.37Zm95.34,283.25a22.26,22.26,0,0,1-22.26-22.26c1.18-29.53,43.35-29.52,44.52,0A22.26,22.26,0,0,1,149.66,579.62Zm290,12.46a22.26,22.26,0,0,1,22.26,22.26c-1.18,29.52-43.35,29.52-44.52,0A22.26,22.26,0,0,1,439.61,592.08ZM258.53,412,241,402a14.78,14.78,0,0,1-7.44-12.83c0-37.85,0-75,0-107.94A14.77,14.77,0,0,1,241,268.37c31.23-17.84,63-36,94.63-54.13a14.77,14.77,0,0,1,14.67,0c31.8,18.13,63.14,36.1,94.66,54.14a14.77,14.77,0,0,1,7.44,12.82q0,54,0,107.94A14.79,14.79,0,0,1,444.91,402C413.36,420,382,438,350.2,456.1a14.8,14.8,0,0,1-14.67,0C309.79,441.27,283.78,426.42,258.53,412Zm372.72,4A22.26,22.26,0,0,1,609,393.7c1.18-29.53,43.35-29.52,44.52,0A22.26,22.26,0,0,1,631.25,416Z"/>
</svg>
