<svg xmlns="http://www.w3.org/2000/svg" viewBox="0 0 480.11 484.38">
  <defs>
    <style>
      .a {
        fill: #de4e00;
      }
    </style>
  </defs>
  <path class="a" d="M294.81,484.38c-.34,0-.68,0-1-.05a28,28,0,0,1-25.48-28.69.3.3,0,0,0-.16-.18l-138.83-77a10.22,10.22,0,0,1-5.29-9.15c.16-8.87.36-17.74.55-26.61.48-21.15,1-43,.82-64.51q0-16.45,0-32.83v-41a.2.2,0,0,0-.17-.18L93.88,221a.17.17,0,0,0-.09.16Q94.3,296.06,94.86,371a.17.17,0,0,0,0,.14A27.87,27.87,0,0,1,83.2,424.24a25.81,25.81,0,0,1-4.48-.39,27.86,27.86,0,0,1-23.27-25.2c-1.05-10.76,5.06-21.87,14.87-27a.19.19,0,0,0,0-.13q-.27-43.41-.6-86.81-.27-36-.51-72a10.24,10.24,0,0,1,5.41-9.11c18.58-10,38.59-20.69,59-31.71l35.21-20.14q23.67-13.54,47.35-27.07a.14.14,0,0,0,.09-.15c0-.1,0-.12-.08-.15l-10.27-6.53Q196,111.47,186,105.15l-2.69-4.38,2.5,4.38L154.55,123q-49.41,28.22-98.84,56.38a.25.25,0,0,0-.09.11,27.82,27.82,0,0,1-18.35,28.4A27.87,27.87,0,0,1,13,205.23,27.85,27.85,0,0,1,0,182.36v-2a11.46,11.46,0,0,1,.06-1.17,28.6,28.6,0,0,1,5.78-14.62,28.1,28.1,0,0,1,22-10.83,25.43,25.43,0,0,1,2.77.15,27.84,27.84,0,0,1,12.54,4.4.34.34,0,0,0,.16-.05q43.83-25,87.63-50l50.31-28.71a10.24,10.24,0,0,1,10.58.25q14.76,9.36,29.49,18.74L240,110.48c6.8,4.38,14,8.46,20.93,12.4,3.31,1.87,6.72,3.8,10.06,5.75l59.29,33.91.09,0a.16.16,0,0,0,.18-.17q.4-19.57.79-39.14a.17.17,0,0,0-.09-.16C288.5,99.35,244.45,74.92,200.3,50.48a.24.24,0,0,0-.11,0,28.64,28.64,0,0,1-16.43,5.26,26.36,26.36,0,0,1-7.69-1.13A27.85,27.85,0,0,1,164.22,8.08a28.26,28.26,0,0,1,17.2-8c.35,0,.7,0,1.06,0h3A28.06,28.06,0,0,1,210.7,20.4a26.79,26.79,0,0,1,1,8.39h0a.24.24,0,0,0,.09.08c26.94,14.87,54.29,30.05,80.74,44.72q29.08,16.16,58.2,32.27A10.23,10.23,0,0,1,356,115q-.22,12.23-.51,24.47c-.46,21.08-.95,42.87-.78,64.28V280a.19.19,0,0,0,.18.18l19.6-10.52,11.73-6.31a.18.18,0,0,0,.1-.16q-.36-53.49-.76-107l-.31-42.9h0a.56.56,0,0,0-.11-.08,27.79,27.79,0,0,1-15.73-29.73,28,28,0,0,1,14.79-20.3,27.24,27.24,0,0,1,12.63-3,27.83,27.83,0,0,1,27.23,34,28.13,28.13,0,0,1-14.3,18.57s0,0,0,.12q.21,34.17.48,68.34c.22,29.69.45,60.39.61,90.59a10.24,10.24,0,0,1-5.43,9.1c-21.37,11.41-42.49,22.8-58.51,31.45q-19.58,11.18-39.12,22.37-21.88,12.53-43.79,25c-.06,0-.09.05-.09.15a.13.13,0,0,0,.08.15q10.95,6.94,21.88,13.91l8.28,5.27,2.68,4.38-2.49-4.38q39.89-22.72,79.74-45.49l50.33-28.72a.15.15,0,0,0,.09-.13,27.65,27.65,0,0,1,1.76-12.15,28,28,0,0,1,16.06-16,27.06,27.06,0,0,1,9.89-1.83,27.86,27.86,0,0,1,27.9,26.31c0,.24,0,.46,0,.68v2.12a10.88,10.88,0,0,1-.06,1.14,28.8,28.8,0,0,1-7.19,16.32,28,28,0,0,1-20.64,9.13,25.85,25.85,0,0,1-4.13-.32,27.4,27.4,0,0,1-11-4.2h-.16q-69,39.36-138,78.73a10.33,10.33,0,0,1-5.09,1.35,10.23,10.23,0,0,1-5.48-1.59q-11.28-7.14-22.53-14.32c-10.95-7-22.27-14.19-33.45-21.19L177.9,337.79l-28.15-16.1-.08,0a.17.17,0,0,0-.19.17c-.17,8.29-.79,39.29-.79,39.29a.16.16,0,0,0,.09.15q28.93,16,57.84,32.07,36.56,20.28,73.11,40.51a.44.44,0,0,0,.18.05,28.28,28.28,0,0,1,10.55-4.64,27.4,27.4,0,0,1,5.65-.59,27.84,27.84,0,0,1,27.7,31.24c-1.36,12.72-12.46,23.44-25.31,24.43l-.84,0Zm1.33-31.26a2.46,2.46,0,0,0-.67.09l-.23.06a3.45,3.45,0,0,0-2.43,3.76c0,.07,0,.14,0,.21A3.5,3.5,0,0,0,296.1,460l.3,0,.26,0a3.18,3.18,0,0,0,2.21-1.35,3.25,3.25,0,0,0,.66-2.52l-.06-.26A3.5,3.5,0,0,0,296.14,453.12Zm-213-60.18a2.55,2.55,0,0,0-.74.11l-.27.08A3.44,3.44,0,0,0,79.87,397a2,2,0,0,1,0,.24,3.53,3.53,0,0,0,3.28,2.56,2.33,2.33,0,0,0,.53-.06l.25,0A3.18,3.18,0,0,0,86,398.18a3.12,3.12,0,0,0,.51-2.42,2.86,2.86,0,0,1-.07-.28A3.52,3.52,0,0,0,83.17,392.94ZM240,139.13a.11.11,0,0,0-.08,0c-27.88,16-56.26,32.21-83.7,47.89L150,190.59a.19.19,0,0,0-.09.16q0,51.41,0,102.81a.19.19,0,0,0,.09.15l21.08,12C193.67,318.64,217,332,239.9,345.14l2.66,4.38-2.48-4.38c19.9-11.3,40.09-22.86,59.62-34.05l30.37-17.38a.19.19,0,0,0,.09-.15q0-51.4,0-102.82a.16.16,0,0,0-.09-.15l-27.13-15.53c-20.58-11.78-41.86-24-62.82-35.9Zm212.2,160.1a2.51,2.51,0,0,0-.62.08l-.22.05a3.45,3.45,0,0,0-2.53,3.62,2.34,2.34,0,0,1,0,.26,3.53,3.53,0,0,0,3.31,2.82h0a2.1,2.1,0,0,0,.51-.06L453,306a3.22,3.22,0,0,0,2.08-1.49,3.16,3.16,0,0,0,.49-2.47l-.06-.26A3.54,3.54,0,0,0,452.23,299.23ZM27.8,178.24a2.56,2.56,0,0,0-.79.12l-.24.08a3.46,3.46,0,0,0-2.22,3.91l.06.24a3.49,3.49,0,0,0,3.23,2.47h0a2.07,2.07,0,0,0,.5-.05l.27,0a3.44,3.44,0,0,0,2.61-3.84,2.8,2.8,0,0,1-.06-.28A3.52,3.52,0,0,0,27.8,178.24ZM396.87,84.53a2.46,2.46,0,0,0-.67.09l-.25.06A3.25,3.25,0,0,0,394,86.21a3.12,3.12,0,0,0-.44,2.36,2.68,2.68,0,0,1,.07.27,3.51,3.51,0,0,0,3.29,2.51h0a2.43,2.43,0,0,0,.61-.08l.25,0a3.26,3.26,0,0,0,2-1.49,3.14,3.14,0,0,0,.48-2.36l-.06-.28A3.5,3.5,0,0,0,396.87,84.53ZM183.78,24.43a2.71,2.71,0,0,0-1,.19l-.24.09a3.23,3.23,0,0,0-1.8,1.87,3.14,3.14,0,0,0,0,2.55l.12.27A3.5,3.5,0,0,0,184,31.23h0a2.64,2.64,0,0,0,1.17-.25l.23-.1A3.26,3.26,0,0,0,187,29.06a3.13,3.13,0,0,0,0-2.4l-.1-.24A3.46,3.46,0,0,0,183.78,24.43Z"/>
</svg>
