<svg xmlns="http://www.w3.org/2000/svg" viewBox="0 0 265.18 45">
  <defs>
    <style>
      .a {
        fill: #f18564;
      }

      .b {
        fill: #40555b;
      }
    </style>
  </defs>
  <path class="a" d="M7,26.8,7.25,42a3.12,3.12,0,0,1-.68,2.08,2.07,2.07,0,0,1-1.66.83,2,2,0,0,1-1.65-.83,2.64,2.64,0,0,1-.69-1.71c0-.59,0-1.8.11-3.63.16-5.4.23-10.12.23-14.13s0-7.16-.05-9.43-.09-4.06-.15-5.37-.08-2.1-.08-2.37a6.14,6.14,0,0,1-.92.11C.57,7.55,0,6.92,0,5.67Q0,3.33,4.51,2A28.85,28.85,0,0,1,12.57.64c5.21,0,9.16,1.23,11.82,3.69a11.8,11.8,0,0,1,4,9.05,12.13,12.13,0,0,1-2.31,7,14,14,0,0,1-6.31,5c3.57,8.49,6.57,13.4,9,14.73a2.5,2.5,0,0,0,1.6.46q1.2-.16,1.2.69a3.6,3.6,0,0,1-1,2.63,3.26,3.26,0,0,1-2.35,1c-1.44,0-3-1.06-4.57-3.2a96.51,96.51,0,0,1-7.94-15,29.57,29.57,0,0,1-5.42.51ZM24.16,13.72a8.37,8.37,0,0,0-2.91-6.6,11.28,11.28,0,0,0-7.68-2.54c-3.18,0-5.36.35-6.54,1-.12,2-.17,5.05-.17,9.2s0,6.66,0,7.54a20.25,20.25,0,0,1,5.26-.69,19.76,19.76,0,0,1,4.91.57,9,9,0,0,0,4.83-3A8,8,0,0,0,24.16,13.72Z"/>
  <path class="a" d="M64.84,7.35a19.5,19.5,0,0,0-7-5.14,21.72,21.72,0,0,0-9-1.94,34,34,0,0,0-8.51,1q-3.77,1-3.77,2.91c0,1.45.91,2.18,2.74,2.18l.29,16.33-.17,16.28a3.2,3.2,0,0,0-1.49-.4,1.56,1.56,0,0,0-1.17.46,1.6,1.6,0,0,0-.43,1.14q0,1.95,3.57,3.17a27.67,27.67,0,0,0,8.91,1.23,23.15,23.15,0,0,0,9.49-1.85A18.37,18.37,0,0,0,65,37.74a22.26,22.26,0,0,0,5.31-14.85A23.66,23.66,0,0,0,64.84,7.35ZM61.41,35.29Q57,40.48,48.84,40.49A27.18,27.18,0,0,1,44,40.2q-.34-6.86-.34-18.88T44,4.9a18.08,18.08,0,0,1,4.28-.52A18.53,18.53,0,0,1,56,5.93,14.79,14.79,0,0,1,61.52,10a19.19,19.19,0,0,1,4.35,12.65A18.73,18.73,0,0,1,61.41,35.29Z"/>
  <path class="a" d="M74.21,22.43l-.29-19a3.16,3.16,0,0,1,.66-2.2A2.46,2.46,0,0,1,76.49.56c.84,0,1.55.66,2.12,2Q83.23,13,84.46,15.61t3.74,8c1.68,3.59,2.8,6,3.37,7.11q5.61-10.8,10.29-22.28,1.83-4.45,2.62-6.17A2.54,2.54,0,0,1,106.83.56q2.34,0,2.34,2.91c0,.3,0,1.34-.09,3.11s-.1,4.11-.14,7-.06,5.85-.06,8.85,0,6,.06,8.83.09,5.2.14,7,.09,2.94.09,3.51a2.63,2.63,0,0,1-.69,1.69,2.07,2.07,0,0,1-3.31,0,2.63,2.63,0,0,1-.69-1.69q0-.85.06-3.54.34-9.71.35-15.77V11.35l-11,24.22c-.53,1.18-1.27,1.77-2.2,1.77S90,36.7,89.46,35.4Q82.54,20,78.32,11.12V22.43l.29,18.91a3.15,3.15,0,0,1-.69,2.09,2.07,2.07,0,0,1-3.31,0,3.15,3.15,0,0,1-.69-2.09Z"/>
  <path class="a" d="M170.28,23.45a20.57,20.57,0,0,1-6.59,15.45c-9.3,8.43-22.06,8.09-30.74-.81C119,24,129.62-.65,149.31,0c5.56,0,14.05,4,15.34,8.29.5,1.69-1.62,3.28-3.52,2.2-3.41-2.42-5.86-6.29-11.36-6.52-15.57-.33-24.22,21.94-13,32.65a6,6,0,0,0,.67.56c11.49,8.63,28.79,2,28.85-12.69a.61.61,0,0,0-.57-.62c-4.53-.3-13.69.42-17.82.41-3.74,0-3.15-3.36-.12-3.17a153.77,153.77,0,0,0,18-.05h.12C168.25,21.08,170.28,21.79,170.28,23.45Z"/>
  <path class="a" d="M178.18,19.24l-.46,12.56a11,11,0,0,0,1.66,6.32A5.26,5.26,0,0,0,184,40.54c2,0,3.86-1.09,5.69-3.28a19.05,19.05,0,0,0,3.83-7.4l-.18-12.4c0-1.94.73-2.91,2.18-2.91q2.63,0,2.62,4A77.75,77.75,0,0,1,197,29.86a31.86,31.86,0,0,0,.63,7c.42,1.81.91,2.83,1.48,3.06a2.46,2.46,0,0,0,.83.22,1.91,1.91,0,0,1,.69.18.47.47,0,0,1,.2.45,3.51,3.51,0,0,1-.94,2.52,3.2,3.2,0,0,1-2.38,1q-3.58,0-3.59-7.32-4.23,7.32-10.63,7.32a8.29,8.29,0,0,1-7.08-3.4,13.58,13.58,0,0,1-2.52-8.31l.35-8.63a19.18,19.18,0,0,0-.46-4.26,14,14,0,0,1-.46-2.82,2.21,2.21,0,0,1,.69-1.57,2.31,2.31,0,0,1,1.77-.72Q178.18,14.55,178.18,19.24Z"/>
  <path class="a" d="M206.31,2.27a2.07,2.07,0,0,1,1.77.77A3.17,3.17,0,0,1,208.65,5a4.07,4.07,0,0,1-.8,2.34,2.34,2.34,0,0,1-2,1.18,2.1,2.1,0,0,1-1.8-.8,3.46,3.46,0,0,1-.6-2.12,3.53,3.53,0,0,1,.82-2.31A2.55,2.55,0,0,1,206.31,2.27Z"/>
  <path class="a" d="M207.91,29.4l.29,12c0,1.91-.73,2.86-2.17,2.86s-2.17-.95-2.17-2.86l.28-12-.28-12c0-1.91.72-2.86,2.17-2.86s2.17.95,2.17,2.86Z"/>
  <path class="a" d="M238.76,40q-1.48-.28-2-4.23a90,90,0,0,1-.51-10.91q.28-3.77.74-8.43c.31-3.1.53-5.59.69-7.48s.22-3.47.22-4.77a4.73,4.73,0,0,0-.77-2.94,2.4,2.4,0,0,0-2-1,1.92,1.92,0,0,0-1.77.89c-.36.59-.54,2.11-.54,4.57s0,6.33-.11,11.62a13.52,13.52,0,0,0-8.12-2.8,11.88,11.88,0,0,0-9.65,4.63A16.66,16.66,0,0,0,211.17,30a18.35,18.35,0,0,0,1.14,6.29,13.64,13.64,0,0,0,3.83,5.54,9.27,9.27,0,0,0,6.4,2.4q6.39,0,10.57-7.66a17.05,17.05,0,0,0,1.34,5.83,2.87,2.87,0,0,0,2.6,1.83,2.72,2.72,0,0,0,2.43-1.15,4,4,0,0,0,.77-2.22C240.25,40.32,239.75,40,238.76,40Zm-6-9.37q-3.89,9.89-9.89,9.88a6.11,6.11,0,0,1-5.42-3.22,14.44,14.44,0,0,1-2-7.77,12.09,12.09,0,0,1,2.77-7.92,8.17,8.17,0,0,1,6.42-3.37,11.3,11.3,0,0,1,8.12,3.32Z"/>
  <path class="a" d="M263.61,37.34c-.47,0-1.47.6-3,1.78a9.56,9.56,0,0,1-2.51,1.17,11.52,11.52,0,0,1-3.6.54,7.89,7.89,0,0,1-5.91-2.89,11.29,11.29,0,0,1-3-6.88,38.25,38.25,0,0,0,7.26.86,16.82,16.82,0,0,0,8.76-2.14,6.88,6.88,0,0,0,3.57-6.26,8.53,8.53,0,0,0-2.88-6.68,10.79,10.79,0,0,0-7.48-2.57,11.49,11.49,0,0,0-8.12,3.31A16.86,16.86,0,0,0,241.93,26a4,4,0,0,0-1.71-.51,1.56,1.56,0,0,0-1.17.49,1.82,1.82,0,0,0-.49,1.34q0,2.05,3,3a16.48,16.48,0,0,0,3.77,10,11.66,11.66,0,0,0,9.43,4.17,13.15,13.15,0,0,0,7.11-2c2.19-1.38,3.28-2.59,3.28-3.66a1.46,1.46,0,0,0-.42-1.06A1.59,1.59,0,0,0,263.61,37.34ZM249,20.81A8.23,8.23,0,0,1,255.3,18a5.6,5.6,0,0,1,4.32,1.63,5.5,5.5,0,0,1,1.51,3.85A4,4,0,0,1,258.82,27a12.45,12.45,0,0,1-6.17,1.32,25,25,0,0,1-7-.92A13.46,13.46,0,0,1,249,20.81Z"/>
  <path class="b" d="M157.12,10.76c-12.77,11.39-10.42,8.37-18.2,23.57a.25.25,0,0,0,.4.31c12.78-11.39,10.43-8.38,18.2-23.57C157.68,10.77,157.37,10.53,157.12,10.76Z"/>
  <circle class="a" cx="148.22" cy="22.7" r="1.23"/>
</svg>
