<svg id="b31abdaa-cef9-4018-81ec-fb6019f4f6cd" data-name="Layer 1" xmlns="http://www.w3.org/2000/svg" viewBox="0 0 436.11 92.61"><path d="M27.82,40.82,28.26,64a4.8,4.8,0,0,1-1.05,3.18,3.15,3.15,0,0,1-5,0,4,4,0,0,1-1.05-2.61c0-.9.06-2.74.18-5.53q.35-12.34.34-21.53t-.08-14.35q-.09-5.18-.22-8.18c-.09-2-.13-3.2-.13-3.61a9.85,9.85,0,0,1-1.39.17c-1.74,0-2.61-.95-2.61-2.87q0-3.57,6.87-5.61A43.67,43.67,0,0,1,36.35,1q11.91,0,18,5.61a18,18,0,0,1,6.09,13.79A18.42,18.42,0,0,1,56.92,31a21.25,21.25,0,0,1-9.61,7.62Q55.49,58,61,61.09a3.88,3.88,0,0,0,2.43.7c1.22-.18,1.83.17,1.83,1a5.45,5.45,0,0,1-1.56,4A5,5,0,0,1,60.1,68.4q-3.32,0-7-4.87Q47.92,56,41.05,40.65a45,45,0,0,1-8.27.78ZM54,20.9a12.71,12.71,0,0,0-4.44-10Q45.13,7,37.87,7t-10,1.56q-.27,4.53-.26,14T27.73,34a30.79,30.79,0,0,1,8-1,30.11,30.11,0,0,1,7.48.87,13.6,13.6,0,0,0,7.35-4.57A12.2,12.2,0,0,0,54,20.9Z" style="fill:#d07258"/><path d="M77.5,34.51,77.06,9.63q-4.17,0-4.17-3.3,0-3,5.74-4.44a51.89,51.89,0,0,1,13-1.48,33,33,0,0,1,13.75,3A29.45,29.45,0,0,1,116,11.2a36,36,0,0,1,8.35,23.66,33.89,33.89,0,0,1-8.09,22.62A28,28,0,0,1,106,65a35.07,35.07,0,0,1-14.44,2.83A42.34,42.34,0,0,1,78,66q-5.45-1.87-5.44-4.83a2.45,2.45,0,0,1,.65-1.74A2.31,2.31,0,0,1,75,58.7a4.72,4.72,0,0,1,2.27.61Zm33.41-19.22A22.92,22.92,0,0,0,102.47,9,29.33,29.33,0,0,0,84.2,7.46q-.44,6.69-.44,25t.52,28.75a41.3,41.3,0,0,0,7.31.44q12.36,0,19.14-7.92a28.5,28.5,0,0,0,6.79-19.18A29.31,29.31,0,0,0,110.91,15.29Z" style="fill:#d07258"/><path d="M130.22,34.17l-.43-28.89a4.83,4.83,0,0,1,1-3.35A3.77,3.77,0,0,1,133.7.85q1.92,0,3.22,3,7.05,15.92,8.92,19.88T151.54,36q3.83,8.22,5.13,10.83,8.52-16.44,15.66-33.93,2.79-6.78,4-9.39A3.85,3.85,0,0,1,179.9.85c2.38,0,3.57,1.47,3.57,4.43,0,.47-.05,2.05-.13,4.74s-.16,6.25-.22,10.66S183,29.59,183,34.17s0,9.06.09,13.44.13,7.92.22,10.61.13,4.48.13,5.35a4,4,0,0,1-1.05,2.57,3.15,3.15,0,0,1-5,0,4,4,0,0,1-1-2.57c0-.87,0-2.66.09-5.39q.53-14.79.52-24V17.29L160.15,54.18c-.81,1.8-1.93,2.69-3.35,2.69s-2.54-1-3.35-2.95q-10.53-23.49-17-37V34.17L136.92,63a4.85,4.85,0,0,1-1,3.18,3.16,3.16,0,0,1-5,0,4.85,4.85,0,0,1-1-3.18Z" style="fill:#d07258"/><path d="M276.53,35.72a31.3,31.3,0,0,1-10,23.52C252.33,72.07,232.9,71.57,219.68,58c-21.25-21.43-5.06-59,24.93-58C253.07-.07,266,6.1,268,12.64c.77,2.57-2.47,5-5.35,3.34-5.2-3.67-8.94-9.57-17.31-9.91-23.72-.51-36.89,33.4-19.72,49.72.32.3.66.59,1,.86,17.51,13.13,43.86,3,43.94-19.35a.93.93,0,0,0-.86-.93c-6.9-.45-18.33,1.46-24.62,1.44-5.7,0-3.49-5.75,1.13-5.46a174,174,0,0,0,23.54-.26h.18C273.44,32.1,276.53,33.19,276.53,35.72Z" style="fill:#d07258"/><path d="M288.56,29.29l-.7,19.14a16.69,16.69,0,0,0,2.53,9.62,8,8,0,0,0,7,3.7q4.49,0,8.66-5a29,29,0,0,0,5.83-11.26l-.26-18.88q0-4.44,3.3-4.44c2.67,0,4,2.05,4,6.13a118.35,118.35,0,0,1-1.74,17.19,48.38,48.38,0,0,0,1,10.65q1,4.14,2.26,4.66a4,4,0,0,0,1.26.35,3,3,0,0,1,1,.26.73.73,0,0,1,.3.69,5.28,5.28,0,0,1-1.43,3.83A4.81,4.81,0,0,1,318,67.4q-5.49,0-5.48-11.14Q306,67.41,296.3,67.4a12.6,12.6,0,0,1-10.78-5.18,20.63,20.63,0,0,1-3.83-12.65l.52-13.14a28.29,28.29,0,0,0-.7-6.48,22.14,22.14,0,0,1-.69-4.31,3.4,3.4,0,0,1,1-2.39,3.57,3.57,0,0,1,2.7-1.09Q288.57,22.16,288.56,29.29Z" style="fill:#d07258"/><path d="M331.41,3.46a3.14,3.14,0,0,1,2.7,1.17,4.83,4.83,0,0,1,.87,3,6.32,6.32,0,0,1-1.22,3.57,3.61,3.61,0,0,1-3.05,1.78A3.22,3.22,0,0,1,328,11.72a5.21,5.21,0,0,1-.91-3.22A5.35,5.35,0,0,1,328.32,5,3.85,3.85,0,0,1,331.41,3.46Zm2.44,41.32.43,18.27q0,4.35-3.3,4.35t-3.31-4.35l.43-18.27-.43-18.27q0-4.35,3.31-4.35t3.3,4.35Z" style="fill:#d07258"/><path d="M380.83,61c1.51,0,2.26.44,2.26,1.31a6.08,6.08,0,0,1-1.17,3.39,4.16,4.16,0,0,1-3.7,1.74q-2.52,0-4-2.78t-2-8.88q-6.36,11.67-16.1,11.66a14.13,14.13,0,0,1-9.74-3.65,20.73,20.73,0,0,1-5.83-8.44,27.84,27.84,0,0,1-1.74-9.57,25.37,25.37,0,0,1,5.74-16.53,18.13,18.13,0,0,1,14.7-7,20.61,20.61,0,0,1,12.36,4.26q.17-12.09.17-17.7t.83-7a2.92,2.92,0,0,1,2.7-1.35,3.68,3.68,0,0,1,3,1.52,7.28,7.28,0,0,1,1.17,4.48q0,3-.34,7.27c-.24,2.87-.58,6.67-1.05,11.4s-.84,9-1.13,12.83a136.44,136.44,0,0,0,.78,16.61C378.31,58.53,379.32,60.67,380.83,61Zm-9.22-14.27V32.86a17.2,17.2,0,0,0-12.36-5q-5.56,0-9.78,5.13a18.36,18.36,0,0,0-4.22,12,22,22,0,0,0,3,11.83q3,4.92,8.27,4.92Q365.69,61.75,371.61,46.69Z" style="fill:#d07258"/><path d="M405.28,21.73q7,0,11.4,3.91a13,13,0,0,1,4.39,10.18,10.46,10.46,0,0,1-5.44,9.53,25.54,25.54,0,0,1-13.35,3.26,57.94,57.94,0,0,1-11-1.31,17.24,17.24,0,0,0,4.57,10.49c2.69,2.93,5.7,4.39,9,4.39a17.25,17.25,0,0,0,5.48-.83,13.92,13.92,0,0,0,3.83-1.78q3.48-2.7,4.57-2.7a2.35,2.35,0,0,1,1.74.66,2.19,2.19,0,0,1,.65,1.61c0,1.62-1.67,3.48-5,5.56a20,20,0,0,1-10.83,3.14q-9.06,0-14.36-6.36a25,25,0,0,1-5.74-15.31q-4.61-1.38-4.61-4.52a2.8,2.8,0,0,1,.74-2,2.44,2.44,0,0,1,1.78-.74,6.18,6.18,0,0,1,2.61.79,25.64,25.64,0,0,1,7.27-12.88A17.46,17.46,0,0,1,405.28,21.73ZM402,43.13a19,19,0,0,0,9.4-2q3.53-2,3.52-5.4a8.35,8.35,0,0,0-2.3-5.87A8.55,8.55,0,0,0,406,27.38a12.55,12.55,0,0,0-9.66,4.31,20.52,20.52,0,0,0-5,10.05A38.37,38.37,0,0,0,402,43.13Z" style="fill:#d07258"/><path d="M28.06,44.07l.43,23.14a4.79,4.79,0,0,1-1,3.18,3.16,3.16,0,0,1-5.05,0,4.08,4.08,0,0,1-1-2.61c0-.9.06-2.74.17-5.53q.34-12.34.35-21.53t-.09-14.35c-.05-3.46-.13-6.18-.21-8.18s-.13-3.21-.13-3.61a11.58,11.58,0,0,1-1.4.17c-1.74,0-2.61-1-2.61-2.87q0-3.57,6.88-5.61a43.71,43.71,0,0,1,12.26-2q11.93,0,18,5.62a18,18,0,0,1,6.09,13.78,18.42,18.42,0,0,1-3.52,10.66,21.23,21.23,0,0,1-9.61,7.61Q55.73,61.3,61.21,64.34a4,4,0,0,0,2.43.7c1.22-.18,1.83.17,1.83,1a5.39,5.39,0,0,1-1.57,4,4.88,4.88,0,0,1-3.56,1.57q-3.31,0-7-4.87Q48.16,59.3,41.28,43.9a44.9,44.9,0,0,1-8.26.78ZM54.25,24.15a12.71,12.71,0,0,0-4.44-10q-4.44-3.87-11.7-3.87t-10,1.56q-.27,4.53-.27,14T28,37.28a31.21,31.21,0,0,1,8-1,30.11,30.11,0,0,1,7.48.87,13.6,13.6,0,0,0,7.35-4.57A12.2,12.2,0,0,0,54.25,24.15Z" style="fill:#40555b"/><path d="M77.73,37.76,77.3,12.88c-2.78,0-4.18-1.1-4.18-3.31,0-2,1.92-3.45,5.74-4.43a51.91,51.91,0,0,1,13-1.48,32.93,32.93,0,0,1,13.74,3,29.48,29.48,0,0,1,10.62,7.83,36,36,0,0,1,8.35,23.66,33.94,33.94,0,0,1-8.09,22.62,28,28,0,0,1-10.22,7.53,35.08,35.08,0,0,1-14.45,2.82,42.14,42.14,0,0,1-13.57-1.87q-5.43-1.86-5.43-4.83a2.44,2.44,0,0,1,.65-1.74A2.33,2.33,0,0,1,75.21,62a4.68,4.68,0,0,1,2.26.61Zm33.41-19.22a22.84,22.84,0,0,0-8.44-6.27A28.39,28.39,0,0,0,91,9.92a27.88,27.88,0,0,0-6.53.79Q84,17.4,84,35.72t.52,28.75a41.22,41.22,0,0,0,7.31.44q12.35,0,19.14-7.92a28.49,28.49,0,0,0,6.78-19.18A29.26,29.26,0,0,0,111.14,18.54Z" style="fill:#40555b"/><path d="M130.46,37.41,130,8.53a4.81,4.81,0,0,1,1-3.35,3.76,3.76,0,0,1,2.91-1.09q1.92,0,3.22,3.05,7.05,15.92,8.92,19.88l5.7,12.18q3.83,8.22,5.13,10.83,8.52-16.44,15.66-33.93,2.77-6.78,4-9.4a3.85,3.85,0,0,1,3.57-2.61q3.56,0,3.56,4.44c0,.47,0,2.05-.13,4.74s-.16,6.25-.21,10.66-.09,8.9-.09,13.48,0,9.07.09,13.45.13,7.91.21,10.61.13,4.48.13,5.35a4,4,0,0,1-1,2.57,3.16,3.16,0,0,1-5,0,4,4,0,0,1-1-2.57c0-.87,0-2.67.09-5.39q.53-14.79.52-24V20.54L160.39,57.42q-1.21,2.7-3.35,2.7c-1.42,0-2.54-1-3.35-3q-10.53-23.49-17-37V37.41l.44,28.8a4.85,4.85,0,0,1-1,3.18,3.16,3.16,0,0,1-5.05,0,4.79,4.79,0,0,1-1-3.18Z" style="fill:#40555b"/><path d="M276.77,39a31.31,31.31,0,0,1-10,23.53c-14.17,12.83-33.61,12.33-46.82-1.24-21.25-21.43-5.06-59,24.92-58,8.46-.09,21.39,6.07,23.35,12.61.77,2.58-2.46,5-5.35,3.35-5.19-3.67-8.93-9.57-17.31-9.92-23.71-.5-36.89,33.41-19.72,49.73a11.78,11.78,0,0,0,1,.85c17.51,13.14,43.86,3,43.94-19.34a.93.93,0,0,0-.86-.93c-6.9-.46-20.85.64-27.14.62-5.7,0-4.8-5.12-.18-4.83A233.2,233.2,0,0,0,270,35.33h.19C273.68,35.35,276.77,36.43,276.77,39Z" style="fill:#40555b"/><path d="M288.8,32.54l-.7,19.14a16.77,16.77,0,0,0,2.52,9.62,8,8,0,0,0,7,3.69q4.47,0,8.65-5a28.73,28.73,0,0,0,5.83-11.27l-.26-18.87q0-4.44,3.31-4.44,4,0,4,6.13a118.11,118.11,0,0,1-1.74,17.18,48.48,48.48,0,0,0,1,10.66q1,4.14,2.26,4.66a3.74,3.74,0,0,0,1.26.34,3,3,0,0,1,1.05.27.72.72,0,0,1,.3.69,5.26,5.26,0,0,1-1.44,3.83,4.8,4.8,0,0,1-3.61,1.48q-5.47,0-5.48-11.14-6.44,11.15-16.18,11.14a12.64,12.64,0,0,1-10.79-5.18,20.71,20.71,0,0,1-3.83-12.66l.53-13.13a28.86,28.86,0,0,0-.7-6.48,22.49,22.49,0,0,1-.7-4.31,3.37,3.37,0,0,1,1.05-2.39,3.54,3.54,0,0,1,2.7-1.09C287.46,25.41,288.8,27.79,288.8,32.54Z" style="fill:#40555b"/><path d="M331.65,6.7a3.13,3.13,0,0,1,2.69,1.18,4.83,4.83,0,0,1,.87,3A6.25,6.25,0,0,1,334,14.4,3.61,3.61,0,0,1,331,16.19,3.21,3.21,0,0,1,328.21,15a5.23,5.23,0,0,1-.91-3.22,5.35,5.35,0,0,1,1.26-3.52A3.86,3.86,0,0,1,331.65,6.7ZM334.08,48l.44,18.27q0,4.35-3.31,4.35t-3.3-4.35L328.34,48l-.43-18.27q0-4.35,3.3-4.35t3.31,4.35Z" style="fill:#40555b"/><path d="M381.07,64.21c1.5,0,2.26.44,2.26,1.31a6,6,0,0,1-1.18,3.39,4.13,4.13,0,0,1-3.69,1.74q-2.54,0-4-2.79T372.45,59q-6.34,11.66-16.09,11.66A14.14,14.14,0,0,1,346.61,67a20.7,20.7,0,0,1-5.82-8.43A27.61,27.61,0,0,1,339.05,49a25.33,25.33,0,0,1,5.74-16.53,18.13,18.13,0,0,1,14.7-7,20.56,20.56,0,0,1,12.35,4.26Q372,17.58,372,12c0-3.74.27-6.06.83-7a2.9,2.9,0,0,1,2.69-1.35,3.7,3.7,0,0,1,3,1.52,7.28,7.28,0,0,1,1.17,4.48c0,2-.11,4.39-.35,7.27s-.58,6.67-1,11.39-.84,9-1.13,12.84A136.44,136.44,0,0,0,378,57.77Q378.8,63.77,381.07,64.21Zm-9.23-14.27V36.11a17.18,17.18,0,0,0-12.35-5.05q-5.57,0-9.79,5.14a18.41,18.41,0,0,0-4.22,12,22,22,0,0,0,3,11.83q3,4.92,8.26,4.91Q365.92,65,371.84,49.94Z" style="fill:#40555b"/><path d="M405.52,25q7,0,11.39,3.92a13,13,0,0,1,4.4,10.18,10.47,10.47,0,0,1-5.44,9.52,25.47,25.47,0,0,1-13.35,3.27,57.94,57.94,0,0,1-11-1.31A17.23,17.23,0,0,0,396,61q4.05,4.39,9,4.4a17.53,17.53,0,0,0,5.48-.83,13.92,13.92,0,0,0,3.83-1.78q3.48-2.7,4.57-2.7a2.39,2.39,0,0,1,1.74.65,2.23,2.23,0,0,1,.65,1.61c0,1.63-1.67,3.48-5,5.57a20,20,0,0,1-10.84,3.13q-9,0-14.35-6.35a25.06,25.06,0,0,1-5.74-15.31c-3.08-.93-4.61-2.44-4.61-4.52a2.76,2.76,0,0,1,.74-2,2.42,2.42,0,0,1,1.78-.74,6,6,0,0,1,2.61.79A25.59,25.59,0,0,1,393.16,30,17.51,17.51,0,0,1,405.52,25Zm-3.31,21.41a18.93,18.93,0,0,0,9.4-2q3.52-2,3.52-5.39a8.35,8.35,0,0,0-2.3-5.87,8.51,8.51,0,0,0-6.57-2.48,12.51,12.51,0,0,0-9.66,4.31,20.63,20.63,0,0,0-5.05,10A38.06,38.06,0,0,0,402.21,46.38Z" style="fill:#40555b"/><path d="M28.06,44.07l.43,23.14a4.79,4.79,0,0,1-1,3.18,3.16,3.16,0,0,1-5.05,0,4.08,4.08,0,0,1-1-2.61c0-.9.06-2.74.17-5.53q.34-12.34.35-21.53t-.09-14.35c-.05-3.46-.13-6.18-.21-8.18s-.13-3.21-.13-3.61a11.58,11.58,0,0,1-1.4.17c-1.74,0-2.61-1-2.61-2.87q0-3.57,6.88-5.61a43.71,43.71,0,0,1,12.26-2q11.93,0,18,5.62a18,18,0,0,1,6.09,13.78,18.42,18.42,0,0,1-3.52,10.66,21.23,21.23,0,0,1-9.61,7.61Q55.73,61.3,61.21,64.34a4,4,0,0,0,2.43.7c1.22-.18,1.83.17,1.83,1a5.39,5.39,0,0,1-1.57,4,4.88,4.88,0,0,1-3.56,1.57q-3.31,0-7-4.87Q48.16,59.3,41.28,43.9a44.9,44.9,0,0,1-8.26.78ZM54.25,24.15a12.71,12.71,0,0,0-4.44-10q-4.44-3.87-11.7-3.87t-10,1.56q-.27,4.53-.27,14T28,37.28a31.21,31.21,0,0,1,8-1,30.11,30.11,0,0,1,7.48.87,13.6,13.6,0,0,0,7.35-4.57A12.2,12.2,0,0,0,54.25,24.15Z" style="fill:#f18564"/><path d="M77.73,37.76,77.3,12.88c-2.78,0-4.18-1.1-4.18-3.31,0-2,1.92-3.45,5.74-4.43a51.91,51.91,0,0,1,13-1.48,32.93,32.93,0,0,1,13.74,3,29.48,29.48,0,0,1,10.62,7.83,36,36,0,0,1,8.35,23.66,33.94,33.94,0,0,1-8.09,22.62,28,28,0,0,1-10.22,7.53,35.08,35.08,0,0,1-14.45,2.82,42.14,42.14,0,0,1-13.57-1.87q-5.43-1.86-5.43-4.83a2.44,2.44,0,0,1,.65-1.74A2.33,2.33,0,0,1,75.21,62a4.68,4.68,0,0,1,2.26.61Zm33.41-19.22a22.84,22.84,0,0,0-8.44-6.27A28.39,28.39,0,0,0,91,9.92a27.88,27.88,0,0,0-6.53.79Q84,17.4,84,35.72t.52,28.75a41.22,41.22,0,0,0,7.31.44q12.35,0,19.14-7.92a28.49,28.49,0,0,0,6.78-19.18A29.26,29.26,0,0,0,111.14,18.54Z" style="fill:#f18564"/><path d="M130.46,37.41,130,8.53a4.81,4.81,0,0,1,1-3.35,3.76,3.76,0,0,1,2.91-1.09q1.92,0,3.22,3.05,7.05,15.92,8.92,19.88l5.7,12.18q3.83,8.22,5.13,10.83,8.52-16.44,15.66-33.93,2.77-6.78,4-9.4a3.85,3.85,0,0,1,3.57-2.61q3.56,0,3.56,4.44c0,.47,0,2.05-.13,4.74s-.16,6.25-.21,10.66-.09,8.9-.09,13.48,0,9.07.09,13.45.13,7.91.21,10.61.13,4.48.13,5.35a4,4,0,0,1-1,2.57,3.16,3.16,0,0,1-5,0,4,4,0,0,1-1-2.57c0-.87,0-2.67.09-5.39q.53-14.79.52-24V20.54L160.39,57.42q-1.21,2.7-3.35,2.7c-1.42,0-2.54-1-3.35-3q-10.53-23.49-17-37V37.41l.44,28.8a4.85,4.85,0,0,1-1,3.18,3.16,3.16,0,0,1-5.05,0,4.79,4.79,0,0,1-1-3.18Z" style="fill:#f18564"/><path d="M276.77,39a31.31,31.31,0,0,1-10,23.53c-14.17,12.83-33.61,12.33-46.82-1.24-21.25-21.43-5.06-59,24.92-58,8.46-.09,21.39,6.07,23.35,12.61.77,2.58-2.46,5-5.35,3.35-5.19-3.67-8.93-9.57-17.31-9.92-23.71-.5-36.89,33.41-19.72,49.73a11.78,11.78,0,0,0,1,.85c17.51,13.14,43.86,3,43.94-19.34a.93.93,0,0,0-.86-.93c-6.9-.46-20.85.64-27.14.62-5.7,0-4.8-5.12-.18-4.83A233.2,233.2,0,0,0,270,35.33h.19C273.68,35.35,276.77,36.43,276.77,39Z" style="fill:#f18564"/><path d="M288.8,32.54l-.7,19.14a16.77,16.77,0,0,0,2.52,9.62,8,8,0,0,0,7,3.69q4.47,0,8.65-5a28.73,28.73,0,0,0,5.83-11.27l-.26-18.87q0-4.44,3.31-4.44,4,0,4,6.13a118.11,118.11,0,0,1-1.74,17.18,48.48,48.48,0,0,0,1,10.66q1,4.14,2.26,4.66a3.74,3.74,0,0,0,1.26.34,3,3,0,0,1,1.05.27.72.72,0,0,1,.3.69,5.26,5.26,0,0,1-1.44,3.83,4.8,4.8,0,0,1-3.61,1.48q-5.47,0-5.48-11.14-6.44,11.15-16.18,11.14a12.64,12.64,0,0,1-10.79-5.18,20.71,20.71,0,0,1-3.83-12.66l.53-13.13a28.86,28.86,0,0,0-.7-6.48,22.49,22.49,0,0,1-.7-4.31,3.37,3.37,0,0,1,1.05-2.39,3.54,3.54,0,0,1,2.7-1.09C287.46,25.41,288.8,27.79,288.8,32.54Z" style="fill:#f18564"/><path d="M331.65,6.7a3.13,3.13,0,0,1,2.69,1.18,4.83,4.83,0,0,1,.87,3A6.25,6.25,0,0,1,334,14.4,3.61,3.61,0,0,1,331,16.19,3.21,3.21,0,0,1,328.21,15a5.23,5.23,0,0,1-.91-3.22,5.35,5.35,0,0,1,1.26-3.52A3.86,3.86,0,0,1,331.65,6.7ZM334.08,48l.44,18.27q0,4.35-3.31,4.35t-3.3-4.35L328.34,48l-.43-18.27q0-4.35,3.3-4.35t3.31,4.35Z" style="fill:#f18564"/><path d="M381.07,64.21c1.5,0,2.26.44,2.26,1.31a6,6,0,0,1-1.18,3.39,4.13,4.13,0,0,1-3.69,1.74q-2.54,0-4-2.79T372.45,59q-6.34,11.66-16.09,11.66A14.14,14.14,0,0,1,346.61,67a20.7,20.7,0,0,1-5.82-8.43A27.61,27.61,0,0,1,339.05,49a25.33,25.33,0,0,1,5.74-16.53,18.13,18.13,0,0,1,14.7-7,20.56,20.56,0,0,1,12.35,4.26Q372,17.58,372,12c0-3.74.27-6.06.83-7a2.9,2.9,0,0,1,2.69-1.35,3.7,3.7,0,0,1,3,1.52,7.28,7.28,0,0,1,1.17,4.48c0,2-.11,4.39-.35,7.27s-.58,6.67-1,11.39-.84,9-1.13,12.84A136.44,136.44,0,0,0,378,57.77Q378.8,63.77,381.07,64.21Zm-9.23-14.27V36.11a17.18,17.18,0,0,0-12.35-5.05q-5.57,0-9.79,5.14a18.41,18.41,0,0,0-4.22,12,22,22,0,0,0,3,11.83q3,4.92,8.26,4.91Q365.92,65,371.84,49.94Z" style="fill:#f18564"/><path d="M405.52,25q7,0,11.39,3.92a13,13,0,0,1,4.4,10.18,10.47,10.47,0,0,1-5.44,9.52,25.47,25.47,0,0,1-13.35,3.27,57.94,57.94,0,0,1-11-1.31A17.23,17.23,0,0,0,396,61q4.05,4.39,9,4.4a17.53,17.53,0,0,0,5.48-.83,13.92,13.92,0,0,0,3.83-1.78q3.48-2.7,4.57-2.7a2.39,2.39,0,0,1,1.74.65,2.23,2.23,0,0,1,.65,1.61c0,1.63-1.67,3.48-5,5.57a20,20,0,0,1-10.84,3.13q-9,0-14.35-6.35a25.06,25.06,0,0,1-5.74-15.31c-3.08-.93-4.61-2.44-4.61-4.52a2.76,2.76,0,0,1,.74-2,2.42,2.42,0,0,1,1.78-.74,6,6,0,0,1,2.61.79A25.59,25.59,0,0,1,393.16,30,17.51,17.51,0,0,1,405.52,25Zm-3.31,21.41a18.93,18.93,0,0,0,9.4-2q3.52-2,3.52-5.39a8.35,8.35,0,0,0-2.3-5.87,8.51,8.51,0,0,0-6.57-2.48,12.51,12.51,0,0,0-9.66,4.31,20.63,20.63,0,0,0-5.05,10A38.06,38.06,0,0,0,402.21,46.38Z" style="fill:#f18564"/><path d="M256.74,19.63C237.29,37,240.86,32.38,229,55.53c-.23.45.23.81.61.47,19.45-17.35,15.88-12.76,27.72-35.9A.39.39,0,0,0,256.74,19.63Z" style="fill:#40555b"/><circle cx="243.18" cy="37.81" r="1.87" style="fill:#f18564"/><path d="M3.19,80.93c9,.48,17.91.71,26.87.8s17.92,0,26.88,0l26.88,0,26.88-.13,53.75-.38q26.88-.09,53.76.12l26.88.28,26.88.42c9,.09,17.92.34,26.88.5s17.92.36,26.87.62c35.84.87,71.66,2.14,107.49,3.42a3,3,0,1,1-.21,6h-.09L406.09,91c-8.94-.54-17.88-1.06-26.82-1.51l-26.83-1.4L325.6,86.88c-35.79-1.48-71.6-2.73-107.42-3.31q-26.87-.46-53.73-.67c-9-.1-17.91-.08-26.87-.12s-17.92.1-26.87.14c-4.48,0-9,.15-13.44.22s-9,.15-13.43.29c-9,.27-17.91.51-26.86.85s-17.91.62-26.86,1c-4.48.19-8.95.45-13.43.72s-9,.55-13.44.91a3,3,0,1,1-.48-6,2.41,2.41,0,0,1,.38,0Z" style="fill:#40555b"/></svg>