<?xml version="1.0" standalone="no"?>
<!DOCTYPE svg PUBLIC "-//W3C//DTD SVG 20010904//EN"
 "http://www.w3.org/TR/2001/REC-SVG-20010904/DTD/svg10.dtd">
<svg version="1.0" xmlns="http://www.w3.org/2000/svg"
 width="728.000000pt" height="728.000000pt" viewBox="0 0 728.000000 728.000000"
 preserveAspectRatio="xMidYMid meet">
<metadata>
Created by potrace 1.14, written by Peter Selinger 2001-2017
</metadata>
<g transform="translate(0.000000,728.000000) scale(0.100000,-0.100000)"
fill="#000000" stroke="none">
<path d="M3419 7276 c-2 -2 -40 -6 -84 -10 -113 -9 -210 -21 -210 -26 0 -1
-18 -3 -40 -6 -22 -2 -47 -6 -55 -8 -8 -1 -33 -6 -55 -11 -22 -4 -48 -12 -59
-17 -14 -7 -16 -7 -11 2 5 9 2 9 -11 2 -11 -5 -41 -14 -69 -21 -76 -17 -299
-84 -305 -90 -3 -3 -12 -7 -20 -9 -79 -16 -489 -205 -572 -263 -15 -11 -28
-18 -28 -14 0 3 -10 -3 -22 -15 -12 -11 -26 -20 -31 -20 -4 0 -23 -11 -41 -25
-18 -14 -38 -25 -44 -25 -6 0 -12 -4 -14 -8 -1 -5 -31 -27 -65 -50 -60 -41
-216 -162 -298 -233 -60 -51 -305 -299 -343 -346 -19 -23 -44 -53 -55 -66 -47
-52 -67 -78 -67 -86 0 -5 -3 -11 -7 -13 -13 -5 -83 -96 -83 -106 0 -6 -4 -12
-8 -14 -5 -1 -36 -43 -68 -93 -104 -155 -172 -274 -250 -435 -25 -52 -50 -103
-55 -113 -5 -9 -23 -52 -40 -95 -17 -42 -35 -81 -40 -86 -5 -6 -9 -19 -9 -31
0 -12 -5 -26 -12 -33 -7 -7 -8 -12 -4 -12 5 0 4 -6 -1 -12 -6 -7 -23 -51 -37
-98 -15 -47 -30 -92 -33 -100 -8 -21 -11 -31 -18 -62 -3 -15 -9 -38 -14 -50
-5 -13 -9 -26 -10 -30 0 -5 -1 -9 -2 -10 0 -2 -3 -14 -6 -28 -7 -39 -11 -55
-13 -55 -1 0 -3 -7 -5 -15 -1 -8 -8 -40 -14 -70 -18 -89 -21 -103 -26 -145 -3
-22 -7 -47 -10 -55 -2 -8 -7 -40 -10 -70 -3 -30 -8 -68 -11 -85 -18 -107 -29
-618 -14 -644 4 -8 4 -25 0 -37 -5 -12 -6 -25 -3 -28 4 -3 7 -16 9 -28 1 -13
5 -51 8 -84 6 -63 14 -120 22 -164 3 -14 7 -43 10 -65 3 -21 7 -42 10 -46 2
-4 6 -24 10 -45 3 -22 19 -91 36 -154 16 -63 31 -119 32 -125 2 -5 5 -17 8
-25 3 -8 25 -71 48 -140 24 -69 46 -129 50 -135 4 -5 11 -21 15 -35 19 -65
159 -344 228 -455 45 -72 164 -252 174 -263 7 -7 20 -26 30 -42 9 -17 20 -30
24 -30 3 0 18 -18 33 -40 14 -22 41 -56 60 -75 19 -19 33 -35 30 -35 -14 0
342 -359 426 -430 30 -25 61 -52 70 -60 9 -8 34 -28 55 -45 22 -16 45 -33 50
-37 91 -72 211 -158 220 -158 3 0 15 -9 27 -20 12 -11 28 -20 35 -20 7 0 13
-4 13 -10 0 -5 5 -10 12 -10 6 0 19 -6 27 -14 77 -67 634 -327 751 -351 9 -2
54 -15 100 -29 73 -22 178 -49 243 -62 10 -2 26 -5 35 -8 9 -3 40 -8 67 -12
28 -3 53 -8 56 -10 3 -1 31 -6 63 -9 31 -4 67 -8 79 -11 117 -24 659 -24 795
0 9 2 44 7 77 12 33 4 62 8 65 9 3 1 25 5 50 9 25 5 54 10 65 12 11 2 31 6 45
9 14 3 40 9 58 14 18 5 36 10 40 11 55 8 327 90 397 120 11 5 61 25 110 45 50
20 96 41 103 47 6 6 12 8 12 4 0 -7 238 114 323 165 32 19 66 39 76 44 21 12
211 136 226 148 6 4 42 31 80 59 39 29 75 57 81 63 6 5 21 17 34 25 12 8 32
24 44 35 13 11 47 40 77 65 57 48 253 241 304 300 143 165 355 457 355 490 0
5 4 10 9 10 8 0 194 363 217 425 6 17 25 66 42 110 27 71 62 172 68 200 5 20
14 52 34 125 23 81 31 114 35 145 2 11 4 20 5 20 2 0 8 31 14 70 3 17 7 39 10
51 2 12 7 45 11 75 3 30 9 68 12 84 10 58 14 142 18 335 3 192 3 196 -22 248
-56 115 -185 192 -398 238 -93 20 -345 24 -595 10 -428 -24 -1149 -35 -1742
-26 -155 2 -162 4 -135 45 22 33 137 246 233 435 32 63 62 117 66 118 4 2 8 9
8 16 0 6 18 47 41 91 22 44 70 139 105 210 36 72 69 137 74 145 55 98 310 616
310 630 0 26 -30 41 -54 28 -17 -10 -58 -43 -90 -74 -6 -5 -36 -32 -66 -58
-74 -65 -200 -177 -220 -196 -9 -8 -50 -44 -91 -80 -41 -36 -79 -70 -85 -75
-6 -6 -35 -31 -64 -56 -29 -24 -67 -57 -84 -74 -18 -16 -61 -55 -95 -85 -35
-30 -73 -64 -85 -75 -12 -11 -55 -49 -95 -85 -111 -98 -118 -105 -236 -214
-108 -99 -330 -320 -411 -407 -23 -24 -80 -93 -129 -154 -48 -60 -98 -123
-111 -140 -13 -16 -24 -34 -24 -38 0 -4 -8 -17 -18 -28 -11 -10 -25 -32 -33
-47 -8 -15 -17 -29 -20 -32 -3 -3 -19 -27 -35 -53 -16 -27 -39 -65 -52 -85
-12 -21 -32 -55 -43 -77 -12 -22 -28 -48 -37 -57 -8 -10 -11 -18 -6 -18 5 0 4
-4 -2 -8 -5 -4 -20 -27 -33 -52 -13 -25 -40 -76 -61 -115 -20 -38 -57 -108
-81 -155 -24 -47 -47 -86 -51 -88 -5 -2 -8 -11 -8 -21 0 -9 -4 -21 -9 -26 -5
-6 -102 -194 -216 -420 -254 -501 -285 -563 -285 -574 0 -5 -4 -11 -9 -13 -11
-4 -81 -151 -81 -171 0 -16 25 -34 47 -33 10 1 94 72 187 159 16 15 51 45 76
67 26 22 58 50 72 62 68 62 109 98 173 153 39 33 72 63 75 66 3 3 46 42 95 85
90 79 138 121 179 159 13 11 56 49 96 85 41 36 93 83 116 105 24 22 67 60 96
85 100 86 475 465 557 565 71 86 87 100 114 102 29 1 134 6 402 18 55 2 170 7
255 11 85 3 187 8 225 9 92 5 333 14 515 21 204 8 973 9 1045 2 50 -5 64 -11
87 -37 l28 -32 -5 -137 c-3 -75 -7 -155 -10 -177 -3 -22 -6 -47 -6 -55 -1 -16
-34 -207 -43 -250 -3 -14 -8 -38 -12 -55 -17 -90 -114 -376 -136 -402 -6 -7
-8 -13 -4 -13 14 0 -167 -339 -216 -405 -5 -5 -26 -35 -48 -65 -118 -163 -243
-302 -391 -434 -68 -60 -246 -196 -257 -196 -6 0 -12 -4 -14 -9 -6 -17 -240
-153 -374 -217 -74 -35 -136 -64 -138 -64 -3 0 -17 -5 -33 -12 -15 -6 -30 -12
-33 -13 -3 0 -32 -11 -65 -24 -57 -22 -271 -86 -318 -95 -12 -3 -65 -13 -117
-24 -52 -11 -102 -20 -110 -20 -8 -1 -31 -4 -50 -7 -71 -13 -85 -14 -179 -22
-173 -13 -480 -8 -621 11 -42 6 -129 19 -150 23 -8 1 -31 5 -50 7 -19 3 -55
10 -80 17 -25 6 -52 12 -60 14 -82 18 -123 30 -240 68 -236 78 -379 141 -569
249 -46 26 -88 48 -92 48 -5 0 -9 3 -9 8 0 4 -20 18 -45 31 -25 13 -45 28 -45
32 0 5 -5 9 -10 9 -10 0 -123 79 -180 125 -45 37 -205 199 -255 260 -28 33
-54 65 -60 71 -5 7 -19 24 -30 40 -11 15 -25 32 -30 38 -37 39 -185 287 -239
401 -95 197 -196 499 -220 655 -3 19 -8 46 -11 60 -43 202 -59 523 -40 790 4
63 8 132 9 152 1 21 3 38 7 38 3 0 5 10 6 23 1 27 8 77 24 159 6 35 13 72 14
83 17 121 149 543 216 692 10 23 19 47 19 52 0 6 5 11 10 11 6 0 10 9 10 20 0
11 5 20 12 20 6 0 9 3 5 6 -9 9 110 235 203 385 162 259 424 567 625 734 26
22 53 45 59 50 6 6 29 23 51 40 22 16 45 33 50 38 28 23 175 124 201 137 16 8
31 18 34 21 3 3 43 26 90 50 47 24 87 47 88 52 2 4 9 7 16 7 6 0 29 9 50 19
39 20 85 38 100 39 5 0 12 4 15 9 3 5 69 30 146 55 118 39 153 50 205 63 3 0
21 4 40 8 35 7 59 12 103 22 12 3 46 8 76 11 30 3 57 7 61 9 11 7 196 18 300
19 167 0 297 -15 430 -50 30 -9 62 -17 71 -19 24 -5 111 -34 134 -44 147 -67
234 -111 309 -158 50 -31 93 -60 96 -63 3 -3 23 -17 45 -32 22 -15 52 -38 67
-50 15 -13 42 -34 60 -48 44 -34 189 -157 252 -215 12 -11 50 -45 85 -75 35
-30 69 -60 75 -65 12 -12 143 -120 166 -139 169 -131 207 -147 340 -148 130 0
243 59 312 164 88 132 66 267 -80 486 -56 85 -224 265 -311 333 -24 18 -52 41
-61 49 -40 37 -255 180 -355 237 -49 28 -353 181 -363 183 -4 1 -26 10 -49 21
-23 10 -45 19 -48 19 -4 0 -21 6 -38 14 -99 43 -400 141 -495 161 -9 2 -57 12
-107 23 -49 11 -110 23 -135 26 -25 3 -56 8 -70 11 -84 15 -144 18 -406 21
-160 2 -293 2 -295 0z"/>
</g>
</svg>
