<?xml version="1.0" standalone="no"?>
<!DOCTYPE svg PUBLIC "-//W3C//DTD SVG 20010904//EN"
 "http://www.w3.org/TR/2001/REC-SVG-20010904/DTD/svg10.dtd">
<svg version="1.0" xmlns="http://www.w3.org/2000/svg"
 width="686.000000pt" height="686.000000pt" viewBox="0 0 686.000000 686.000000"
 preserveAspectRatio="xMidYMid meet">
<metadata>
Created by potrace 1.14, written by Peter Selinger 2001-2017
</metadata>
<g transform="translate(0.000000,686.000000) scale(0.100000,-0.100000)"
fill="#000000" stroke="none">
<path d="M2357 6759 c-8 -5 -28 -11 -46 -14 -17 -3 -65 -23 -107 -45 -140 -73
-242 -212 -271 -370 -20 -104 4 -276 50 -361 65 -123 167 -210 297 -255 161
-56 303 -45 459 37 46 24 88 39 109 39 34 0 224 -97 457 -234 39 -22 72 -41
75 -41 5 -1 78 -41 153 -86 27 -16 54 -29 62 -29 7 0 15 -4 17 -8 3 -7 407
-235 487 -275 20 -9 50 -25 66 -35 17 -10 57 -34 90 -52 33 -18 80 -44 105
-58 25 -14 62 -34 84 -46 21 -12 50 -36 64 -54 23 -31 26 -42 25 -126 0 -104
-14 -141 -64 -177 -53 -38 -120 -33 -194 13 -48 30 -141 85 -155 91 -8 4 -44
25 -79 47 -34 22 -65 40 -67 40 -2 0 -44 25 -94 55 -50 30 -95 55 -100 55 -6
0 -10 5 -10 10 0 6 -4 10 -9 10 -5 0 -85 45 -176 100 -92 55 -170 100 -172
100 -3 0 -25 14 -50 30 -24 17 -46 30 -48 30 -3 0 -35 19 -72 42 -38 22 -83
49 -100 60 -66 37 -100 57 -198 115 -108 64 -146 80 -186 78 -28 -2 -59 -18
-362 -191 -71 -41 -131 -74 -134 -74 -3 0 -17 -8 -31 -19 -23 -15 -64 -39
-167 -95 -11 -6 -22 -13 -25 -16 -3 -3 -18 -12 -35 -20 -16 -8 -41 -22 -55
-31 -14 -9 -47 -29 -75 -43 -27 -15 -63 -36 -80 -47 -16 -10 -37 -22 -45 -26
-8 -4 -71 -39 -140 -78 -69 -40 -145 -83 -170 -97 -25 -14 -61 -35 -80 -47
-19 -11 -42 -24 -50 -28 -8 -4 -80 -44 -160 -90 -169 -98 -177 -101 -245 -89
-5 1 -41 19 -78 40 -72 41 -183 80 -198 70 -5 -3 -9 -2 -9 3 0 4 -26 8 -57 7
-259 -4 -454 -138 -534 -365 -33 -93 -33 -267 0 -359 27 -76 71 -150 115 -198
64 -69 194 -140 288 -158 63 -12 184 -10 238 4 152 39 293 150 359 285 18 38
34 74 35 80 1 7 5 17 9 24 4 6 10 51 13 100 10 147 16 153 214 265 63 36 273
155 465 265 193 110 370 211 395 225 58 33 384 219 430 246 153 90 183 93 282
30 92 -58 118 -109 97 -188 -11 -44 -46 -78 -119 -116 -30 -16 -57 -31 -60
-34 -4 -5 -235 -137 -305 -176 -38 -20 -200 -112 -235 -133 -19 -11 -55 -31
-80 -45 -25 -13 -68 -37 -96 -53 -195 -107 -244 -133 -253 -133 -5 0 -11 -4
-13 -8 -1 -5 -50 -33 -108 -64 -333 -176 -328 -173 -361 -219 -20 -29 -21 -40
-19 -222 1 -172 1 -216 0 -259 0 -7 2 -368 5 -803 6 -913 17 -820 -106 -900
-135 -87 -203 -177 -249 -328 -20 -66 -17 -221 6 -302 12 -39 58 -135 66 -135
4 0 8 -6 8 -13 0 -18 88 -109 140 -143 41 -28 98 -52 187 -81 33 -11 199 -10
246 1 258 61 430 298 413 566 -6 99 -7 103 -38 180 -5 14 -9 25 -7 25 1 0 -10
20 -25 45 -38 60 -142 161 -190 184 -56 26 -112 87 -114 122 -2 40 -10 935
-13 1424 -2 352 0 409 13 435 19 36 62 75 83 75 8 0 15 4 15 8 0 5 22 16 49
25 37 12 58 13 85 6 47 -13 92 -52 105 -92 10 -31 8 -1089 -3 -1612 -3 -133
-1 -223 6 -244 12 -39 49 -77 105 -106 21 -11 128 -70 238 -131 110 -61 227
-125 260 -144 33 -18 80 -44 105 -58 25 -14 74 -41 110 -60 36 -19 77 -44 93
-54 15 -11 27 -16 27 -13 0 3 12 -2 28 -13 15 -10 59 -36 97 -57 139 -76 410
-226 425 -235 8 -6 26 -16 40 -22 14 -7 62 -34 108 -60 46 -27 86 -48 88 -48
3 0 25 -13 48 -30 54 -37 74 -78 77 -159 5 -123 54 -261 118 -329 16 -18 27
-32 24 -32 -19 0 116 -98 172 -125 127 -61 220 -68 394 -29 110 24 259 145
318 259 108 208 71 481 -89 644 -41 42 -127 104 -148 107 -3 0 -22 8 -43 17
-141 61 -341 44 -487 -43 -30 -18 -73 -35 -95 -37 -40 -5 -73 9 -216 89 -48
27 -78 44 -274 153 -71 40 -152 85 -180 100 -27 15 -75 41 -105 57 -30 17 -68
38 -85 48 -16 9 -55 31 -85 47 -50 27 -170 94 -290 161 -25 13 -67 37 -95 52
-301 164 -348 196 -358 247 -8 42 0 197 11 225 18 45 76 81 131 81 44 1 66 -9
235 -106 103 -59 191 -107 196 -107 6 0 10 -4 10 -10 0 -5 11 -12 25 -16 14
-3 25 -10 25 -15 0 -5 5 -9 10 -9 6 0 56 -27 113 -61 56 -33 109 -64 117 -69
87 -50 565 -345 765 -472 111 -71 138 -71 270 3 55 32 116 66 135 77 19 11
110 62 201 115 91 52 186 106 210 120 24 13 88 50 143 81 54 31 102 56 107 56
5 0 9 5 9 10 0 6 4 10 10 10 5 0 31 13 58 29 26 15 70 41 98 56 27 16 67 39
89 51 22 13 60 35 85 49 55 30 110 62 170 97 388 224 374 219 491 157 66 -35
114 -53 174 -65 71 -16 252 5 300 34 6 4 16 7 23 8 29 5 120 72 174 127 53 54
91 119 129 217 14 37 19 212 7 265 -21 93 -69 185 -133 257 -173 191 -484 231
-695 88 -102 -69 -178 -164 -219 -273 -22 -60 -30 -109 -35 -213 -4 -95 -21
-114 -181 -206 -77 -45 -156 -89 -175 -100 -19 -10 -42 -23 -50 -28 -17 -11
-303 -174 -390 -222 -30 -17 -67 -39 -82 -49 -14 -11 -33 -19 -42 -19 -9 0
-16 -4 -16 -8 0 -5 -12 -15 -27 -23 -23 -12 -139 -77 -402 -227 -25 -13 -67
-38 -93 -53 -27 -16 -53 -29 -58 -29 -4 0 -10 -3 -12 -7 -6 -15 -84 -51 -121
-57 -41 -7 -69 3 -145 53 -81 53 -107 126 -70 200 17 34 37 51 117 97 53 30
103 59 111 64 47 28 380 218 406 231 17 9 59 33 92 53 33 20 62 36 64 36 3 0
43 22 89 48 46 27 118 67 159 89 41 22 92 50 113 62 21 12 71 38 110 59 40 20
74 39 77 42 3 3 52 29 110 59 58 30 117 62 131 72 36 25 61 82 61 138 0 25 -3
477 -7 1003 -7 1060 -11 990 58 1042 19 15 37 26 41 26 15 0 125 91 154 127
52 66 111 190 104 217 -2 4 1 13 6 20 15 20 14 149 -2 224 -45 214 -213 382
-424 423 -122 23 -281 -3 -387 -66 -99 -57 -188 -169 -230 -285 -24 -65 -26
-77 -29 -163 -3 -69 0 -100 18 -184 3 -12 20 -52 38 -89 41 -82 131 -176 216
-224 48 -27 67 -45 83 -78 21 -42 22 -58 24 -560 2 -284 4 -690 6 -902 2 -404
1 -418 -43 -460 -38 -36 -143 -82 -180 -78 -50 5 -96 38 -118 84 -20 40 -20
57 -15 810 3 423 7 831 9 906 4 150 -4 182 -53 218 -14 11 -31 24 -38 30 -7 5
-14 10 -17 10 -3 0 -108 57 -233 126 -126 70 -253 140 -283 157 -30 17 -129
71 -220 122 -91 50 -196 108 -233 129 -37 20 -82 45 -100 55 -57 32 -141 78
-182 101 -22 12 -54 30 -71 40 -17 10 -60 34 -95 53 -233 126 -286 159 -304
190 -13 21 -19 57 -22 116 -7 168 -63 296 -177 404 -105 99 -226 146 -373 144
-51 0 -99 -4 -106 -8z m205 -336 c81 -32 137 -137 123 -231 -26 -180 -242
-252 -374 -123 -44 43 -63 87 -63 150 -1 169 152 269 314 204z m2903 -598
c131 -63 162 -244 61 -353 -78 -84 -225 -88 -309 -8 -50 47 -69 89 -70 161 -1
50 4 70 26 108 61 103 184 142 292 92z m-1951 -1203 c17 -9 34 -21 37 -25 3
-5 9 -8 13 -8 3 1 16 -5 29 -13 68 -42 360 -206 368 -206 5 0 9 -4 9 -10 0 -5
4 -10 10 -10 5 0 80 -40 166 -90 85 -49 157 -90 159 -90 2 0 39 -21 82 -47 84
-50 123 -84 123 -107 0 -8 3 -17 8 -20 12 -7 7 -1147 -5 -1176 -16 -37 -47
-61 -158 -124 -55 -31 -107 -60 -115 -66 -8 -5 -53 -30 -100 -56 -47 -26 -87
-50 -90 -53 -3 -4 -23 -15 -45 -26 -22 -11 -42 -22 -45 -25 -3 -3 -18 -12 -35
-20 -16 -8 -36 -21 -43 -27 -7 -7 -17 -13 -22 -13 -5 0 -33 -14 -62 -32 -330
-196 -361 -208 -444 -166 -63 32 -98 51 -104 59 -3 4 -15 9 -27 13 -13 4 -23
12 -23 17 0 5 -5 9 -11 9 -8 0 -147 76 -219 121 -22 13 -187 107 -250 142
-191 106 -336 196 -353 218 -10 15 -22 44 -26 65 -4 22 -6 287 -6 589 1 576 1
571 45 615 11 11 81 55 157 99 76 43 154 88 173 100 19 11 44 25 55 30 16 7
134 74 195 110 116 70 421 240 435 243 33 7 86 -1 119 -20z m-2849 -408 c60
-38 99 -114 98 -189 -3 -222 -297 -300 -410 -108 -52 88 -33 209 43 276 19 18
37 31 40 30 2 -1 16 5 31 13 44 24 141 13 198 -22z m5749 -1185 c99 -51 141
-153 109 -262 -27 -92 -100 -147 -201 -153 -132 -7 -245 112 -228 241 11 78
37 122 99 161 69 45 151 50 221 13z m-4822 -1633 c170 -74 164 -331 -9 -403
-189 -78 -370 112 -285 299 22 47 72 98 98 98 8 0 14 4 14 9 0 22 129 20 182
-3z m2863 -555 c6 -3 13 -6 17 -6 23 0 88 -53 111 -89 122 -193 -89 -418 -293
-312 -67 35 -105 98 -115 191 -5 46 26 117 71 160 25 25 48 44 52 43 4 -1 14
1 22 5 38 14 47 16 85 15 22 -1 45 -4 50 -7z"/>
</g>
</svg>
