<?xml version="1.0" standalone="no"?>
<!DOCTYPE svg PUBLIC "-//W3C//DTD SVG 20010904//EN"
 "http://www.w3.org/TR/2001/REC-SVG-20010904/DTD/svg10.dtd">
<svg version="1.0" xmlns="http://www.w3.org/2000/svg"
 width="968.000000pt" height="968.000000pt" viewBox="0 0 968.000000 968.000000"
 preserveAspectRatio="xMidYMid meet">
<metadata>
Created by potrace 1.14, written by Peter Selinger 2001-2017
</metadata>
<g transform="translate(0.000000,968.000000) scale(0.100000,-0.100000)"
fill="#000000" stroke="none">
<path d="M3615 9673 c-144 -33 -281 -122 -353 -228 -15 -22 -31 -43 -37 -47
-5 -4 -7 -8 -2 -8 4 0 -2 -19 -14 -41 -11 -23 -22 -49 -24 -58 -1 -9 -8 -34
-14 -56 -5 -22 -10 -58 -11 -80 0 -22 -1 -47 -1 -55 -4 -82 62 -259 117 -319
103 -111 190 -167 302 -196 64 -17 164 -22 222 -11 19 4 44 8 55 10 11 2 20 4
20 5 0 2 8 4 17 6 9 2 48 19 87 39 l70 35 83 -46 c46 -25 117 -64 158 -86 41
-22 82 -46 91 -53 8 -8 18 -14 21 -14 3 0 64 -32 134 -72 71 -39 149 -82 174
-95 25 -13 52 -28 60 -33 44 -28 323 -180 329 -180 4 0 13 -6 20 -12 6 -7 15
-13 19 -13 4 0 39 -20 79 -43 39 -23 76 -42 82 -42 5 0 16 -6 23 -14 8 -8 32
-23 54 -33 37 -19 107 -57 199 -110 22 -12 47 -26 55 -30 8 -4 52 -28 97 -54
45 -26 91 -50 102 -54 12 -3 21 -11 21 -16 0 -5 9 -9 20 -9 11 0 20 -4 20 -9
0 -5 12 -14 28 -20 15 -5 50 -24 77 -40 28 -16 66 -38 85 -48 92 -49 145 -78
150 -83 3 -3 19 -12 35 -20 73 -36 300 -164 303 -172 2 -4 12 -8 23 -8 10 0
19 -5 19 -11 0 -5 4 -8 8 -5 5 3 18 -3 28 -13 22 -20 21 24 9 -506 -3 -159 -8
-292 -11 -294 -3 -3 -8 -1 -12 4 -7 10 -16 16 -101 63 -25 13 -89 50 -141 80
-52 30 -115 66 -140 80 -25 13 -71 40 -103 58 -32 19 -62 34 -68 34 -5 0 -9 5
-9 10 0 6 -4 10 -8 10 -9 0 -76 37 -167 91 -27 16 -59 34 -70 40 -11 5 -38 20
-60 34 -22 13 -47 27 -55 31 -8 5 -52 30 -98 56 -46 26 -88 48 -93 48 -5 0 -9
4 -9 9 0 5 -8 11 -17 14 -10 3 -40 19 -68 36 -27 16 -72 42 -100 56 -27 15
-75 42 -105 60 -30 18 -107 63 -170 100 -153 89 -370 226 -394 247 -11 10 -23
18 -28 18 -5 0 -49 27 -99 60 -50 33 -93 60 -95 60 -3 0 -10 5 -17 11 -22 19
-469 299 -478 299 -5 0 -9 3 -9 8 0 4 -23 20 -50 35 -73 41 -140 43 -211 6
-30 -15 -61 -31 -69 -35 -8 -4 -37 -21 -65 -37 -27 -17 -68 -40 -90 -52 -145
-79 -180 -100 -183 -107 -2 -4 -9 -8 -16 -8 -7 0 -23 -9 -36 -20 -13 -11 -27
-20 -32 -20 -4 0 -81 -42 -171 -93 -181 -105 -236 -136 -287 -163 -19 -11 -37
-22 -40 -25 -5 -6 -17 -13 -124 -68 -36 -19 -66 -38 -66 -43 0 -4 -4 -8 -9 -8
-10 0 -319 -173 -337 -189 -7 -5 -15 -7 -18 -4 -3 4 -6 2 -6 -3 0 -6 -16 -16
-35 -23 -19 -7 -35 -16 -35 -21 0 -5 -10 -12 -22 -16 -13 -4 -47 -22 -75 -40
-29 -19 -53 -31 -53 -28 0 4 -15 -4 -32 -17 -18 -13 -51 -33 -73 -44 -22 -11
-42 -22 -45 -25 -7 -7 -37 -24 -95 -56 -27 -15 -53 -32 -57 -38 -4 -6 -8 -7
-8 -2 0 4 -12 1 -26 -9 -31 -20 -344 -200 -484 -278 -19 -10 -66 -37 -104 -59
l-68 -40 -63 31 c-53 25 -86 36 -150 50 -3 1 -6 2 -7 2 -13 7 -168 3 -168 -3
0 -5 -4 -6 -10 -3 -8 5 -47 -3 -100 -20 -55 -18 -148 -76 -198 -123 -37 -35
-92 -107 -92 -120 0 -5 -7 -15 -15 -22 -8 -6 -14 -15 -13 -18 1 -4 -3 -16 -9
-27 -37 -70 -53 -233 -30 -330 5 -22 10 -45 11 -51 4 -22 69 -148 90 -173 109
-133 258 -210 420 -215 43 -2 97 1 120 5 63 14 146 42 146 51 0 4 8 8 18 8 23
0 63 31 139 107 62 62 124 170 138 238 9 44 17 105 18 146 2 41 15 56 74 86
68 35 88 47 95 58 4 6 8 6 8 1 0 -4 16 3 35 18 19 14 42 30 52 34 10 4 53 27
97 52 43 25 94 54 115 66 75 42 128 73 215 123 49 28 91 51 93 51 2 0 27 15
56 33 29 18 70 41 92 52 22 11 42 23 45 26 3 3 41 25 85 50 44 24 89 49 100
56 11 7 29 17 40 22 11 6 43 24 70 40 28 16 61 36 75 44 14 7 41 23 60 34 19
11 69 39 110 62 41 23 98 56 125 72 28 16 59 34 70 39 11 6 43 24 70 40 28 17
59 35 70 40 11 6 27 14 35 20 39 26 263 150 271 150 5 0 9 4 9 8 0 5 16 14 35
22 19 8 35 17 35 21 0 4 10 11 22 14 11 4 61 31 110 60 48 30 88 50 88 47 0
-4 4 -2 8 3 6 9 29 23 97 59 11 6 22 14 25 18 7 10 50 -2 50 -13 0 -5 5 -9 10
-9 6 0 16 -5 23 -10 19 -16 189 -123 220 -139 15 -8 27 -18 27 -23 0 -4 7 -8
15 -8 8 0 15 -4 15 -10 0 -5 7 -10 15 -10 8 0 15 -5 15 -12 0 -6 3 -9 6 -6 5
5 120 -65 150 -90 6 -6 25 -17 42 -26 18 -9 32 -20 32 -24 0 -4 -80 -52 -177
-107 -256 -145 -259 -147 -375 -214 -18 -10 -57 -32 -86 -50 -29 -17 -57 -31
-62 -31 -5 0 -15 -6 -22 -13 -7 -6 -38 -25 -68 -41 -30 -16 -62 -34 -70 -41
-8 -7 -51 -31 -95 -55 -44 -23 -82 -46 -83 -51 -2 -5 -7 -7 -12 -4 -5 3 -15 0
-22 -7 -16 -15 -49 -34 -135 -79 -35 -18 -63 -36 -63 -41 0 -4 -4 -8 -9 -8 -5
0 -85 -43 -177 -96 -168 -96 -223 -126 -384 -212 -47 -25 -89 -48 -95 -52 -5
-4 -57 -31 -115 -61 -58 -29 -107 -56 -110 -59 -3 -3 -32 -19 -65 -36 -33 -17
-96 -51 -140 -74 -44 -24 -98 -53 -120 -64 -22 -11 -42 -22 -45 -26 -3 -3 -29
-16 -57 -29 -29 -14 -53 -29 -53 -34 0 -6 -3 -7 -7 -4 -3 4 -11 3 -17 -2 -6
-5 -46 -27 -88 -50 -43 -22 -89 -48 -103 -57 -24 -16 -66 -75 -73 -104 -4 -15
-5 -642 -2 -882 1 -69 -1 -131 -4 -137 -4 -6 -4 -11 1 -11 4 0 8 -283 8 -629
0 -346 3 -627 7 -624 5 2 4 -7 -2 -21 -5 -14 -6 -26 -2 -26 8 0 8 -63 -1 -76
-3 -6 -2 -16 3 -24 5 -8 5 -22 -1 -32 -5 -10 -6 -18 -2 -18 4 0 8 -25 8 -55 0
-30 -4 -55 -8 -55 -5 0 -5 -5 -1 -12 11 -17 12 -78 1 -78 -4 0 -3 -8 2 -18 5
-10 6 -24 1 -32 -5 -8 -5 -21 -1 -29 4 -9 7 -119 7 -246 l-1 -229 -45 -30
c-63 -42 -136 -121 -173 -186 -18 -30 -32 -57 -33 -60 0 -3 -6 -17 -12 -31
-31 -75 -43 -195 -28 -284 11 -67 56 -175 96 -229 19 -26 98 -105 127 -128 20
-15 99 -60 113 -63 3 -1 12 -4 20 -8 75 -29 225 -43 284 -26 17 5 45 12 61 15
86 14 205 95 289 195 26 31 86 150 86 172 0 9 3 17 8 17 8 0 9 10 15 130 2 49
-2 105 -9 132 -6 26 -9 49 -6 52 3 3 -1 6 -8 6 -7 0 -11 3 -7 6 12 12 -62 142
-112 196 -28 31 -79 74 -113 97 l-63 41 0 515 c0 283 -2 515 -5 515 -3 0 -5
241 -5 535 0 294 -4 535 -8 535 -5 0 -5 5 -1 12 11 17 11 78 1 78 -4 0 -5 5
-1 12 10 17 11 58 2 64 -5 3 -4 13 1 22 5 9 5 26 0 39 -5 13 -5 23 -1 23 4 0
6 17 5 38 -3 33 -3 52 -2 95 0 6 -2 24 -4 40 -2 15 0 27 5 27 5 0 6 6 1 13
-10 16 -10 38 -1 59 5 9 5 19 1 21 -5 3 -8 83 -8 178 l0 172 60 31 c55 29 102
54 325 175 41 23 104 56 140 74 36 17 67 35 70 38 3 3 12 8 22 12 15 5 16 -80
13 -1206 -2 -667 -6 -1302 -10 -1412 -3 -110 -7 -319 -9 -465 l-4 -265 24 -45
c26 -47 73 -83 204 -153 36 -19 94 -51 130 -71 36 -20 81 -44 100 -54 19 -9
37 -20 38 -24 2 -5 9 -8 17 -8 7 0 18 -7 25 -15 7 -8 16 -13 20 -10 4 3 13 -2
20 -10 7 -8 16 -15 20 -15 5 0 47 -23 95 -50 48 -28 88 -50 90 -50 2 0 34 -17
72 -39 87 -49 155 -87 218 -121 83 -46 146 -81 226 -126 42 -24 79 -44 83 -44
3 0 23 -11 44 -23 20 -13 63 -38 95 -55 31 -18 83 -46 115 -64 31 -17 66 -37
77 -43 11 -7 45 -26 75 -42 45 -25 384 -212 560 -311 25 -13 68 -37 95 -52 28
-15 70 -39 95 -52 25 -14 108 -60 185 -103 159 -87 159 -87 161 -118 9 -150
55 -264 147 -363 44 -48 130 -117 147 -119 3 -1 25 -10 50 -21 145 -66 357
-53 488 30 20 13 40 24 44 25 12 3 112 105 134 136 64 92 95 182 99 290 4 97
-8 172 -40 242 -13 29 -22 53 -19 53 3 0 -4 10 -16 22 -11 12 -20 26 -20 31 0
6 -30 40 -68 76 -76 75 -180 132 -277 152 -57 11 -167 14 -210 5 -50 -10 -150
-49 -187 -72 l-40 -26 -62 33 c-33 17 -69 39 -78 47 -10 8 -18 12 -18 8 0 -3
-17 4 -37 17 -21 13 -67 40 -103 59 -153 83 -186 102 -210 118 -14 10 -28 18
-33 19 -4 0 -28 12 -52 26 -25 14 -65 36 -90 50 -24 14 -48 26 -52 26 -5 1
-20 10 -35 20 -14 10 -31 19 -37 19 -6 0 -11 4 -11 9 0 5 -11 12 -25 15 -14 4
-25 11 -25 16 0 6 -9 10 -19 10 -11 0 -23 4 -26 10 -3 5 -22 17 -42 27 -21 9
-89 47 -152 83 -64 36 -132 74 -151 84 -19 9 -53 28 -75 40 -22 13 -67 38
-100 56 -33 18 -72 42 -87 52 -16 11 -28 17 -28 14 0 -4 -17 4 -37 17 -21 13
-63 37 -93 54 -169 93 -307 169 -325 180 -11 6 -41 22 -67 35 -27 12 -48 26
-48 30 0 5 -5 8 -10 8 -6 0 -43 19 -83 41 -69 40 -121 68 -252 139 -33 18 -61
36 -63 41 -2 5 -10 9 -18 9 -15 0 -64 28 -75 43 -3 4 -4 65 -3 135 2 70 5 243
8 385 2 143 7 261 9 263 2 3 60 -28 128 -67 68 -39 144 -83 168 -97 25 -14 67
-38 93 -53 27 -16 51 -29 53 -29 2 0 38 -20 78 -45 41 -25 80 -45 86 -45 6 0
11 -4 11 -10 0 -5 7 -10 15 -10 8 0 15 -5 15 -12 0 -6 3 -8 6 -5 4 4 19 -2 33
-12 14 -10 44 -28 66 -40 22 -11 63 -35 90 -51 28 -17 58 -33 68 -37 9 -3 17
-10 17 -16 0 -6 3 -8 6 -4 4 3 29 -9 58 -27 28 -18 58 -35 66 -39 8 -4 33 -18
55 -30 22 -13 60 -35 85 -49 152 -87 347 -200 360 -208 8 -6 22 -13 30 -17 30
-14 195 -118 198 -125 2 -5 8 -8 12 -8 9 0 124 -70 147 -90 7 -5 15 -10 18
-10 3 0 18 -8 33 -19 30 -20 137 -90 163 -106 10 -5 40 -23 68 -40 28 -16 51
-33 51 -37 0 -5 5 -8 11 -8 7 0 32 -15 58 -33 25 -18 69 -46 96 -62 28 -16 55
-33 60 -38 19 -16 260 -167 285 -178 66 -31 128 -31 192 1 47 23 438 244 478
270 8 5 31 18 50 28 19 11 205 116 413 236 208 119 383 216 388 216 5 0 9 5 9
11 0 5 5 7 10 4 6 -3 10 -2 10 3 0 5 8 12 18 16 9 3 24 10 32 16 33 22 314
180 320 180 4 0 13 7 20 15 7 9 15 14 17 11 3 -2 40 18 84 45 44 27 82 49 83
49 6 0 372 210 383 220 7 5 19 10 28 10 8 0 15 4 15 8 0 4 19 18 43 30 23 12
56 30 72 39 17 10 82 47 145 83 63 35 117 68 118 72 6 14 31 9 82 -17 27 -14
76 -32 107 -41 69 -19 212 -25 232 -10 8 6 15 9 15 7 1 -5 78 9 91 17 5 4 16
7 23 8 8 2 31 14 53 28 21 15 39 24 39 21 0 -3 14 7 32 22 145 127 210 259
214 435 3 109 -15 181 -66 277 -43 80 -173 211 -209 211 -6 0 -11 5 -11 10 0
6 -3 9 -7 8 -5 -1 -24 5 -44 14 -70 31 -110 39 -209 42 -56 2 -91 -2 -160 -19
-136 -35 -281 -155 -345 -289 -19 -39 -37 -83 -39 -97 -2 -13 -5 -24 -6 -24
-4 0 -10 -61 -13 -115 l-2 -54 -70 -41 c-38 -23 -95 -55 -125 -72 -121 -67
-205 -117 -208 -125 -2 -5 -7 -6 -12 -3 -5 3 -15 0 -22 -7 -8 -7 -29 -21 -48
-32 -108 -59 -146 -80 -150 -85 -3 -3 -21 -14 -40 -23 -19 -10 -57 -30 -85
-46 -27 -16 -68 -39 -90 -52 -22 -12 -44 -26 -50 -30 -5 -4 -46 -27 -90 -50
-44 -24 -82 -46 -85 -50 -3 -4 -21 -15 -40 -23 -35 -16 -90 -47 -100 -57 -3
-3 -27 -16 -53 -30 -27 -14 -56 -29 -65 -35 -97 -58 -183 -105 -191 -105 -5 0
-11 -3 -13 -8 -4 -10 -157 -97 -185 -106 -13 -4 -23 -12 -23 -17 0 -5 -4 -9
-9 -9 -5 0 -95 -49 -200 -110 -105 -60 -196 -110 -201 -110 -6 0 -10 -4 -10
-9 0 -5 -8 -11 -17 -14 -10 -3 -43 -20 -73 -38 -30 -17 -68 -39 -85 -48 -16
-9 -49 -29 -72 -44 -24 -15 -45 -27 -49 -27 -3 0 -36 -18 -74 -40 l-68 -40
-69 44 c-37 25 -73 50 -80 55 -7 6 -15 11 -19 11 -3 0 -20 10 -37 23 -42 30
-69 45 -89 53 -10 3 -18 10 -18 15 0 5 -6 9 -13 9 -8 0 -22 9 -32 20 -10 11
-20 18 -22 16 -3 -2 -46 24 -96 58 -51 34 -100 65 -110 69 -10 4 -16 11 -13
16 5 7 204 124 301 177 45 24 70 40 83 52 7 7 18 10 23 7 5 -4 9 -1 9 5 0 6 5
8 10 5 6 -3 10 -2 10 3 0 5 8 12 18 16 9 3 31 14 47 24 17 11 48 29 70 42 197
111 361 206 366 213 3 5 10 9 15 9 17 1 54 21 54 30 0 4 9 8 20 8 11 0 20 3
20 8 0 4 30 23 68 42 37 19 69 38 70 43 2 4 10 7 18 7 8 0 14 5 14 12 0 6 3 8
6 5 4 -3 18 3 32 13 13 11 28 20 32 20 5 0 37 17 71 38 35 22 91 54 124 72 33
18 74 41 90 51 28 17 97 54 175 95 19 11 37 21 40 24 3 3 28 16 55 30 50 26
187 99 280 150 28 15 86 47 130 70 44 23 109 58 145 78 36 19 112 59 170 90
58 30 130 69 160 86 30 17 67 38 83 45 45 24 85 65 104 107 15 35 16 84 14
504 -2 256 -3 745 -4 1087 -1 343 -5 623 -9 623 -4 0 -4 11 1 23 5 13 6 29 2
36 -5 7 -6 25 -4 39 6 48 6 139 -1 151 -4 6 -2 11 4 11 6 0 8 5 4 12 -10 16
-11 138 -1 138 4 0 4 8 -1 18 -7 15 -8 40 -2 67 1 6 1 12 0 15 -1 3 -3 124 -4
270 l-2 265 50 33 c104 69 206 209 231 317 16 67 21 197 10 245 -3 14 -8 36
-11 49 -13 62 -77 171 -137 233 -104 109 -226 165 -370 172 -68 4 -99 0 -226
-29 -13 -4 -37 -15 -53 -26 -15 -11 -28 -17 -28 -14 0 10 -81 -54 -123 -98
-35 -36 -97 -120 -97 -130 0 -3 -7 -21 -15 -41 -8 -20 -15 -38 -16 -41 0 -3
-6 -22 -13 -42 -31 -91 -10 -277 44 -383 33 -67 127 -180 149 -180 5 0 11 -4
13 -9 2 -4 25 -22 53 -39 l49 -31 3 -423 c9 -1358 12 -1774 13 -1778 2 -3 1
-9 0 -15 -5 -23 -2 -103 4 -114 4 -6 4 -11 -1 -11 -9 0 -9 -72 0 -87 3 -5 2
-15 -3 -23 -4 -7 -6 -19 -3 -26 8 -23 9 -114 0 -114 -4 0 -5 -5 -1 -12 4 -6 8
-96 8 -199 2 -159 -1 -189 -14 -198 -8 -6 -49 -28 -90 -50 -41 -21 -97 -51
-125 -66 -56 -31 -145 -78 -280 -150 -49 -26 -95 -51 -102 -57 -6 -5 -13 -5
-16 -1 -6 11 0 2386 8 2683 14 596 14 655 -6 697 -25 53 -47 76 -104 107 -28
16 -54 32 -60 37 -5 5 -17 9 -26 9 -9 0 -20 7 -23 16 -4 9 -9 14 -13 11 -3 -4
-11 -3 -17 2 -22 17 -357 201 -366 201 -6 0 -10 5 -10 10 0 6 -5 10 -10 10 -6
0 -57 26 -113 58 -56 31 -116 64 -132 72 -17 8 -32 17 -35 20 -3 3 -23 15 -45
27 -22 11 -56 30 -75 40 -19 11 -71 39 -115 63 -44 24 -88 50 -97 58 -10 8
-18 11 -18 7 0 -4 -8 -2 -17 6 -10 8 -36 24 -58 36 -22 11 -57 30 -77 42 -21
11 -68 37 -105 57 -37 20 -80 46 -95 56 -16 11 -28 16 -28 13 0 -3 -12 2 -27
13 -16 11 -57 35 -93 54 -36 20 -96 53 -135 74 -38 20 -71 41 -73 46 -2 4 -12
8 -22 8 -10 0 -21 4 -24 9 -5 8 -24 19 -146 82 -25 13 -47 26 -50 29 -3 3 -14
10 -25 16 -11 6 -56 30 -100 54 -44 24 -96 52 -115 63 -19 11 -55 31 -80 45
-25 13 -71 40 -104 59 -32 19 -63 35 -69 36 -6 1 -16 6 -22 10 -5 4 -39 25
-75 45 l-65 38 -3 49 c-1 28 -5 61 -9 75 -3 14 -8 34 -10 45 -9 50 -81 172
-132 226 -76 80 -151 125 -265 160 -40 12 -205 20 -241 12z m152 -505 c20 -16
16 -72 -7 -93 -56 -51 -136 17 -100 86 6 10 17 19 25 19 8 0 15 4 15 10 0 11
46 -4 67 -22z m4253 -1198 c11 -11 21 -24 21 -30 1 -5 2 -16 3 -22 1 -7 -9
-25 -22 -40 -18 -19 -31 -25 -50 -22 -60 11 -81 69 -42 112 26 27 64 28 90 2z
m-3035 -1152 c66 -37 131 -75 145 -83 14 -8 77 -45 140 -81 119 -67 137 -78
180 -104 14 -8 27 -15 30 -15 3 0 16 -8 30 -17 23 -14 241 -139 352 -201 25
-14 64 -37 87 -51 22 -14 43 -26 45 -26 2 0 44 -24 93 -52 48 -29 90 -53 93
-53 5 -1 17 -8 105 -63 22 -14 45 -25 52 -25 7 0 13 -4 13 -9 0 -4 7 -8 15 -8
8 0 15 -4 15 -10 0 -5 4 -10 9 -10 10 0 231 -126 244 -139 6 -6 9 -426 9
-1030 1 -1031 0 -1065 -33 -1045 -5 3 -9 1 -9 -4 0 -5 -8 -12 -17 -15 -10 -4
-36 -17 -58 -31 -41 -26 -65 -39 -125 -72 -19 -10 -37 -21 -40 -24 -3 -3 -21
-13 -40 -23 -59 -31 -95 -52 -100 -57 -9 -9 -84 -51 -112 -63 -16 -6 -28 -15
-28 -19 0 -4 -5 -8 -10 -8 -6 0 -92 -47 -191 -105 -100 -58 -183 -105 -185
-105 -2 0 -33 -18 -69 -40 -36 -22 -67 -40 -69 -40 -3 0 -39 -20 -80 -45 -42
-25 -81 -45 -85 -45 -5 0 -11 -4 -13 -8 -3 -7 -62 -41 -173 -100 -16 -9 -36
-22 -43 -29 -7 -7 -17 -13 -21 -13 -4 0 -64 -32 -132 -71 -189 -108 -173 -102
-203 -78 -14 11 -26 18 -26 14 0 -4 -12 3 -26 14 -15 12 -32 21 -40 21 -7 0
-14 4 -16 8 -1 4 -30 23 -63 41 -75 42 -98 56 -208 120 -49 28 -91 51 -93 51
-3 0 -30 16 -60 35 -30 19 -57 35 -60 35 -4 0 -32 15 -63 34 -31 19 -79 47
-106 63 -28 15 -149 84 -268 153 -120 69 -237 136 -260 148 -23 13 -63 36 -89
52 -25 15 -56 31 -67 35 -12 3 -21 10 -21 15 0 4 -11 11 -25 14 -14 4 -25 11
-25 16 0 6 -9 10 -20 10 -11 0 -20 5 -20 10 0 6 -4 10 -10 10 -5 0 -42 19 -82
43 -40 23 -84 48 -98 55 l-25 13 0 1029 0 1028 120 68 c66 38 122 72 123 76 2
4 8 8 12 8 8 0 115 59 225 123 55 32 65 37 71 36 4 0 10 3 13 8 3 5 53 35 111
68 58 32 113 65 123 73 9 8 17 12 17 8 0 -4 12 1 28 12 15 10 160 94 322 187
162 92 324 184 360 205 36 21 112 65 169 98 63 36 111 58 120 54 9 -3 70 -37
136 -74z m-4354 -708 c4 0 15 -12 23 -28 31 -61 -34 -124 -91 -87 -31 21 -38
41 -27 73 10 29 51 55 72 47 8 -3 18 -5 23 -5z m8483 -2421 c33 -15 43 -61 22
-94 -9 -14 -21 -26 -26 -26 -6 -1 -16 -2 -22 -3 -61 -9 -94 76 -46 117 24 20
38 21 72 6z m-7364 -1884 c41 -37 16 -105 -41 -110 -56 -4 -87 42 -62 93 22
44 65 52 103 17z m4238 -1189 c22 -7 42 -41 42 -70 0 -25 -37 -56 -66 -56 -65
1 -90 63 -46 111 24 27 30 29 70 15z"/>
</g>
</svg>
