<?xml version="1.0" standalone="no"?>
<!DOCTYPE svg PUBLIC "-//W3C//DTD SVG 20010904//EN"
 "http://www.w3.org/TR/2001/REC-SVG-20010904/DTD/svg10.dtd">
<svg version="1.0" xmlns="http://www.w3.org/2000/svg"
 width="1000.000000pt" height="1000.000000pt" viewBox="0 0 1000.000000 1000.000000"
 preserveAspectRatio="xMidYMid meet">
<metadata>
Created by potrace 1.11, written by Peter Selinger 2001-2013
</metadata>
<g transform="translate(0.000000,1000.000000) scale(0.100000,-0.100000)"
fill="#000000" stroke="none">
<path d="M845 9302 c-2 -2 -18 -6 -37 -8 -199 -28 -416 -164 -550 -344 -68
-91 -135 -247 -153 -355 -21 -132 -8 -298 35 -426 73 -216 239 -401 453 -503
l77 -37 0 -764 c0 -754 0 -765 21 -821 21 -55 97 -144 124 -144 6 0 16 -5 23
-12 6 -6 20 -14 29 -16 10 -3 227 -6 483 -7 l465 -3 0 -286 c1 -157 -2 -286
-5 -287 -3 -1 -336 -2 -740 -3 -536 -1 -746 -5 -776 -14 -208 -61 -267 -345
-102 -486 84 -72 58 -70 873 -72 402 -1 735 -2 741 -3 12 -1 14 -555 1 -567
-10 -10 -127 -11 -127 -1 0 5 -6 5 -12 1 -17 -11 -148 -11 -148 -1 0 5 -6 5
-12 1 -17 -11 -148 -11 -148 -1 0 5 -5 5 -11 1 -6 -4 -108 -7 -226 -7 -262 0
-282 -5 -373 -87 -15 -14 -38 -46 -51 -70 l-24 -45 -3 -788 c-2 -537 -6 -787
-13 -787 -11 0 -101 -42 -134 -62 -51 -33 -154 -116 -194 -157 -111 -116 -205
-305 -227 -457 -15 -107 -8 -281 14 -344 10 -28 11 -35 14 -55 2 -11 5 -22 8
-25 3 -3 11 -23 19 -45 8 -22 17 -42 20 -45 3 -3 13 -21 22 -40 22 -46 103
-153 154 -202 87 -85 214 -161 340 -204 91 -32 290 -48 375 -32 25 5 59 11 76
14 17 2 46 10 65 18 19 8 36 14 39 14 8 0 63 23 80 33 8 5 22 12 30 16 87 38
250 188 313 286 93 145 139 293 141 457 1 58 -2 123 -6 145 -5 22 -11 51 -13
65 -3 14 -8 32 -12 40 -3 8 -8 23 -9 33 -11 54 -112 236 -148 266 -9 7 -16 19
-17 25 -1 14 -131 129 -179 157 -19 12 -36 25 -38 30 -2 5 -9 9 -15 9 -7 0
-34 11 -61 25 -27 14 -55 25 -62 25 -10 0 -12 127 -12 604 l-1 604 287 -1 287
-2 1 -450 c0 -408 2 -455 19 -504 24 -73 92 -141 167 -169 56 -21 62 -21 1240
-21 651 0 1247 -1 1325 -1 l141 0 -1 -287 -2 -288 -460 -1 -460 0 -50 -24
c-226 -109 -223 -421 5 -523 44 -20 60 -20 1260 -20 1206 0 1215 0 1260 20 89
41 148 113 167 203 28 131 -34 254 -157 316 l-55 28 -457 1 c-251 0 -460 3
-463 7 -8 8 -10 556 -2 564 2 2 601 5 1331 5 l1326 0 49 22 c68 30 116 75 148
139 l28 53 0 466 0 466 290 1 291 1 3 -22 c1 -12 2 -29 2 -37 0 -8 0 -136 0
-285 0 -148 0 -277 0 -285 0 -8 0 -96 0 -195 0 -99 0 -187 0 -195 0 -8 -1 -52
-1 -98 l-1 -82 -55 -25 c-30 -14 -59 -25 -64 -25 -6 0 -10 -4 -10 -8 0 -5 -15
-16 -34 -25 -58 -27 -173 -131 -235 -211 -42 -54 -127 -206 -115 -206 3 0 2
-6 -4 -12 -6 -7 -20 -51 -32 -98 -33 -126 -32 -306 2 -423 6 -23 12 -44 12
-47 1 -3 5 -11 9 -17 5 -7 6 -13 3 -13 -7 0 82 -176 97 -192 7 -7 24 -30 39
-50 60 -79 164 -166 264 -218 32 -17 64 -36 71 -42 7 -6 13 -8 13 -5 0 3 15 0
34 -8 98 -41 282 -61 398 -44 124 19 149 26 238 66 63 28 166 89 190 112 9 9
34 33 56 53 181 171 275 397 268 646 -9 336 -215 638 -528 772 l-46 19 -1 763
c0 420 -2 770 -4 779 -15 78 -88 168 -164 202 -57 25 -71 26 -571 27 l-406 0
0 290 0 290 734 0 c742 0 806 3 840 37 7 7 17 13 21 13 18 0 72 63 97 111 91
181 -37 397 -241 407 -33 1 -89 2 -125 2 -36 0 -69 -1 -75 -1 -125 0 -364 0
-375 0 -8 0 -62 0 -120 0 -58 1 -112 1 -120 0 -8 0 -49 0 -90 0 -41 1 -84 1
-95 1 -151 -1 -148 -1 -283 1 -57 0 -106 -1 -109 -4 -2 -3 -17 -1 -32 4 l-27
10 1 282 0 282 445 1 c245 0 461 4 480 8 40 10 88 33 108 52 7 7 18 17 25 21
14 10 50 60 62 88 8 21 12 32 19 63 3 9 5 360 5 779 l1 763 67 31 c95 45 150
81 227 152 22 20 44 37 48 37 5 0 8 7 8 15 0 8 4 15 9 15 5 0 31 33 58 73 53
75 108 177 97 177 -4 0 -1 6 5 13 6 8 12 22 14 33 2 10 7 26 10 34 9 26 20 74
21 95 1 11 4 25 7 30 7 13 3 209 -6 255 -25 134 -108 320 -175 391 -8 8 -31
33 -51 55 -52 56 -158 144 -174 144 -3 0 -22 11 -43 24 -55 35 -198 83 -268
90 -17 2 -35 5 -40 8 -15 8 -198 3 -211 -5 -7 -5 -17 -6 -22 -3 -4 3 -39 -4
-77 -15 -38 -11 -77 -22 -88 -24 -10 -2 -24 -9 -32 -16 -8 -6 -14 -9 -14 -6 0
7 -138 -70 -156 -87 -7 -6 -34 -29 -61 -51 -27 -21 -67 -61 -88 -88 -22 -26
-48 -58 -58 -70 -19 -22 -107 -196 -111 -219 -2 -7 -8 -32 -15 -56 -6 -23 -9
-46 -6 -51 3 -5 0 -11 -6 -13 -8 -3 -12 -47 -11 -143 0 -136 3 -153 46 -300 5
-17 28 -69 37 -85 5 -8 15 -26 21 -40 7 -14 23 -39 35 -56 13 -17 23 -33 23
-37 0 -7 68 -84 103 -116 63 -57 147 -114 224 -151 l82 -40 1 -98 c0 -53 1
-106 1 -117 0 -11 0 -101 0 -200 0 -99 0 -191 -1 -205 -1 -14 -2 -149 -3 -300
l-2 -275 -285 0 -285 0 -2 440 c0 242 -4 458 -7 479 -17 102 -121 203 -226
219 -34 6 -145 10 -165 7 -27 -4 -217 0 -225 5 -5 3 -11 1 -15 -5 -4 -7 -12
-7 -26 0 -10 6 -19 7 -19 2 0 -7 -33 -8 -50 -2 -3 1 -9 2 -15 0 -23 -4 -347 0
-355 5 -5 3 -11 1 -15 -5 -4 -7 -12 -7 -26 0 -10 6 -19 7 -19 2 0 -7 -33 -8
-50 -2 -3 1 -9 2 -15 0 -23 -4 -347 0 -355 5 -5 3 -11 1 -15 -5 -4 -7 -12 -7
-26 0 -10 6 -19 7 -19 2 0 -7 -33 -8 -50 -2 -3 1 -9 2 -15 0 -23 -4 -347 0
-355 5 -5 3 -11 1 -15 -5 -4 -7 -12 -7 -26 0 -10 6 -19 7 -19 2 0 -7 -33 -8
-50 -2 -3 1 -9 2 -15 0 -23 -4 -347 0 -355 5 -5 3 -11 1 -15 -5 -4 -7 -12 -7
-26 0 -10 6 -19 7 -19 2 0 -7 -33 -8 -50 -2 -3 1 -9 2 -15 0 -23 -4 -347 0
-355 5 -5 3 -11 1 -15 -5 -4 -7 -12 -7 -26 0 -10 6 -19 7 -19 2 0 -7 -33 -8
-50 -2 -3 1 -9 2 -15 0 -23 -4 -347 0 -355 5 -5 3 -11 1 -15 -5 -4 -7 -12 -7
-26 0 -10 6 -19 7 -19 2 0 -7 -33 -8 -50 -2 -3 1 -9 2 -15 0 -23 -4 -347 0
-355 5 -5 3 -11 1 -15 -5 -4 -7 -12 -7 -26 0 -10 6 -19 7 -19 2 0 -7 -33 -8
-50 -2 -3 1 -9 2 -15 0 -23 -4 -347 0 -355 5 -5 3 -11 1 -15 -5 -4 -7 -12 -7
-26 0 -10 6 -19 7 -19 2 0 -7 -33 -8 -50 -2 -3 1 -9 2 -15 0 -23 -4 -347 0
-355 5 -5 3 -11 1 -15 -5 -4 -7 -12 -7 -26 0 -10 6 -19 7 -19 2 0 -7 -33 -8
-50 -2 -3 1 -9 2 -15 0 -23 -4 -347 0 -355 5 -5 3 -11 1 -15 -5 -4 -7 -12 -7
-26 0 -10 6 -19 7 -19 2 0 -9 -29 -10 -45 0 -6 3 -18 2 -29 -1 -10 -4 -41 -4
-68 -1 -27 4 -51 4 -53 1 -2 -3 -38 -4 -80 -1 -42 3 -78 3 -80 0 -2 -3 -38 -3
-80 0 -42 3 -79 1 -82 -3 -3 -4 -10 -3 -17 2 -7 6 -15 8 -18 6 -3 -3 -30 -7
-61 -9 -81 -5 -207 -74 -207 -113 0 -7 -4 -13 -9 -13 -10 0 -34 -54 -34 -76 0
-8 -3 -14 -7 -14 -4 0 -7 -207 -6 -460 1 -401 -1 -461 -14 -464 -8 -3 -138 -5
-287 -4 -196 0 -273 4 -274 12 -4 42 -3 1179 1 1185 4 6 34 21 50 26 39 10
185 106 240 157 74 69 190 229 190 260 0 6 6 19 14 27 15 18 56 164 65 231 17
136 -11 369 -51 417 -6 7 -7 13 -4 13 8 0 -72 156 -88 173 -7 7 -19 22 -27 34
-26 38 -102 116 -149 154 -53 42 -166 109 -184 109 -6 0 -16 4 -22 9 -14 14
-139 50 -197 57 -55 7 -236 11 -242 6z m207 -596 c105 -33 180 -135 185 -250
9 -221 -215 -367 -412 -269 -46 23 -104 83 -128 133 -38 80 -28 219 20 272 9
10 13 18 10 18 -14 0 61 64 97 83 71 38 138 41 228 13z m8080 10 c82 -29 136
-79 174 -159 31 -67 28 -173 -5 -238 -21 -40 -81 -109 -95 -109 -4 0 -18 -8
-33 -17 -34 -23 -54 -27 -138 -27 -59 -1 -78 4 -123 28 -102 57 -158 160 -149
274 3 33 13 77 23 98 16 33 66 90 105 119 53 40 174 55 241 31z m-1525 -3716
c0 -1821 -2 -2010 -16 -2014 -9 -2 -1182 -4 -2607 -4 l-2591 1 0 2006 c0 1103
1 2009 4 2013 2 4 1175 8 2607 7 l2603 0 0 -2009z m1555 -3192 c104 -44 175
-164 165 -278 -10 -122 -88 -220 -202 -252 -74 -21 -137 -15 -208 21 -104 52
-163 156 -154 271 15 199 214 317 399 238z m-8126 11 c24 -6 44 -15 44 -20 0
-5 6 -9 13 -9 24 0 83 -58 112 -111 26 -48 29 -63 28 -134 -1 -94 -4 -115 -13
-115 -4 0 -13 -13 -19 -28 -16 -37 -67 -85 -122 -114 -36 -19 -59 -23 -124
-23 -50 1 -89 6 -105 15 -14 8 -30 15 -36 16 -16 3 -76 62 -101 99 -68 102
-50 256 40 349 73 75 175 102 283 75z"/>
</g>
</svg>
