<?xml version="1.0" encoding="UTF-8" standalone="no"?>
<svg version="1.1" id="Layer_1" xmlns="http://www.w3.org/2000/svg" xmlns:xlink="http://www.w3.org/1999/xlink" x="0px" y="0px"
	 viewBox="0 0 1180.5466 144.30001" style="enable-background:new 0 0 1243.5 180.4;" xml:space="preserve">
<path
   d="M 160.64659,105 V 5.6 c 0,-2.3 1.2,-3.9 3.5,-4.7 0.6,-0.3 1.3,-0.4 1.9,-0.4 h 15.8 c 10.2,0 16.8,4.5 19.9,13.4 0.5,1.8 0.9,3.6 1.1,5.4 0,0.1 0,0.2 0.1,0.4 V 20 90.7 h -0.1 c 0.3,4.5 -0.9,8.6 -3.7,12.3 -3.8,4.9 -9.6,7.3 -17.3,7.3 h -15.8 c -2.5,0 -4.2,-1.1 -5,-3.4 -0.2,-0.6 -0.4,-1.2 -0.4,-1.9 z m 10.7,-94.1 V 100 h 10.5 c 2,0 3.7,-0.3 5.2,-0.9 1.5,-0.6 2.5,-1.4 3.1,-2.3 0.6,-0.9 1.1,-1.8 1.4,-2.6 0.4,-0.9 0.5,-1.6 0.5,-2.2 V 91 90.7 20 19.9 c -0.4,-4.2 -2.4,-7 -6.1,-8.3 -1.3,-0.5 -2.7,-0.7 -4.2,-0.7 z"
   id="path2"
   style="fill:#de4d00" />
<path
   d="m 253.54659,99.5 c 2.4,1.1 3.8,2.8 4.1,5.3 0,2.4 -1.2,4.1 -3.5,5 -0.7,0.3 -1.4,0.4 -2,0.4 h -4.1 c -1.7,-0.1 -3.2,-0.9 -4.5,-2.3 -0.5,0.3 -1.4,0.7 -3,1.2 -2.5,0.9 -5.3,1.4 -8.3,1.4 -3.1,0 -5.8,-0.5 -8.3,-1.4 -7.2,-2.5 -11.5,-7.2 -12.7,-14.1 -0.2,-1.3 -0.3,-2.5 -0.3,-3.7 V 53.8 c 0,-7.9 3.7,-13.6 11,-16.9 0.7,-0.4 1.4,-0.6 2,-0.8 2.5,-0.9 5.3,-1.4 8.3,-1.4 3.4,0 6.2,0.4 8.4,1.2 6.8,2.4 10.9,6.9 12.3,13.3 0.4,1.5 0.5,3.1 0.5,4.6 v 45.7 z m -16.6,-0.7 c 3.2,-1.4 5.1,-3.6 5.5,-6.6 l 0.1,-38.4 c -0.1,-3.4 -2,-5.9 -5.7,-7.4 -1.4,-0.5 -2.9,-0.8 -4.6,-0.8 -1.7,0 -3.2,0.3 -4.6,0.8 -3.8,1.5 -5.7,4 -5.8,7.4 v 37.6 c 0.1,3.5 2,6 5.8,7.4 1.4,0.5 2.9,0.8 4.6,0.8 1.8,0 3.3,-0.2 4.7,-0.8 z"
   id="path4"
   style="fill:#de4d00" />
<path
   d="m 274.24659,57.8 c -1.9,1.8 -4,2.1 -6.4,0.8 -0.5,-0.4 -1,-0.7 -1.4,-1.1 -1.8,-1.9 -2.1,-4 -0.8,-6.4 0.4,-0.5 0.7,-1 1.1,-1.4 l 13.3,-12.4 V 5.4 c 0,-2.5 1.2,-4.2 3.7,-5.1 0.6,-0.2 1.3,-0.3 1.9,-0.3 2.5,0 4.2,1.2 5,3.5 0.3,0.6 0.4,1.3 0.4,1.9 v 21.5 l 6.5,-6.4 c 2,-1.8 4.1,-2.1 6.5,-0.8 0.5,0.4 1,0.7 1.4,1.1 1.8,1.9 2.1,4 0.8,6.4 -0.4,0.5 -0.7,1 -1.1,1.4 l -14.1,13.3 -0.1,57.9 c 2.3,0.5 3.7,2 4.1,4.3 0.1,0.4 0.1,0.7 0.1,0.9 0,2.5 -1.2,4.2 -3.5,5.1 -0.7,0.2 -1.4,0.3 -1.9,0.3 h -4.2 c -2.5,0 -4.2,-1.2 -5.1,-3.5 -0.2,-0.6 -0.3,-1.3 -0.4,-1.9 l 0.1,-52.7 z"
   id="path6"
   style="fill:#de4d00" />
<path
   d="m 354.04659,99.5 c 2.4,1.1 3.8,2.8 4.1,5.3 0,2.4 -1.2,4.1 -3.5,5 -0.7,0.3 -1.4,0.4 -2,0.4 h -4.1 c -1.7,-0.1 -3.2,-0.9 -4.5,-2.3 -0.5,0.3 -1.4,0.7 -3,1.2 -2.5,0.9 -5.3,1.4 -8.3,1.4 -3.1,0 -5.8,-0.5 -8.3,-1.4 -7.2,-2.5 -11.5,-7.2 -12.7,-14.1 -0.2,-1.3 -0.3,-2.5 -0.3,-3.7 V 53.8 c 0,-7.9 3.7,-13.6 11,-16.9 0.7,-0.4 1.4,-0.6 2,-0.8 2.5,-0.9 5.3,-1.4 8.3,-1.4 3.4,0 6.2,0.4 8.4,1.2 6.8,2.4 10.9,6.9 12.3,13.3 0.4,1.5 0.5,3.1 0.5,4.6 v 45.7 z m -16.6,-0.7 c 3.2,-1.4 5.1,-3.6 5.5,-6.6 l 0.1,-38.4 c -0.1,-3.4 -2,-5.9 -5.7,-7.4 -1.4,-0.5 -2.9,-0.8 -4.6,-0.8 -1.7,0 -3.2,0.3 -4.6,0.8 -3.8,1.5 -5.7,4 -5.8,7.4 v 37.6 c 0.1,3.5 2,6 5.8,7.4 1.4,0.5 2.9,0.8 4.6,0.8 1.8,0 3.3,-0.2 4.7,-0.8 z"
   id="path8"
   style="fill:#de4d00" />
<path
   d="m 418.54659,105 c 0,2.5 -1.2,4.2 -3.5,5.1 -0.6,0.2 -1.3,0.3 -1.9,0.3 -2.5,0 -4.2,-1.2 -5.1,-3.5 -0.2,-0.6 -0.3,-1.3 -0.3,-1.9 V 45.5 h -0.1 c -2.5,0 -4.2,-1.2 -5.1,-3.5 -0.2,-0.7 -0.3,-1.4 -0.3,-1.9 0,-2.5 1.2,-4.2 3.5,-5.1 0.6,-0.2 1.3,-0.3 1.9,-0.4 h 5.5 c 1.9,0.1 3.4,0.9 4.5,2.4 0.8,-0.5 1.7,-0.9 2.6,-1.2 2.7,-0.9 5.5,-1.4 8.2,-1.4 2.9,0 5.6,0.5 8.3,1.4 2.8,1.2 5.2,2.7 7.2,4.5 2,-1.9 4.4,-3.4 7.2,-4.5 2.6,-0.9 5.3,-1.4 8.1,-1.4 2.9,0 5.6,0.5 8.3,1.4 6.8,2.5 10.8,7.2 12.2,13.9 0.3,1.4 0.4,2.9 0.4,4.3 v 51 c 0,2.5 -1.1,4.2 -3.4,5.1 -0.7,0.2 -1.4,0.3 -2,0.3 -2.4,0 -4.1,-1.2 -5,-3.5 -0.2,-0.6 -0.3,-1.3 -0.4,-1.9 V 54 c -0.1,-3.9 -1.9,-6.5 -5.5,-8 -1.4,-0.5 -2.9,-0.8 -4.5,-0.8 -1.5,0 -3,0.3 -4.3,0.8 -3.2,1.3 -5.1,3.5 -5.5,6.6 V 105 c 0,2.5 -1.2,4.2 -3.5,5.1 -0.6,0.2 -1.3,0.3 -1.9,0.3 -2.5,0 -4.2,-1.2 -5,-3.5 -0.3,-0.6 -0.4,-1.3 -0.4,-1.9 l -0.1,-51 c 0,-0.3 0,-0.7 0,-1.4 -0.5,-3.2 -2.3,-5.5 -5.4,-6.6 -1.4,-0.5 -2.9,-0.8 -4.5,-0.8 -1.5,0 -3,0.3 -4.5,0.8 -3,1.2 -4.8,3.2 -5.4,6.1 v 1.4 51.5 z"
   id="path10"
   style="fill:#de4d00" />
<path
   d="m 530.94659,99.5 c 2.4,1.1 3.8,2.8 4.1,5.3 0,2.4 -1.2,4.1 -3.5,5 -0.7,0.3 -1.4,0.4 -2,0.4 h -4.1 c -1.7,-0.1 -3.2,-0.9 -4.5,-2.3 -0.5,0.3 -1.4,0.7 -3,1.2 -2.5,0.9 -5.3,1.4 -8.3,1.4 -3.1,0 -5.8,-0.5 -8.3,-1.4 -7.2,-2.5 -11.5,-7.2 -12.7,-14.1 -0.2,-1.3 -0.3,-2.5 -0.3,-3.7 V 53.8 c 0,-7.9 3.7,-13.6 11,-16.9 0.7,-0.4 1.4,-0.6 2,-0.8 2.5,-0.9 5.3,-1.4 8.3,-1.4 3.4,0 6.2,0.4 8.4,1.2 6.8,2.4 10.9,6.9 12.3,13.3 0.4,1.5 0.5,3.1 0.5,4.6 v 45.7 z m -16.6,-0.7 c 3.2,-1.4 5.1,-3.6 5.5,-6.6 l 0.1,-38.4 c -0.1,-3.4 -2,-5.9 -5.7,-7.4 -1.4,-0.5 -2.9,-0.8 -4.6,-0.8 -1.7,0 -3.2,0.3 -4.6,0.8 -3.8,1.5 -5.7,4 -5.8,7.4 v 37.6 c 0.1,3.5 2,6 5.8,7.4 1.4,0.5 2.9,0.8 4.6,0.8 1.8,0 3.3,-0.2 4.7,-0.8 z"
   id="path12"
   style="fill:#de4d00" />
<path
   d="m 589.54659,105 c 0,2.5 -1.2,4.2 -3.5,5.1 -0.7,0.2 -1.4,0.3 -1.9,0.3 -2.5,0 -4.2,-1.2 -5.1,-3.5 -0.2,-0.6 -0.3,-1.3 -0.3,-1.9 V 54 c -0.1,-3.9 -1.9,-6.5 -5.5,-8 -1.4,-0.5 -2.9,-0.8 -4.5,-0.8 -1.5,0 -3,0.3 -4.5,0.8 -2.9,1.2 -4.7,3.2 -5.4,6.1 V 105 c 0,2.5 -1.2,4.2 -3.5,5.1 -0.6,0.2 -1.3,0.3 -1.9,0.3 -2.4,0 -4.1,-1.2 -5,-3.5 -0.2,-0.6 -0.3,-1.3 -0.4,-1.9 V 45.5 h -0.1 c -2.5,0 -4.2,-1.2 -5,-3.5 -0.3,-0.7 -0.4,-1.4 -0.4,-1.9 0,-2.5 1.2,-4.2 3.5,-5.1 0.6,-0.2 1.3,-0.3 1.9,-0.4 h 5.5 c 1.9,0.1 3.4,0.9 4.5,2.4 0.9,-0.5 1.8,-0.9 2.7,-1.2 2.6,-0.9 5.3,-1.4 8.1,-1.4 2.9,0 5.6,0.5 8.3,1.4 6.7,2.5 10.7,7.2 12.2,13.9 0.3,1.4 0.4,2.9 0.4,4.3 v 51 z"
   id="path14"
   style="fill:#de4d00" />
<path
   d="m 640.54659,99.5 c 2.4,1.1 3.8,2.8 4.1,5.3 0,2.4 -1.2,4.1 -3.5,5 -0.7,0.3 -1.4,0.4 -2,0.4 h -4.1 c -1.7,-0.1 -3.2,-0.9 -4.5,-2.3 -0.5,0.3 -1.4,0.7 -3,1.2 -2.5,0.9 -5.3,1.4 -8.3,1.4 -3.1,0 -5.8,-0.5 -8.3,-1.4 -7.2,-2.5 -11.5,-7.2 -12.7,-14.1 -0.2,-1.3 -0.3,-2.5 -0.3,-3.7 V 53.8 c 0,-7.9 3.7,-13.6 11,-16.9 0.7,-0.4 1.4,-0.6 2,-0.8 2.5,-0.9 5.3,-1.4 8.3,-1.4 3.4,0 6.2,0.4 8.4,1.2 6.8,2.4 10.9,6.9 12.3,13.3 0.4,1.5 0.5,3.1 0.5,4.6 v 45.7 z m -16.7,-0.7 c 3.2,-1.4 5.1,-3.6 5.5,-6.6 l 0.1,-38.4 c -0.1,-3.4 -2,-5.9 -5.7,-7.4 -1.4,-0.5 -2.9,-0.8 -4.6,-0.8 -1.7,0 -3.2,0.3 -4.6,0.8 -3.8,1.5 -5.7,4 -5.8,7.4 v 37.6 c 0.1,3.5 2,6 5.8,7.4 1.4,0.5 2.9,0.8 4.6,0.8 1.8,0 3.4,-0.2 4.7,-0.8 z"
   id="path16"
   style="fill:#de4d00" />
<path
   d="m 695.14659,93 h 0.1 v -0.1 2.8 7.4 0.1 l -0.1,22.7 h 0.1 c 0,7.4 -3.5,12.8 -10.5,16.1 -0.9,0.5 -1.8,0.8 -2.7,1.1 -2.6,0.8 -5.4,1.2 -8.2,1.2 -2.9,0 -5.6,-0.4 -8.3,-1.2 -6.8,-2.3 -10.9,-6.4 -12.4,-12.4 -0.5,-1.5 -0.7,-3.1 -0.7,-4.7 0,-2.3 1.1,-4 3.4,-5 0.7,-0.3 1.4,-0.4 2.2,-0.4 2.4,0 4.1,1.1 5,3.4 0.3,0.7 0.4,1.4 0.4,2 0.2,3.2 2.1,5.4 5.7,6.8 1.5,0.4 3.1,0.7 4.6,0.8 1.7,-0.1 3.3,-0.4 4.9,-0.8 3.6,-1.4 5.5,-3.7 5.5,-6.8 v -17.7 c -0.2,0.1 -0.5,0.2 -0.9,0.3 -0.5,0.2 -0.8,0.3 -0.9,0.4 -2.5,0.9 -5.3,1.4 -8.3,1.4 -3.1,-0.1 -5.9,-0.5 -8.4,-1.4 -6.9,-2.5 -11.1,-7 -12.6,-13.4 -0.4,-1.4 -0.5,-2.9 -0.5,-4.3 V 53.7 c 0,-7.9 3.7,-13.6 11.1,-17 0.7,-0.3 1.4,-0.5 2,-0.8 2.6,-0.9 5.4,-1.4 8.4,-1.4 3.4,0 6.2,0.4 8.4,1.2 6.9,2.4 11,6.9 12.6,13.4 0.3,1.5 0.4,3.1 0.4,4.6 v 36.7 0.9 1.6 h -0.1 V 93 Z m -21.4,6.4 c 1.8,0 3.4,-0.3 4.7,-0.8 3.4,-1.4 5.3,-3.6 5.5,-6.8 l 0.1,-38.1 v 0 c -0.1,-3.5 -1.9,-6 -5.5,-7.6 -1.4,-0.5 -3,-0.8 -4.7,-0.8 -1.7,0.1 -3.2,0.4 -4.6,0.8 -3.8,1.5 -5.7,4.1 -5.8,7.6 v 37.6 c 0.1,3.4 2,5.9 5.8,7.3 1.3,0.5 2.8,0.8 4.5,0.8 z"
   id="path18"
   style="fill:#de4d00" />
<path
   d="m 735.44659,91.4 c 0,-2.4 1.2,-4.1 3.5,-5 0.7,-0.3 1.4,-0.4 2,-0.4 2.5,0 4.2,1.2 5,3.5 0.3,0.6 0.4,1.3 0.4,1.9 0,7.8 -3.6,13.3 -10.7,16.8 -0.8,0.4 -1.6,0.7 -2.3,0.9 -2.5,0.9 -5.3,1.4 -8.3,1.4 -3,0 -5.7,-0.5 -8.1,-1.4 -7.2,-2.5 -11.5,-7.2 -12.7,-14.1 -0.2,-1.3 -0.3,-2.5 -0.3,-3.7 V 53.9 c 0,-7.8 3.5,-13.5 10.5,-16.9 0.8,-0.4 1.6,-0.7 2.4,-0.9 2.5,-0.9 5.3,-1.4 8.3,-1.4 3.1,0 5.8,0.5 8.3,1.4 6.8,2.4 10.9,6.9 12.3,13.3 0.4,1.5 0.5,3.1 0.5,4.6 -0.1,1.5 -0.8,2.9 -2,4.1 l -29.5,28.4 v 5 c 0.1,3.5 2,6 5.7,7.4 1.4,0.5 2.9,0.8 4.6,0.8 1.7,0 3.2,-0.3 4.6,-0.8 3.8,-1.7 5.7,-4.2 5.8,-7.5 z m -20.6,-37.5 v 17.3 l 20.4,-19.5 c -0.8,-2.4 -2.7,-4.2 -5.5,-5.3 -1.4,-0.5 -2.9,-0.8 -4.6,-0.8 -1.7,0 -3.2,0.3 -4.6,0.8 -3.7,1.6 -5.6,4.1 -5.7,7.5 z"
   id="path20"
   style="fill:#de4d00" />
<path
   d="m 771.44659,105 c 0,2.5 -1.2,4.2 -3.5,5.1 -0.6,0.2 -1.3,0.3 -1.9,0.3 -2.5,0 -4.2,-1.2 -5.1,-3.5 -0.2,-0.6 -0.3,-1.3 -0.3,-1.9 V 45.5 h -0.1 c -2.5,0 -4.2,-1.2 -5.1,-3.5 -0.2,-0.7 -0.3,-1.4 -0.3,-1.9 0,-2.5 1.2,-4.2 3.5,-5.1 0.6,-0.2 1.3,-0.3 1.9,-0.4 h 5.5 c 1.9,0.1 3.4,0.9 4.5,2.4 0.8,-0.5 1.7,-0.9 2.6,-1.2 2.7,-0.9 5.5,-1.4 8.3,-1.4 2.9,0 5.6,0.5 8.3,1.4 2.8,1.2 5.2,2.7 7.2,4.5 2,-1.9 4.4,-3.4 7.2,-4.5 2.6,-0.9 5.3,-1.4 8.1,-1.4 2.9,0 5.6,0.5 8.3,1.4 6.8,2.5 10.8,7.2 12.2,13.9 0.3,1.4 0.4,2.9 0.4,4.3 v 51 c 0,2.5 -1.1,4.2 -3.4,5.1 -0.7,0.2 -1.4,0.3 -2,0.3 -2.4,0 -4.1,-1.2 -5,-3.5 -0.2,-0.6 -0.3,-1.3 -0.4,-1.9 V 54 c -0.1,-3.9 -1.9,-6.5 -5.5,-8 -1.4,-0.5 -2.9,-0.8 -4.5,-0.8 -1.5,0 -3,0.3 -4.3,0.8 -3.2,1.3 -5.1,3.5 -5.5,6.6 V 105 c 0,2.5 -1.2,4.2 -3.5,5.1 -0.6,0.2 -1.3,0.3 -1.9,0.3 -2.5,0 -4.2,-1.2 -5,-3.5 -0.3,-0.6 -0.4,-1.3 -0.4,-1.9 l -0.1,-51 c 0,-0.3 0,-0.7 0,-1.4 -0.5,-3.2 -2.3,-5.5 -5.4,-6.6 -1.4,-0.5 -2.9,-0.8 -4.5,-0.8 -1.5,0 -3,0.3 -4.5,0.8 -3,1.2 -4.8,3.2 -5.4,6.1 v 1.4 51.5 z"
   id="path22"
   style="fill:#de4d00" />
<path
   d="m 872.84659,91.4 c 0,-2.4 1.2,-4.1 3.5,-5 0.7,-0.3 1.4,-0.4 2,-0.4 2.5,0 4.2,1.2 5,3.5 0.3,0.6 0.4,1.3 0.4,1.9 0,7.8 -3.6,13.3 -10.7,16.8 -0.8,0.4 -1.6,0.7 -2.3,0.9 -2.5,0.9 -5.3,1.4 -8.3,1.4 -3,0 -5.7,-0.5 -8.1,-1.4 -7.2,-2.5 -11.5,-7.2 -12.7,-14.1 -0.2,-1.3 -0.3,-2.5 -0.3,-3.7 V 53.9 c 0,-7.8 3.5,-13.5 10.5,-16.9 0.8,-0.4 1.6,-0.7 2.4,-0.9 2.5,-0.9 5.3,-1.4 8.3,-1.4 3.1,0 5.8,0.5 8.3,1.4 6.8,2.4 10.9,6.9 12.3,13.3 0.4,1.5 0.5,3.1 0.5,4.6 -0.1,1.5 -0.8,2.9 -2,4.1 l -29.5,28.4 v 5 c 0.1,3.5 2,6 5.7,7.4 1.4,0.5 2.9,0.8 4.6,0.8 1.7,0 3.2,-0.3 4.6,-0.8 3.8,-1.7 5.7,-4.2 5.8,-7.5 z m -20.6,-37.5 v 17.3 l 20.4,-19.5 c -0.8,-2.4 -2.7,-4.2 -5.5,-5.3 -1.4,-0.5 -2.9,-0.8 -4.6,-0.8 -1.7,0 -3.2,0.3 -4.6,0.8 -3.7,1.6 -5.6,4.1 -5.7,7.5 z"
   id="path24"
   style="fill:#de4d00" />
<path
   d="m 939.34659,105 c 0,2.5 -1.2,4.2 -3.5,5.1 -0.7,0.2 -1.4,0.3 -1.9,0.3 -2.5,0 -4.2,-1.2 -5.1,-3.5 -0.2,-0.6 -0.3,-1.3 -0.3,-1.9 V 54 c -0.1,-3.9 -1.9,-6.5 -5.5,-8 -1.4,-0.5 -2.9,-0.8 -4.5,-0.8 -1.5,0 -3,0.3 -4.5,0.8 -2.9,1.2 -4.7,3.2 -5.4,6.1 V 105 c 0,2.5 -1.2,4.2 -3.5,5.1 -0.6,0.2 -1.3,0.3 -1.9,0.3 -2.4,0 -4.1,-1.2 -5,-3.5 -0.2,-0.6 -0.3,-1.3 -0.4,-1.9 V 45.5 h -0.1 c -2.5,0 -4.2,-1.2 -5,-3.5 -0.3,-0.7 -0.4,-1.4 -0.4,-1.9 0,-2.5 1.2,-4.2 3.5,-5.1 0.6,-0.2 1.3,-0.3 1.9,-0.4 h 5.5 c 1.9,0.1 3.4,0.9 4.5,2.4 0.9,-0.5 1.8,-0.9 2.7,-1.2 2.6,-0.9 5.3,-1.4 8.1,-1.4 2.9,0 5.6,0.5 8.3,1.4 6.7,2.5 10.7,7.2 12.2,13.9 0.3,1.4 0.4,2.9 0.4,4.3 v 51 z"
   id="path26"
   style="fill:#de4d00" />
<path
   d="m 956.94659,57.8 c -1.9,1.8 -4,2.1 -6.4,0.8 -0.5,-0.4 -1,-0.7 -1.4,-1.1 -1.8,-1.9 -2.1,-4 -0.8,-6.4 0.4,-0.5 0.7,-1 1.1,-1.4 l 13.3,-12.6 V 5.4 c 0,-2.5 1.2,-4.2 3.7,-5.1 0.6,-0.2 1.3,-0.3 1.9,-0.3 2.5,0 4.2,1.2 5,3.5 0.3,0.6 0.4,1.3 0.4,1.9 v 21.5 l 6.5,-6.4 c 2,-1.8 4.1,-2.1 6.5,-0.8 0.5,0.4 1,0.7 1.4,1.1 1.8,1.9 2.1,4 0.8,6.4 -0.4,0.5 -0.7,1 -1.1,1.4 l -14.1,13.4 -0.1,57.9 c 2.3,0.5 3.7,2 4.1,4.3 0.1,0.4 0.1,0.7 0.1,0.9 0,2.5 -1.2,4.2 -3.5,5.1 -0.7,0.2 -1.4,0.3 -1.9,0.3 h -4.2 c -2.5,0 -4.2,-1.2 -5.1,-3.5 -0.2,-0.6 -0.3,-1.3 -0.4,-1.9 l 0.1,-52.7 z"
   id="path28"
   style="fill:#de4d00" />
<path
   d="m 1076.1466,104.9 c 0,2.4 -1.1,4.1 -3.4,5 -0.7,0.3 -1.4,0.4 -2.2,0.4 -2.5,0 -4.2,-1.2 -5.1,-3.5 -0.3,-0.6 -0.4,-1.3 -0.4,-1.9 V 54.1 c -0.1,-3.9 -2,-6.5 -5.7,-8 -1.4,-0.5 -2.9,-0.8 -4.5,-0.8 -1.6,0.1 -3.2,0.4 -4.6,0.8 -3.7,1.4 -5.6,4.1 -5.7,8 l -0.4,50.9 c 0,2.4 -1.1,4.1 -3.4,5 -0.7,0.3 -1.4,0.4 -2.2,0.4 -2.6,0 -4.3,-1.2 -5.1,-3.5 -0.3,-0.6 -0.4,-1.3 -0.4,-1.9 V 5.5 c 0,-2.4 1.1,-4.1 3.4,-5.1 0.7,-0.2 1.4,-0.3 2.2,-0.4 2.5,0 4.2,1.2 5.1,3.7 0.3,0.6 0.4,1.3 0.4,1.9 V 37 c 0.6,-0.4 1.4,-0.7 2.3,-0.9 2.7,-1 5.5,-1.5 8.3,-1.5 3,0 5.8,0.5 8.4,1.5 6.9,2.4 11,6.9 12.4,13.5 0.4,1.5 0.5,3.1 0.5,4.6 v 50.7 z"
   id="path30"
   style="fill:#de4d00" />
<path
   d="m 1083.6466,40 c 0,-2.5 1.2,-4.2 3.5,-5 0.6,-0.3 1.3,-0.4 1.9,-0.4 2.5,0 4.2,1.2 5.1,3.5 0.2,0.6 0.3,1.3 0.3,1.9 v 50.9 c 0.1,4 2,6.6 5.7,8 1.4,0.5 2.8,0.8 4.3,0.8 1.6,0 3.1,-0.3 4.5,-0.8 3,-1.2 4.8,-3.2 5.4,-6.1 V 91.4 40 c 0,-2.5 1.2,-4.2 3.5,-5 0.7,-0.3 1.4,-0.4 2,-0.4 2.4,0 4.1,1.2 5,3.5 0.2,0.6 0.3,1.3 0.4,1.9 v 49.5 c 0.1,0.5 0.1,0.9 0.1,1.4 0,1 0,2 -0.1,3 v 5.5 h 0.1 c 2.5,0 4.2,1.2 5.1,3.5 0.2,0.7 0.3,1.4 0.3,1.9 0,2.5 -1.2,4.2 -3.5,5.1 -0.6,0.2 -1.3,0.3 -1.9,0.3 h -5.7 c -1.9,-0.1 -3.4,-0.9 -4.5,-2.3 -0.8,0.4 -1.7,0.7 -2.6,1.1 -2.6,1 -5.4,1.5 -8.2,1.5 -2.9,0 -5.6,-0.5 -8.3,-1.5 -6.8,-2.4 -10.8,-7 -12.2,-13.7 -0.3,-1.4 -0.4,-2.9 -0.4,-4.5 V 40 Z"
   id="path32"
   style="fill:#de4d00" />
<path
   d="m 1138.6466,5.9 c 0,-2.5 1.2,-4.2 3.5,-5 0.6,-0.3 1.3,-0.4 1.9,-0.4 2.5,0 4.2,1.2 5,3.5 0.3,0.6 0.4,1.3 0.4,1.9 v 31.2 l 2.2,-1.1 c 2.5,-0.9 5.2,-1.4 8.1,-1.4 3,0 5.7,0.5 8.1,1.4 6.5,2.3 10.5,6.7 12,13 0.4,1.7 0.7,3.4 0.7,5.1 v 37.3 c 0,8 -3.8,13.7 -11.4,17 -0.5,0.2 -1,0.4 -1.5,0.5 -2.5,0.9 -5.2,1.4 -8.1,1.4 -3,0 -5.7,-0.5 -8.1,-1.4 -1.2,-0.5 -2.2,-0.9 -3,-1.4 -1.2,1.5 -2.7,2.3 -4.5,2.4 -2.5,0 -4.2,-1.2 -5,-3.5 -0.3,-0.6 -0.4,-1.3 -0.4,-1.9 V 5.9 Z m 10.8,86.2 c 0.4,3.2 2.3,5.5 5.7,6.8 1.4,0.5 2.9,0.8 4.5,0.8 1.7,0 3.2,-0.3 4.6,-0.8 3.7,-1.6 5.6,-4.1 5.7,-7.3 V 54.2 c -0.1,-3.7 -2,-6.3 -5.7,-7.8 -1.4,-0.5 -2.9,-0.8 -4.5,-0.8 -1.5,0 -3,0.3 -4.3,0.8 -3.6,1.5 -5.5,4.1 -5.5,7.8 h -0.4 v 37.9 z"
   id="path34"
   style="fill:#de4d00" />
<path
   d="m 119.81403,59.299699 c 1.96219,0 3.55646,-1.594273 3.55646,-3.556463 0,-1.962188 -1.59427,-3.556465 -3.55646,-3.556465 h -17.90497 v -7.174247 h 10.73073 c 1.96218,0 3.55647,-1.594277 3.55647,-3.556465 V 22.876601 c 4.16963,-1.471641 7.17423,-5.457332 7.17423,-10.117528 0,-5.947879 -4.84415,-10.73071 -10.7307,-10.73071 -5.94789,0 -10.73073,4.844149 -10.73073,10.73071 0,4.660196 3.00461,8.645887 7.17425,10.117528 v 14.961676 h -7.17425 v -10.73071 c 0,-1.962186 -1.59426,-3.556464 -3.556446,-3.556464 h -72.11038 c -1.96219,0 -3.556457,1.594278 -3.556457,3.556464 v 10.73071 h -7.17425 V 22.876601 c 4.16965,-1.471641 7.11293,-5.457332 7.11293,-10.117528 0,-5.886561 -4.78284,-10.73071 -10.73071,-10.73071 -5.947886,0 -10.730712,4.844149 -10.730712,10.73071 0,4.660196 3.004599,8.645887 7.174252,10.117528 v 18.51814 c 0,1.962188 1.59427,3.556465 3.55646,3.556465 h 10.73071 V 52.12545 H 4.719499 c -1.962187,0 -3.556464,1.594278 -3.556464,3.556464 0,1.962191 1.594277,3.556464 3.556464,3.556464 h 17.904958 v 7.174242 h -10.73071 c -1.96219,0 -3.55646,1.59428 -3.55646,3.55647 v 18.51814 c -4.169653,1.59428 -7.174252,5.51866 -7.174252,10.24018 0,5.94787 4.844152,10.7307 10.730712,10.7307 5.88656,0 10.73071,-4.84415 10.73071,-10.7307 0,-4.66021 -3.0046,-8.6459 -7.17425,-10.11754 V 73.6482 h 7.17425 v 10.7307 c 0,1.96219 1.594277,3.55647 3.556457,3.55647 h 32.43741 v 7.17425 h -10.66939 c -1.9622,0 -3.55646,1.59427 -3.55646,3.55646 0,1.96218 1.59426,3.55646 3.55646,3.55646 h 28.63566 c 1.9622,0 3.55647,-1.59428 3.55647,-3.55646 0,-1.96219 -1.59427,-3.55646 -3.55647,-3.55646 h -10.73071 v -7.17425 h 32.4374 c 1.962196,0 3.556476,-1.59428 3.556476,-3.55647 V 73.6482 h 7.23555 v 14.96167 c -4.16964,1.47164 -7.17425,5.45733 -7.17425,10.11754 0,5.94787 4.84415,10.7307 10.73073,10.7307 5.94788,0 10.7307,-4.84415 10.7307,-10.7307 0,-4.66021 -3.0046,-8.6459 -7.17423,-10.11754 V 70.09173 c 0,-1.96219 -1.59429,-3.55647 -3.55647,-3.55647 H 101.90906 V 59.299699 Z M 112.63979,9.20261 c 1.96218,0 3.55647,1.594276 3.55647,3.556463 0,1.962188 -1.59429,3.556465 -3.55647,3.556465 -1.96219,0 -3.55648,-1.594277 -3.55648,-3.556465 0,-1.962187 1.59429,-3.556463 3.55648,-3.556463 z M 11.893747,16.376856 c -1.96219,0 -3.55646,-1.594277 -3.55646,-3.556464 0,-1.962187 1.59427,-3.556464 3.55646,-3.556464 1.96219,0 3.55646,1.594277 3.55646,3.556464 0,1.962187 -1.59427,3.556464 -3.55646,3.556464 z m 0,85.907014 c -1.96219,0 -3.55646,-1.59429 -3.55646,-3.55646 0,-1.9622 1.59427,-3.55649 3.55646,-3.55649 1.96219,0 3.55646,1.59429 3.55646,3.55649 0.0613,1.96217 -1.59427,3.55646 -3.55646,3.55646 z M 94.734824,80.82244 H 29.798704 V 30.66403 h 64.93612 z m 17.904966,14.28718 c 1.96218,0 3.55647,1.59427 3.55647,3.55646 0,1.96218 -1.59429,3.55646 -3.55647,3.55646 -1.96219,0 -3.55648,-1.59428 -3.55648,-3.55646 0,-1.96219 1.59429,-3.55646 3.55648,-3.55646 z"
   id="path36"
   style="fill:#de4d00;stroke:#de4d00;stroke-width:2.32607;stroke-miterlimit:4;stroke-dasharray:none;stroke-opacity:1" />
</svg>
