<svg id="Layer_1" data-name="Layer 1" xmlns="http://www.w3.org/2000/svg" viewBox="0 0 419.25 289.08">
  <defs>
    <style>
      .cls-1 {
        fill: #486273;
      }

      .cls-2 {
        fill: #de4d00;
      }

      .cls-3 {
        fill: none;
      }

      .cls-4 {
        fill: #fff;
      }

      .cls-5 {
        fill: #ececec;
      }

      .cls-6 {
        fill: #de4e00;
      }
    </style>
  </defs>
  <g>
    <path class="cls-1" d="M21.93,130v-1.38h10V130H27.71v12.46H26.19V130Z" transform="translate(0 0)"/>
    <path class="cls-1" d="M33.63,130.16v-1.74h1.5v1.74Zm0,12.26v-10h1.5v10Z" transform="translate(0 0)"/>
    <path class="cls-1" d="M38,146.86V132.42h1.48v.72a5.84,5.84,0,0,1,3-.92,3.14,3.14,0,0,1,2.76,1.21,7,7,0,0,1,.86,4,6.21,6.21,0,0,1-1,4,4.12,4.12,0,0,1-3.35,1.21,10.44,10.44,0,0,1-2.24-.22v4.46Zm4.26-13.3a4.78,4.78,0,0,0-1.29.2,6.79,6.79,0,0,0-1.09.4l-.38.2v6.74a14.92,14.92,0,0,0,2.16.22,2.59,2.59,0,0,0,2.27-.92,5.25,5.25,0,0,0,.65-3,5.47,5.47,0,0,0-.59-3A1.94,1.94,0,0,0,42.27,133.56Z" transform="translate(0 0)"/>
    <path class="cls-1" d="M51.69,133.56c-1.45,0-2.18.51-2.18,1.52a1,1,0,0,0,.5,1,8.93,8.93,0,0,0,2.28.6,6.13,6.13,0,0,1,2.52.87,2.47,2.47,0,0,1,.74,2.1,2.6,2.6,0,0,1-1,2.26,4.87,4.87,0,0,1-2.89.72,17.78,17.78,0,0,1-2.92-.28l-.6-.1.08-1.3a25,25,0,0,0,3.44.34,3.38,3.38,0,0,0,1.77-.37,1.33,1.33,0,0,0,.61-1.24,1.26,1.26,0,0,0-.52-1.18,7.56,7.56,0,0,0-2.28-.59,6.13,6.13,0,0,1-2.5-.82,2.34,2.34,0,0,1-.74-2,2.45,2.45,0,0,1,1-2.16,4.47,4.47,0,0,1,2.57-.7,20.42,20.42,0,0,1,3.06.28l.56.1,0,1.28A26.5,26.5,0,0,0,51.69,133.56Z" transform="translate(0 0)"/>
    <path class="cls-1" d="M69.31,135.44v5.12c0,.49.43.79,1.16.88l-.06,1.18a3.26,3.26,0,0,1-2.38-.8,8.85,8.85,0,0,1-3.6.8,2.72,2.72,0,0,1-2.1-.78,3.19,3.19,0,0,1-.72-2.24,2.83,2.83,0,0,1,.74-2.15,4,4,0,0,1,2.32-.85l3.14-.3v-.86a2,2,0,0,0-.44-1.46,1.62,1.62,0,0,0-1.2-.44,29.66,29.66,0,0,0-3.32.2l-.62.06-.06-1.14a20.48,20.48,0,0,1,3.9-.44,2.79,2.79,0,0,1,3.24,3.22Zm-6.16,4.08c0,1.23.51,1.84,1.52,1.84a8,8,0,0,0,2.68-.46l.46-.16v-3.3l-3,.28a1.93,1.93,0,0,0-1.3.52A1.87,1.87,0,0,0,63.15,139.52Z" transform="translate(0 0)"/>
    <path class="cls-1" d="M73.77,142.42h-1.5v-10h1.48v.7a6.41,6.41,0,0,1,3.1-.9,3,3,0,0,1,2.69,1.08,7.63,7.63,0,0,1,.69,3.84v5.28H78.75v-5.24a6.63,6.63,0,0,0-.41-2.85,1.8,1.8,0,0,0-1.75-.77,5.16,5.16,0,0,0-1.35.19,7.49,7.49,0,0,0-1.09.37l-.38.18Z" transform="translate(0 0)"/>
    <path class="cls-1" d="M90.69,128.06v14.36H89.21v-.68a6,6,0,0,1-3,.88,4.54,4.54,0,0,1-1.4-.2,2.82,2.82,0,0,1-1.12-.72q-1.08-1.08-1.08-4a7.14,7.14,0,0,1,1-4.2,3.77,3.77,0,0,1,3.21-1.29,12.72,12.72,0,0,1,2.46.26v-4.42Zm-5.2,13.08a2.68,2.68,0,0,0,.93.14,4.84,4.84,0,0,0,1.28-.19,7.47,7.47,0,0,0,1.11-.37l.4-.18v-6.78a12.88,12.88,0,0,0-2.38-.24,2.29,2.29,0,0,0-2.12,1,5.88,5.88,0,0,0-.6,3,5,5,0,0,0,.7,3.12A1.77,1.77,0,0,0,85.49,141.14Z" transform="translate(0 0)"/>
    <path class="cls-1" d="M96.81,130v-1.38h10V130h-4.22v12.46h-1.52V130Z" transform="translate(0 0)"/>
    <path class="cls-1" d="M106.79,142.42v-10h1.48v1.36a9.69,9.69,0,0,1,3.66-1.58v1.52a10.87,10.87,0,0,0-1.75.5,13.42,13.42,0,0,0-1.39.6l-.5.26v7.34Z" transform="translate(0 0)"/>
    <path class="cls-1" d="M113.71,130.16v-1.74h1.5v1.74Zm0,12.26v-10h1.5v10Z" transform="translate(0 0)"/>
    <path class="cls-1" d="M121.83,132.22a17.22,17.22,0,0,1,2.24.24l.48.06-.06,1.22a23.46,23.46,0,0,0-2.36-.18,2.75,2.75,0,0,0-2.31.81,5.33,5.33,0,0,0-.61,3,5.86,5.86,0,0,0,.57,3,2.68,2.68,0,0,0,2.37.86l2.36-.18.06,1.24a20.07,20.07,0,0,1-2.78.28,3.78,3.78,0,0,1-3.23-1.2,7,7,0,0,1-.89-4,6.35,6.35,0,0,1,1-4A4,4,0,0,1,121.83,132.22Z" transform="translate(0 0)"/>
    <path class="cls-1" d="M128.31,142.42h-1.5V128.06h1.5v8.48l1.56-.08,2.86-4h1.7l-3.26,4.6,3.4,5.4h-1.7l-3-4.64-1.58.06Z" transform="translate(0 0)"/>
    <path class="cls-1" d="M139.53,133.56c-1.45,0-2.18.51-2.18,1.52a1,1,0,0,0,.5,1,8.67,8.67,0,0,0,2.28.6,6.13,6.13,0,0,1,2.52.87,2.47,2.47,0,0,1,.74,2.1,2.6,2.6,0,0,1-1,2.26,4.87,4.87,0,0,1-2.89.72,17.69,17.69,0,0,1-2.92-.28l-.6-.1.08-1.3a25,25,0,0,0,3.44.34,3.41,3.41,0,0,0,1.77-.37,1.33,1.33,0,0,0,.61-1.24,1.26,1.26,0,0,0-.52-1.18,7.75,7.75,0,0,0-2.28-.59,6.08,6.08,0,0,1-2.5-.82,2.34,2.34,0,0,1-.74-2,2.43,2.43,0,0,1,1-2.16,4.44,4.44,0,0,1,2.57-.7,20.65,20.65,0,0,1,3.06.28l.56.1,0,1.28A26.64,26.64,0,0,0,139.53,133.56Z" transform="translate(0 0)"/>
    <path class="cls-1" d="M152,133.72v8.7h-1.5v-8.7h-1.26v-1.3h1.26v-.9a5,5,0,0,1,.6-2.89,2.52,2.52,0,0,1,2.1-.77l2,.14,0,1.24c-.75,0-1.36,0-1.85,0a1.14,1.14,0,0,0-1,.48,3.75,3.75,0,0,0-.31,1.86v.88h2.9v1.3Z" transform="translate(0 0)"/>
    <path class="cls-1" d="M156.09,137.4a6.36,6.36,0,0,1,1-4,5.09,5.09,0,0,1,6.61,0,6.36,6.36,0,0,1,1,4,6.79,6.79,0,0,1-.92,4c-.61.83-1.73,1.24-3.36,1.24s-2.75-.41-3.36-1.24A6.79,6.79,0,0,1,156.09,137.4Zm1.54,0a6.42,6.42,0,0,0,.53,3.07,3.24,3.24,0,0,0,4.43,0,6.39,6.39,0,0,0,.52-3.07,5.59,5.59,0,0,0-.58-3,3.21,3.21,0,0,0-4.31,0A5.55,5.55,0,0,0,157.63,137.37Z" transform="translate(0 0)"/>
    <path class="cls-1" d="M167.09,142.42v-10h1.48v1.36a9.69,9.69,0,0,1,3.66-1.58v1.52a10.87,10.87,0,0,0-1.75.5,12.52,12.52,0,0,0-1.39.6l-.5.26v7.34Z" transform="translate(0 0)"/>
    <path class="cls-1" d="M186.29,142.42h-7.62V128.58h1.54V141h6.08Z" transform="translate(0 0)"/>
    <path class="cls-1" d="M188,130.16v-1.74h1.5v1.74Zm0,12.26v-10h1.5v10Z" transform="translate(0 0)"/>
    <path class="cls-1" d="M194.29,133.72v8.7h-1.5v-8.7h-1.26v-1.3h1.26v-.9a5,5,0,0,1,.6-2.89,2.52,2.52,0,0,1,2.1-.77l2,.14,0,1.24c-.75,0-1.36,0-1.85,0a1.14,1.14,0,0,0-1,.48,3.75,3.75,0,0,0-.31,1.86v.88h2.9v1.3Z" transform="translate(0 0)"/>
    <path class="cls-1" d="M205.61,141.18l.58-.06,0,1.18a29.26,29.26,0,0,1-3.9.32,3.52,3.52,0,0,1-3.06-1.25,6.71,6.71,0,0,1-.9-3.89q0-5.26,4.18-5.26a3.84,3.84,0,0,1,3,1.13,5.24,5.24,0,0,1,1,3.55l-.08,1.14h-6.6a4.09,4.09,0,0,0,.6,2.46,2.47,2.47,0,0,0,2.09.8Q204.07,141.3,205.61,141.18Zm-.54-4.34a4.37,4.37,0,0,0-.59-2.6,2.26,2.26,0,0,0-1.92-.76,2.47,2.47,0,0,0-2,.8,4,4,0,0,0-.69,2.56Z" transform="translate(0 0)"/>
    <path class="cls-1" d="M217.39,129.72c-2,0-3,.75-3,2.26a1.94,1.94,0,0,0,.69,1.73,9.18,9.18,0,0,0,2.8.94,7.07,7.07,0,0,1,3,1.22,3.07,3.07,0,0,1,.88,2.47q0,4.26-4.42,4.26a24.4,24.4,0,0,1-3.66-.34l-.72-.1.16-1.28a34.13,34.13,0,0,0,4.14.36c2,0,3-.93,3-2.78a1.9,1.9,0,0,0-.65-1.61,6.27,6.27,0,0,0-2.43-.83,8.08,8.08,0,0,1-3.32-1.29,3.23,3.23,0,0,1-1-2.65q0-3.72,4.46-3.72a24.63,24.63,0,0,1,3.5.3l.68.1-.14,1.3A36.62,36.62,0,0,0,217.39,129.72Z" transform="translate(0 0)"/>
    <path class="cls-1" d="M227.89,132.22a17.22,17.22,0,0,1,2.24.24l.48.06-.06,1.22a23.67,23.67,0,0,0-2.36-.18,2.74,2.74,0,0,0-2.31.81,5.24,5.24,0,0,0-.61,3,5.86,5.86,0,0,0,.57,3,2.68,2.68,0,0,0,2.37.86l2.36-.18.06,1.24a20.07,20.07,0,0,1-2.78.28,3.78,3.78,0,0,1-3.23-1.2,6.93,6.93,0,0,1-.89-4,6.35,6.35,0,0,1,1-4A4,4,0,0,1,227.89,132.22Z" transform="translate(0 0)"/>
    <path class="cls-1" d="M232.87,130.16v-1.74h1.5v1.74Zm0,12.26v-10h1.5v10Z" transform="translate(0 0)"/>
    <path class="cls-1" d="M244.05,141.18l.58-.06,0,1.18a29.26,29.26,0,0,1-3.9.32,3.52,3.52,0,0,1-3.06-1.25,6.71,6.71,0,0,1-.9-3.89q0-5.26,4.18-5.26a3.85,3.85,0,0,1,3,1.13,5.3,5.3,0,0,1,1,3.55l-.08,1.14h-6.6a4.09,4.09,0,0,0,.6,2.46,2.47,2.47,0,0,0,2.09.8Q242.51,141.3,244.05,141.18Zm-.54-4.34a4.37,4.37,0,0,0-.59-2.6,2.28,2.28,0,0,0-1.92-.76,2.47,2.47,0,0,0-2,.8,4,4,0,0,0-.69,2.56Z" transform="translate(0 0)"/>
    <path class="cls-1" d="M248.85,142.42h-1.5v-10h1.48v.7a6.38,6.38,0,0,1,3.1-.9,3,3,0,0,1,2.69,1.08,7.63,7.63,0,0,1,.69,3.84v5.28h-1.48v-5.24a6.79,6.79,0,0,0-.41-2.85,1.82,1.82,0,0,0-1.75-.77,5,5,0,0,0-1.35.19,6.72,6.72,0,0,0-1.09.37l-.38.18Z" transform="translate(0 0)"/>
    <path class="cls-1" d="M261.83,132.22a17.39,17.39,0,0,1,2.24.24l.48.06-.06,1.22a23.67,23.67,0,0,0-2.36-.18,2.74,2.74,0,0,0-2.31.81,5.24,5.24,0,0,0-.61,3,5.86,5.86,0,0,0,.57,3,2.68,2.68,0,0,0,2.37.86l2.36-.18.06,1.24a20.07,20.07,0,0,1-2.78.28,3.78,3.78,0,0,1-3.23-1.2,6.93,6.93,0,0,1-.89-4,6.35,6.35,0,0,1,1-4A3.94,3.94,0,0,1,261.83,132.22Z" transform="translate(0 0)"/>
    <path class="cls-1" d="M273.49,141.18l.58-.06,0,1.18a29.26,29.26,0,0,1-3.9.32,3.52,3.52,0,0,1-3.06-1.25,6.71,6.71,0,0,1-.9-3.89q0-5.26,4.18-5.26a3.85,3.85,0,0,1,3,1.13,5.3,5.3,0,0,1,1,3.55l-.08,1.14h-6.6a4.09,4.09,0,0,0,.6,2.46,2.45,2.45,0,0,0,2.09.8Q271.95,141.3,273.49,141.18Zm-.54-4.34a4.37,4.37,0,0,0-.59-2.6,2.29,2.29,0,0,0-1.92-.76,2.46,2.46,0,0,0-2,.8,4,4,0,0,0-.69,2.56Z" transform="translate(0 0)"/>
    <path class="cls-1" d="M279.93,133.56c-1.46,0-2.18.51-2.18,1.52a1,1,0,0,0,.5,1,8.67,8.67,0,0,0,2.28.6,6.25,6.25,0,0,1,2.52.87,2.5,2.5,0,0,1,.74,2.1,2.6,2.6,0,0,1-1,2.26,4.89,4.89,0,0,1-2.89.72,17.69,17.69,0,0,1-2.92-.28l-.6-.1.08-1.3a24.86,24.86,0,0,0,3.44.34,3.43,3.43,0,0,0,1.77-.37,1.35,1.35,0,0,0,.61-1.24,1.28,1.28,0,0,0-.52-1.18,7.75,7.75,0,0,0-2.28-.59,6,6,0,0,1-2.5-.82,2.32,2.32,0,0,1-.74-2,2.43,2.43,0,0,1,1-2.16,4.42,4.42,0,0,1,2.57-.7,20.65,20.65,0,0,1,3.06.28l.56.1,0,1.28A26.64,26.64,0,0,0,279.93,133.56Z" transform="translate(0 0)"/>
    <path class="cls-1" d="M24.91,161.12v5.3H23.37V152.58h5.12a4.74,4.74,0,0,1,3.31,1,4.12,4.12,0,0,1,1.11,3.18c0,2.13-.84,3.47-2.54,4L33,166.42h-1.7l-2.5-5.3Zm3.6-1.36q2.82,0,2.82-2.91c0-1.94-.94-2.91-2.84-2.91H24.91v5.82Z" transform="translate(0 0)"/>
    <path class="cls-1" d="M42.05,165.18l.58-.06,0,1.18a29.26,29.26,0,0,1-3.9.32,3.52,3.52,0,0,1-3.06-1.25,6.71,6.71,0,0,1-.9-3.89c0-3.51,1.4-5.26,4.18-5.26a3.82,3.82,0,0,1,3,1.13,5.24,5.24,0,0,1,1,3.55L42.93,162h-6.6a4.09,4.09,0,0,0,.6,2.46,2.47,2.47,0,0,0,2.09.8Q40.52,165.3,42.05,165.18Zm-.54-4.34a4.29,4.29,0,0,0-.59-2.6,2.26,2.26,0,0,0-1.92-.76,2.48,2.48,0,0,0-2,.8,4.12,4.12,0,0,0-.69,2.56Z" transform="translate(0 0)"/>
    <path class="cls-1" d="M48.49,157.56c-1.45,0-2.18.51-2.18,1.52a1,1,0,0,0,.5,1,8.93,8.93,0,0,0,2.28.6,6.13,6.13,0,0,1,2.52.87,2.47,2.47,0,0,1,.74,2.1,2.6,2.6,0,0,1-1,2.26,4.87,4.87,0,0,1-2.89.72,17.78,17.78,0,0,1-2.92-.28l-.6-.1.08-1.3a25,25,0,0,0,3.44.34,3.38,3.38,0,0,0,1.77-.37,1.33,1.33,0,0,0,.61-1.24,1.26,1.26,0,0,0-.52-1.18,7.56,7.56,0,0,0-2.28-.59,6.13,6.13,0,0,1-2.5-.82,2.34,2.34,0,0,1-.74-2,2.45,2.45,0,0,1,1-2.16,4.47,4.47,0,0,1,2.57-.7,20.42,20.42,0,0,1,3.06.28l.56.1,0,1.28A26.5,26.5,0,0,0,48.49,157.56Z" transform="translate(0 0)"/>
    <path class="cls-1" d="M61.45,165.18l.58-.06,0,1.18a29.26,29.26,0,0,1-3.9.32,3.52,3.52,0,0,1-3.06-1.25,6.71,6.71,0,0,1-.9-3.89c0-3.51,1.4-5.26,4.18-5.26a3.82,3.82,0,0,1,3,1.13,5.24,5.24,0,0,1,1,3.55L62.33,162h-6.6a4.09,4.09,0,0,0,.6,2.46,2.47,2.47,0,0,0,2.09.8Q59.92,165.3,61.45,165.18Zm-.54-4.34a4.29,4.29,0,0,0-.59-2.6,2.26,2.26,0,0,0-1.92-.76,2.48,2.48,0,0,0-2,.8,4.12,4.12,0,0,0-.69,2.56Z" transform="translate(0 0)"/>
    <path class="cls-1" d="M71.81,159.44v5.12c0,.49.43.79,1.16.88l-.06,1.18a3.26,3.26,0,0,1-2.38-.8,8.85,8.85,0,0,1-3.6.8,2.72,2.72,0,0,1-2.1-.78,3.19,3.19,0,0,1-.72-2.24,2.83,2.83,0,0,1,.74-2.15,4,4,0,0,1,2.32-.85l3.14-.3v-.86a2,2,0,0,0-.44-1.46,1.62,1.62,0,0,0-1.2-.44,29.66,29.66,0,0,0-3.32.2l-.62.06-.06-1.14a20.48,20.48,0,0,1,3.9-.44,2.79,2.79,0,0,1,3.24,3.22Zm-6.16,4.08c0,1.23.51,1.84,1.52,1.84a8,8,0,0,0,2.68-.46l.46-.16v-3.3l-3,.28a1.93,1.93,0,0,0-1.3.52A1.87,1.87,0,0,0,65.65,163.52Z" transform="translate(0 0)"/>
    <path class="cls-1" d="M74.77,166.42v-10h1.48v1.36a9.69,9.69,0,0,1,3.66-1.58v1.52a10.87,10.87,0,0,0-1.75.5,13.42,13.42,0,0,0-1.39.6l-.5.26v7.34Z" transform="translate(0 0)"/>
    <path class="cls-1" d="M85.23,156.22a17.22,17.22,0,0,1,2.24.24l.48.06-.06,1.22a23.26,23.26,0,0,0-2.36-.18,2.75,2.75,0,0,0-2.31.81,5.33,5.33,0,0,0-.61,3,5.86,5.86,0,0,0,.57,3,2.68,2.68,0,0,0,2.37.86l2.36-.18.06,1.24a19.93,19.93,0,0,1-2.78.28,3.79,3.79,0,0,1-3.23-1.2,7,7,0,0,1-.89-4,6.35,6.35,0,0,1,1-4A4,4,0,0,1,85.23,156.22Z" transform="translate(0 0)"/>
    <path class="cls-1" d="M91.71,166.42h-1.5V152.06h1.5V157a7.16,7.16,0,0,1,3.08-.76,3,3,0,0,1,2.69,1.08,7.63,7.63,0,0,1,.69,3.84v5.28h-1.5v-5.24a6.63,6.63,0,0,0-.41-2.85,1.78,1.78,0,0,0-1.73-.77,6.61,6.61,0,0,0-2.44.46l-.38.14Z" transform="translate(0 0)"/>
    <path class="cls-1" d="M110.55,166.42h-4.94V152.58h4.94q3.39,0,4.48,2.68a10.61,10.61,0,0,1,.64,4c0,3.48-.86,5.67-2.6,6.58A5.39,5.39,0,0,1,110.55,166.42Zm3.54-7.12c0-2.65-.59-4.31-1.78-5a3.52,3.52,0,0,0-1.76-.4h-3.4v11.12h3.4Q114.09,165.06,114.09,159.3Z" transform="translate(0 0)"/>
    <path class="cls-1" d="M125.31,159.44v5.12c0,.49.43.79,1.16.88l-.06,1.18a3.26,3.26,0,0,1-2.38-.8,8.85,8.85,0,0,1-3.6.8,2.72,2.72,0,0,1-2.1-.78,3.19,3.19,0,0,1-.72-2.24,2.83,2.83,0,0,1,.74-2.15,4,4,0,0,1,2.32-.85l3.14-.3v-.86a2,2,0,0,0-.44-1.46,1.62,1.62,0,0,0-1.2-.44,29.66,29.66,0,0,0-3.32.2l-.62.06-.06-1.14a20.48,20.48,0,0,1,3.9-.44,2.79,2.79,0,0,1,3.24,3.22Zm-6.16,4.08c0,1.23.51,1.84,1.52,1.84a8,8,0,0,0,2.68-.46l.46-.16v-3.3l-3,.28a1.93,1.93,0,0,0-1.3.52A1.87,1.87,0,0,0,119.15,163.52Z" transform="translate(0 0)"/>
    <path class="cls-1" d="M133.45,157.72h-3.18v4.78a6.61,6.61,0,0,0,.25,2.26c.17.36.57.54,1.19.54l1.78-.12.1,1.24a13.16,13.16,0,0,1-2,.22,2.6,2.6,0,0,1-2.16-.76,5,5,0,0,1-.6-2.9v-5.26h-1.42v-1.3h1.42v-3.06h1.48v3.06h3.18Z" transform="translate(0 0)"/>
    <path class="cls-1" d="M142.35,159.44v5.12c0,.49.43.79,1.16.88l-.06,1.18a3.26,3.26,0,0,1-2.38-.8,8.85,8.85,0,0,1-3.6.8,2.72,2.72,0,0,1-2.1-.78,3.19,3.19,0,0,1-.72-2.24,2.83,2.83,0,0,1,.74-2.15,4,4,0,0,1,2.32-.85l3.14-.3v-.86a2,2,0,0,0-.44-1.46,1.62,1.62,0,0,0-1.2-.44,29.66,29.66,0,0,0-3.32.2l-.62.06-.06-1.14a20.48,20.48,0,0,1,3.9-.44,2.79,2.79,0,0,1,3.24,3.22Zm-6.16,4.08c0,1.23.51,1.84,1.52,1.84a8,8,0,0,0,2.68-.46l.46-.16v-3.3l-3,.28a1.93,1.93,0,0,0-1.3.52A1.87,1.87,0,0,0,136.19,163.52Z" transform="translate(0 0)"/>
    <path class="cls-1" d="M150,166.42V152.58h2.78l3.92,11.7,3.92-11.7h2.78v13.84h-1.54v-12.2h-.28l-4,11.7h-1.72l-4-11.7h-.28v12.2Z" transform="translate(0 0)"/>
    <path class="cls-1" d="M173.57,159.44v5.12c0,.49.43.79,1.16.88l-.06,1.18a3.26,3.26,0,0,1-2.38-.8,8.85,8.85,0,0,1-3.6.8,2.72,2.72,0,0,1-2.1-.78,3.19,3.19,0,0,1-.72-2.24,2.83,2.83,0,0,1,.74-2.15,4,4,0,0,1,2.32-.85l3.14-.3v-.86a2,2,0,0,0-.44-1.46,1.62,1.62,0,0,0-1.2-.44,29.66,29.66,0,0,0-3.32.2l-.62.06-.06-1.14a20.48,20.48,0,0,1,3.9-.44,2.79,2.79,0,0,1,3.24,3.22Zm-6.16,4.08c0,1.23.51,1.84,1.52,1.84a8,8,0,0,0,2.68-.46l.46-.16v-3.3l-3,.28a1.93,1.93,0,0,0-1.3.52A1.87,1.87,0,0,0,167.41,163.52Z" transform="translate(0 0)"/>
    <path class="cls-1" d="M178,166.42h-1.5v-10H178v.7a6.41,6.41,0,0,1,3.1-.9,3,3,0,0,1,2.69,1.08,7.63,7.63,0,0,1,.69,3.84v5.28H183v-5.24a6.63,6.63,0,0,0-.41-2.85,1.8,1.8,0,0,0-1.75-.77,5.16,5.16,0,0,0-1.35.19,7.49,7.49,0,0,0-1.09.37l-.38.18Z" transform="translate(0 0)"/>
    <path class="cls-1" d="M194.33,159.44v5.12c0,.49.43.79,1.16.88l-.06,1.18a3.26,3.26,0,0,1-2.38-.8,8.85,8.85,0,0,1-3.6.8,2.72,2.72,0,0,1-2.1-.78,3.19,3.19,0,0,1-.72-2.24,2.83,2.83,0,0,1,.74-2.15,4,4,0,0,1,2.32-.85l3.14-.3v-.86a2,2,0,0,0-.44-1.46,1.62,1.62,0,0,0-1.2-.44,29.66,29.66,0,0,0-3.32.2l-.62.06-.06-1.14a20.48,20.48,0,0,1,3.9-.44,2.79,2.79,0,0,1,3.24,3.22Zm-6.16,4.08c0,1.23.51,1.84,1.52,1.84a8,8,0,0,0,2.68-.46l.46-.16v-3.3l-3,.28a1.93,1.93,0,0,0-1.3.52A1.87,1.87,0,0,0,188.17,163.52Z" transform="translate(0 0)"/>
    <path class="cls-1" d="M201.15,171.12a6.31,6.31,0,0,1-3.35-.65,2.67,2.67,0,0,1-1-2.37,2.25,2.25,0,0,1,.36-1.33,5.75,5.75,0,0,1,1.22-1.15,1.55,1.55,0,0,1-.56-1.38,3.46,3.46,0,0,1,.5-1.26l.18-.32a3,3,0,0,1-1.58-3q0-3.42,3.74-3.42a7.64,7.64,0,0,1,1.78.2l.3.06,3-.08v1.28l-1.9,0a2.72,2.72,0,0,1,.66,2,3.21,3.21,0,0,1-.93,2.63,4.64,4.64,0,0,1-2.93.75,5.89,5.89,0,0,1-1-.08,4.27,4.27,0,0,0-.36,1.14c0,.41.13.67.38.77a9.54,9.54,0,0,0,2.3.15,4.87,4.87,0,0,1,2.76.6,2.72,2.72,0,0,1,.84,2.34Q205.59,171.12,201.15,171.12ZM198.33,168a1.68,1.68,0,0,0,.59,1.47,4.12,4.12,0,0,0,2.18.41,4.46,4.46,0,0,0,2.28-.44,1.61,1.61,0,0,0,.69-1.47c0-.69-.16-1.13-.5-1.33a4.28,4.28,0,0,0-2-.3l-2.16-.1a3.66,3.66,0,0,0-.89.84A1.72,1.72,0,0,0,198.33,168Zm.14-8.34a2.24,2.24,0,0,0,.53,1.68,2.52,2.52,0,0,0,1.75.5,2.48,2.48,0,0,0,1.74-.5,3,3,0,0,0,0-3.38,3.27,3.27,0,0,0-3.49,0A2.28,2.28,0,0,0,198.47,159.64Z" transform="translate(0 0)"/>
    <path class="cls-1" d="M214.37,165.18l.58-.06,0,1.18a29.26,29.26,0,0,1-3.9.32,3.52,3.52,0,0,1-3.06-1.25,6.71,6.71,0,0,1-.9-3.89c0-3.51,1.4-5.26,4.18-5.26a3.82,3.82,0,0,1,3,1.13,5.24,5.24,0,0,1,1,3.55l-.08,1.14h-6.6a4.09,4.09,0,0,0,.6,2.46,2.47,2.47,0,0,0,2.09.8Q212.83,165.3,214.37,165.18Zm-.54-4.34a4.37,4.37,0,0,0-.59-2.6,2.26,2.26,0,0,0-1.92-.76,2.48,2.48,0,0,0-2,.8,4.12,4.12,0,0,0-.69,2.56Z" transform="translate(0 0)"/>
    <path class="cls-1" d="M219.17,166.42h-1.5v-10h1.48v.7a5.69,5.69,0,0,1,2.92-.9,3,3,0,0,1,2.6,1,7.34,7.34,0,0,1,1.71-.71,6.54,6.54,0,0,1,1.85-.31,3,3,0,0,1,2.69,1.07,7.62,7.62,0,0,1,.69,3.85v5.28h-1.5v-5.24a6.83,6.83,0,0,0-.4-2.85,1.74,1.74,0,0,0-1.7-.77,5.06,5.06,0,0,0-1.36.19,6.9,6.9,0,0,0-1.08.37l-.38.18a10.12,10.12,0,0,1,.26,2.92v5.2H224v-5.16a7.35,7.35,0,0,0-.39-2.93,1.74,1.74,0,0,0-1.71-.77,4.66,4.66,0,0,0-1.31.19,6.37,6.37,0,0,0-1,.37l-.34.18Z" transform="translate(0 0)"/>
    <path class="cls-1" d="M241.19,165.18l.58-.06,0,1.18a29.26,29.26,0,0,1-3.9.32,3.52,3.52,0,0,1-3.06-1.25,6.71,6.71,0,0,1-.9-3.89q0-5.26,4.18-5.26a3.84,3.84,0,0,1,3,1.13,5.24,5.24,0,0,1,1,3.55l-.08,1.14h-6.6a4.09,4.09,0,0,0,.6,2.46,2.47,2.47,0,0,0,2.09.8Q239.65,165.3,241.19,165.18Zm-.54-4.34a4.37,4.37,0,0,0-.59-2.6,2.26,2.26,0,0,0-1.92-.76,2.47,2.47,0,0,0-2,.8,4,4,0,0,0-.69,2.56Z" transform="translate(0 0)"/>
    <path class="cls-1" d="M246,166.42h-1.5v-10H246v.7a6.38,6.38,0,0,1,3.1-.9,3,3,0,0,1,2.69,1.08,7.63,7.63,0,0,1,.69,3.84v5.28H251v-5.24a6.79,6.79,0,0,0-.41-2.85,1.81,1.81,0,0,0-1.75-.77,5,5,0,0,0-1.35.19,7.09,7.09,0,0,0-1.09.37l-.38.18Z" transform="translate(0 0)"/>
    <path class="cls-1" d="M260.35,157.72h-3.18v4.78a6.36,6.36,0,0,0,.25,2.26c.17.36.56.54,1.19.54l1.78-.12.1,1.24a13.16,13.16,0,0,1-2,.22,2.6,2.6,0,0,1-2.16-.76,5,5,0,0,1-.6-2.9v-5.26h-1.42v-1.3h1.42v-3.06h1.48v3.06h3.18Z" transform="translate(0 0)"/>
    <path class="cls-1" d="M23.11,178.16v-1.74h1.5v1.74Zm0,12.26v-10h1.5v10Z" transform="translate(0 0)"/>
    <path class="cls-1" d="M29,190.42h-1.5v-10H29v.7a6.41,6.41,0,0,1,3.1-.9,3,3,0,0,1,2.69,1.08,7.63,7.63,0,0,1,.69,3.84v5.28H34v-5.24a6.63,6.63,0,0,0-.41-2.85,1.8,1.8,0,0,0-1.75-.77,5.16,5.16,0,0,0-1.35.19,7.49,7.49,0,0,0-1.09.37l-.38.18Z" transform="translate(0 0)"/>
    <path class="cls-1" d="M42.89,176.58h5a4.73,4.73,0,0,1,3.09.85,3.26,3.26,0,0,1,1,2.67,3.87,3.87,0,0,1-.45,2,3,3,0,0,1-1.33,1.15,3.11,3.11,0,0,1,2.2,3.26,3.62,3.62,0,0,1-1.1,3,4.9,4.9,0,0,1-3.18.9H42.89Zm5,1.36H44.43v4.78H48a2.48,2.48,0,0,0,1.87-.61,2.53,2.53,0,0,0,.59-1.84,2.25,2.25,0,0,0-.63-1.78A2.92,2.92,0,0,0,47.85,177.94Zm.16,6.12H44.43v5h3.68a3.23,3.23,0,0,0,2.07-.57,2.43,2.43,0,0,0,.71-2,2.53,2.53,0,0,0-.29-1.28,1.67,1.67,0,0,0-.77-.74A4.27,4.27,0,0,0,48,184.06Z" transform="translate(0 0)"/>
    <path class="cls-1" d="M61.75,189.18l.58-.06,0,1.18a29.26,29.26,0,0,1-3.9.32,3.52,3.52,0,0,1-3.06-1.25,6.71,6.71,0,0,1-.9-3.89c0-3.51,1.4-5.26,4.18-5.26a3.82,3.82,0,0,1,3,1.13,5.24,5.24,0,0,1,1,3.55L62.63,186H56a4.09,4.09,0,0,0,.6,2.46,2.47,2.47,0,0,0,2.09.8Q60.22,189.3,61.75,189.18Zm-.54-4.34a4.29,4.29,0,0,0-.59-2.6,2.26,2.26,0,0,0-1.92-.76,2.48,2.48,0,0,0-2,.8,4.12,4.12,0,0,0-.69,2.56Z" transform="translate(0 0)"/>
    <path class="cls-1" d="M65.17,190.42V176.06h1.5v14.36Z" transform="translate(0 0)"/>
    <path class="cls-1" d="M73.53,195.12a6.31,6.31,0,0,1-3.35-.65,2.67,2.67,0,0,1-1-2.37,2.25,2.25,0,0,1,.36-1.33,5.75,5.75,0,0,1,1.22-1.15,1.55,1.55,0,0,1-.56-1.38,3.46,3.46,0,0,1,.5-1.26l.18-.32a3,3,0,0,1-1.58-3q0-3.42,3.74-3.42a7.64,7.64,0,0,1,1.78.2l.3.06,3-.08v1.28l-1.9,0a2.72,2.72,0,0,1,.66,2,3.21,3.21,0,0,1-.93,2.63A4.64,4.64,0,0,1,73,187a5.89,5.89,0,0,1-1-.08,4.27,4.27,0,0,0-.36,1.14c0,.41.13.67.38.77a9.54,9.54,0,0,0,2.3.15,4.87,4.87,0,0,1,2.76.6,2.72,2.72,0,0,1,.84,2.34Q78,195.12,73.53,195.12ZM70.71,192a1.68,1.68,0,0,0,.59,1.47,4.14,4.14,0,0,0,2.18.41,4.46,4.46,0,0,0,2.28-.44,1.61,1.61,0,0,0,.69-1.47c0-.69-.16-1.13-.5-1.33a4.25,4.25,0,0,0-2-.3l-2.16-.1a3.66,3.66,0,0,0-.89.84A1.72,1.72,0,0,0,70.71,192Zm.14-8.34a2.24,2.24,0,0,0,.53,1.68,2.54,2.54,0,0,0,1.75.5,2.46,2.46,0,0,0,1.74-.5,3,3,0,0,0,0-3.38,2.46,2.46,0,0,0-1.74-.5,2.49,2.49,0,0,0-1.75.51A2.28,2.28,0,0,0,70.85,183.64Z" transform="translate(0 0)"/>
    <path class="cls-1" d="M80,178.16v-1.74h1.5v1.74Zm0,12.26v-10h1.5v10Z" transform="translate(0 0)"/>
    <path class="cls-1" d="M90.57,180.42h1.5v10h-1.5v-.7a5.71,5.71,0,0,1-3,.9,3,3,0,0,1-2.71-1.06,8.06,8.06,0,0,1-.67-3.92v-5.22h1.5v5.2a7.42,7.42,0,0,0,.38,2.92c.26.49.83.74,1.72.74a4.82,4.82,0,0,0,1.34-.19,6.2,6.2,0,0,0,1-.37l.36-.18Z" transform="translate(0 0)"/>
    <path class="cls-1" d="M96.45,190.42H95v-10h1.48v.7a5.69,5.69,0,0,1,2.92-.9,3,3,0,0,1,2.6,1,7.34,7.34,0,0,1,1.71-.71,6.54,6.54,0,0,1,1.85-.31,3,3,0,0,1,2.69,1.07,7.62,7.62,0,0,1,.69,3.85v5.28h-1.5v-5.24a6.83,6.83,0,0,0-.4-2.85,1.73,1.73,0,0,0-1.7-.77,5.06,5.06,0,0,0-1.36.19,7.73,7.73,0,0,0-1.08.37l-.38.18a9.75,9.75,0,0,1,.26,2.92v5.2h-1.5v-5.16a7.35,7.35,0,0,0-.39-2.93,1.74,1.74,0,0,0-1.71-.77,4.72,4.72,0,0,0-1.31.19,6.75,6.75,0,0,0-1,.37l-.34.18Z" transform="translate(0 0)"/>
  </g>
  <g>
    <path class="cls-2" d="M28.43,93.54V104.4H25.27V76h10.5q4.51,0,6.79,2.09t2.27,6.52q0,6.56-5.21,8.24l5.46,11.52H41.59L36.47,93.54Zm7.38-2.79q5.77,0,5.78-6t-5.82-6H28.43V90.75Z" transform="translate(0 0)"/>
    <path class="cls-2" d="M60.66,104.4H50.53V76H60.66q6.93,0,9.18,5.5a22,22,0,0,1,1.31,8.28q0,10.69-5.33,13.49A11.17,11.17,0,0,1,60.66,104.4Zm7.25-14.59q0-8.16-3.65-10.17a7.26,7.26,0,0,0-3.6-.82h-7v22.8h7Q67.91,101.62,67.91,89.81Z" transform="translate(0 0)"/>
    <path class="cls-2" d="M77,104.4V76h5.7l8,24,8-24h5.7V104.4h-3.15v-25h-.58l-8.24,24H89l-8.25-24h-.57v25Z" transform="translate(0 0)"/>
    <path class="cls-2" d="M131.67,92.72V89.89h7.83v13.94a49.57,49.57,0,0,1-9.23,1q-6.18,0-8.59-3.56t-2.39-11q0-7.44,2.39-11t8.51-3.59a40.81,40.81,0,0,1,7.91.82l1.4.25-.12,2.62a54.28,54.28,0,0,0-8.82-.86q-4.71,0-6.35,2.73c-1.1,1.82-1.64,4.83-1.64,9.06s.54,7.24,1.64,9.06,3.19,2.73,6.31,2.73a31.28,31.28,0,0,0,5.86-.58V92.72Z" transform="translate(0 0)"/>
    <path class="cls-2" d="M158,83.9H161v20.5H158V103a11.73,11.73,0,0,1-6.07,1.84q-4.19,0-5.56-2.17t-1.37-8V83.9H148V94.56q0,4.47.78,6c.51,1,1.69,1.52,3.52,1.52a10.2,10.2,0,0,0,2.75-.39,13,13,0,0,0,2.13-.76l.74-.37Z" transform="translate(0 0)"/>
    <path class="cls-2" d="M166.93,79.27V75.7H170v3.57Zm0,25.13V83.9H170v20.5Z" transform="translate(0 0)"/>
    <path class="cls-2" d="M191.65,75V104.4h-3V103a12.56,12.56,0,0,1-6.24,1.8,8.91,8.91,0,0,1-2.87-.41,5.82,5.82,0,0,1-2.29-1.47Q175,100.71,175,94.75c0-4,.67-6.85,2-8.61s3.52-2.65,6.58-2.65a25.49,25.49,0,0,1,5.05.54V75ZM181,101.78a5.37,5.37,0,0,0,1.91.29,10.21,10.21,0,0,0,2.62-.39,16.66,16.66,0,0,0,2.28-.76l.82-.37V86.65a26.44,26.44,0,0,0-4.88-.49q-3.12,0-4.35,2t-1.23,6.17q0,4.75,1.44,6.39A3.48,3.48,0,0,0,181,101.78Z" transform="translate(0 0)"/>
    <path class="cls-2" d="M211.53,101.86l1.19-.12.09,2.42a60.11,60.11,0,0,1-8,.65q-4.42,0-6.27-2.56t-1.85-8q0-10.78,8.57-10.79c2.76,0,4.83.78,6.19,2.32s2.05,4,2.05,7.28l-.16,2.33H199.81a8.44,8.44,0,0,0,1.23,5c.82,1.09,2.25,1.64,4.28,1.64S209.43,102,211.53,101.86Zm-1.1-8.9c0-2.51-.41-4.29-1.21-5.33a4.71,4.71,0,0,0-3.94-1.55,5,5,0,0,0-4.1,1.64c-.91,1.09-1.39,2.84-1.41,5.24Z" transform="translate(0 0)"/>
  </g>
  <g>
    <path class="cls-3" d="M386.38,266.58c8.94,0,15.54-3,17.3-6.27H369.09C370.85,263.54,377.45,266.58,386.38,266.58Z" transform="translate(0 0)"/>
    <path class="cls-3" d="M96.09,261.24,84.92,289.08h1.5a98.1,98.1,0,0,0,17.63-8.19C101.89,273.9,99.59,267.17,96.09,261.24Z" transform="translate(0 0)"/>
    <path class="cls-3" d="M242.67,64.46h0l.1,0Z" transform="translate(0 0)"/>
    <polygon class="cls-3" points="412.23 243.19 412.23 235.83 361.35 239.37 361.35 246.73 412.23 243.19"/>
    <path class="cls-3" d="M412.23,232.48v-4.93a22,22,0,0,1,.14-2.44l-51,3.55V236Z" transform="translate(0 0)"/>
    <path class="cls-3" d="M339.22,150.06s0,.05-.06.07,0,0,.06-.07Z" transform="translate(0 0)"/>
    <path class="cls-3" d="M84.56,248.63,68.34,289.08H79.25L92.5,256A37.3,37.3,0,0,0,84.56,248.63Z" transform="translate(0 0)"/>
    <path class="cls-3" d="M419.25,121.48v-25l-23.31,15.63A56.21,56.21,0,0,1,419.25,121.48Z" transform="translate(0 0)"/>
    <path class="cls-3" d="M415.56,246.31v12.33a1.67,1.67,0,0,1-1.67,1.67h-6.64c-1.48,5.51-10.1,9.62-20.87,9.62s-19.38-4.11-20.86-9.62h-5.83a1.67,1.67,0,0,1-1.67-1.67v-8.32l-4.67.32h-.12a1.68,1.68,0,0,1-.11-3.35L358,247v-7.35l-4.67.32h-.12a1.67,1.67,0,0,1-.11-3.34l4.9-.34V228.9l-4.67.32h-.12a1.67,1.67,0,0,1-.11-3.34l4.78-.33a17.73,17.73,0,0,0-6.65-11.83A57.46,57.46,0,0,1,330,162.47a55.61,55.61,0,0,1,3.71-14.88l-83.4-47a8,8,0,0,1-.85-.58c-.28-.23-.56-.49-.84-.77s-.56-.59-.83-.91-.54-.68-.8-1-.52-.75-.77-1.15-.5-.81-.74-1.23-.48-.87-.71-1.32-.46-.92-.68-1.39c-.45-1-.87-2-1.28-3S242,87.12,241.62,86s-.68-2.24-1-3.39-.58-2.32-.81-3.5c-.17-.88-.32-1.73-.44-2.56s-.22-1.62-.29-2.38S239,72.69,239,72s0-1.35,0-2a17.27,17.27,0,0,1,.17-1.72,10.59,10.59,0,0,1,.32-1.46,6.33,6.33,0,0,1,.49-1.17,3.47,3.47,0,0,1,.65-.83,1.93,1.93,0,0,1,.49-.31l-.09,0L357.82,2.71a3.57,3.57,0,0,1,.57-.23,3.88,3.88,0,0,1,.61-.1,3.77,3.77,0,0,1,.66,0,4,4,0,0,1,.71.19L419.25,24.5V0H0V203.1a47.43,47.43,0,0,1,13.61,10.77l.29.11-.06.15c7,8.14,10.75,17.93,13.77,27.47,14.68-8,31.34-15.21,52.3-6.8S108,259.89,113,275.86c14.69-8.05,31.35-15.21,52.31-6.8a5,5,0,0,1-3.75,9.35c-.92-.37-1.82-.69-2.71-1l-4.67,11.65H419.25v-43Z" transform="translate(0 0)"/>
    <polygon class="cls-3" points="245.79 66.01 243.34 64.74 245.79 66.01 245.79 66.01"/>
    <path class="cls-3" d="M241.5,64.39l-.21.08a2.23,2.23,0,0,1,.39-.09Z" transform="translate(0 0)"/>
    <path class="cls-3" d="M242.06,64.35h0Z" transform="translate(0 0)"/>
    <path class="cls-3" d="M339.36,149.6a.64.64,0,0,1,0,.2.64.64,0,0,0,0-.2Z" transform="translate(0 0)"/>
    <path class="cls-3" d="M339.32,149.86a.45.45,0,0,1-.06.12.45.45,0,0,0,.06-.12Z" transform="translate(0 0)"/>
    <path class="cls-3" d="M116,285.69c.35,1.14.71,2.27,1.07,3.39H133l5.13-12.79C130.48,278,123.3,281.63,116,285.69Z" transform="translate(0 0)"/>
    <path class="cls-3" d="M339.16,148.6a2.3,2.3,0,0,1,.19.69,1,1,0,0,1,0,.29,1,1,0,0,0,0-.29A2.3,2.3,0,0,0,339.16,148.6Z" transform="translate(0 0)"/>
    <path class="cls-3" d="M144.16,275.45l-5.47,13.63h9.82l5.21-13A37.72,37.72,0,0,0,144.16,275.45Z" transform="translate(0 0)"/>
    <path class="cls-3" d="M76.16,244.15a44.22,44.22,0,0,0-5.65-1.85L53.14,285.6a44.42,44.42,0,0,0,5.36,2.57c.84.34,1.67.63,2.49.91h1.67L80,245.89C78.77,245.27,77.51,244.69,76.16,244.15Z" transform="translate(0 0)"/>
    <path class="cls-3" d="M415.56,227.55v4.69l3.69-.25v-7.36l-3.48.25A18,18,0,0,0,415.56,227.55Z" transform="translate(0 0)"/>
    <path class="cls-3" d="M9.47,225,0,248.63v6.5c6.38-1.89,12.47-5.06,18.64-8.5C16.24,238.86,13.67,231.42,9.47,225Z" transform="translate(0 0)"/>
    <path class="cls-3" d="M0,215v19.51l5.74-14.3A37.84,37.84,0,0,0,0,215Z" transform="translate(0 0)"/>
    <path class="cls-3" d="M413.42,203.49q-2,1.32-4.06,2.44c-1.39.75-2.82,1.42-4.27,2a47.37,47.37,0,0,1-4.46,1.6c-1.51.46-3,.85-4.58,1.16s-3.11.54-4.68.69a46.63,46.63,0,0,1-9.45,0c-1.57-.15-3.13-.39-4.68-.69s-3.07-.7-4.58-1.16a46.2,46.2,0,0,1-4.45-1.6c-1.46-.61-2.89-1.28-4.28-2s-2.74-1.56-4.06-2.44a47.23,47.23,0,0,1-3.79-2.83q-1.83-1.51-3.51-3.19T349.4,194c-1-1.22-1.94-2.5-2.82-3.81a46.66,46.66,0,0,1-2.43-4.08c-.74-1.4-1.42-2.83-2-4.29s-1.14-3-1.6-4.47-.84-3.06-1.14-4.61-.54-3.12-.7-4.7-.23-3.16-.23-4.74.08-3.17.23-4.75.39-3.14.7-4.69a46.9,46.9,0,0,1,1.13-4.57l-1.44,1h0a.64.64,0,0,1-.4.09,1.24,1.24,0,0,1-.53-.18l-1.55-.88a52.1,52.1,0,0,0-3.33,13.59,54.16,54.16,0,0,0,20.06,48.27,21.06,21.06,0,0,1,7.9,14.22l51.83-3.61a21,21,0,0,1,6.19-9.77V198.87c-.66.62-1.34,1.22-2,1.79A47.23,47.23,0,0,1,413.42,203.49Z" transform="translate(0 0)"/>
    <path class="cls-3" d="M48.65,282.63l16.56-41.29a38.07,38.07,0,0,0-11.07.42L40.93,274.68A37.91,37.91,0,0,0,48.65,282.63Z" transform="translate(0 0)"/>
    <path class="cls-3" d="M419.25,221.28v-4.46a17.66,17.66,0,0,0-2.59,4.64Z" transform="translate(0 0)"/>
    <path class="cls-3" d="M391.43,115.09q2.32.24,4.62.69c1.54.31,3.07.69,4.58,1.15s3,1,4.46,1.6,2.88,1.29,4.27,2,2.74,1.57,4.06,2.45a47.23,47.23,0,0,1,3.79,2.83c.7.57,1.38,1.17,2,1.78v-2a53,53,0,0,0-27.55-10.7Z" transform="translate(0 0)"/>
    <polygon class="cls-3" points="366.94 256.96 405.83 256.96 412.23 256.96 412.23 246.54 361.35 250.08 361.35 256.96 366.94 256.96"/>
    <path class="cls-3" d="M21.65,256.46c-6.73,3.69-13.87,7.18-21.65,9.08v23.54H40.59C30.12,280.16,25.34,268.12,21.65,256.46Z" transform="translate(0 0)"/>
    <polygon class="cls-3" points="415.56 242.95 419.25 242.7 419.25 235.34 415.56 235.6 415.56 242.95"/>
    <path class="cls-3" d="M47.8,243.38a101.32,101.32,0,0,0-17.18,8.05,100.06,100.06,0,0,0,6.86,17.7Z" transform="translate(0 0)"/>
    <path class="cls-2" d="M251.49,96a4.7,4.7,0,0,1-.43-.38c-.14-.14-.29-.31-.45-.5s-.32-.4-.49-.64a13.63,13.63,0,0,1-.8-1.22c-.27-.45-.55-1-.83-1.5s-.55-1.13-.83-1.74-.55-1.28-.81-2-.52-1.39-.77-2.12-.48-1.48-.7-2.25-.43-1.55-.62-2.34-.37-1.6-.53-2.41c-.21-1.08-.37-2.11-.49-3.09s-.2-1.9-.24-2.76a23.37,23.37,0,0,1,0-2.37,12.25,12.25,0,0,1,.24-1.91,6.67,6.67,0,0,1,.19-.77.69.69,0,0,0,0-.13h0a1.66,1.66,0,0,0-.38-.15,1.61,1.61,0,0,0-.37,0,1.4,1.4,0,0,0-.34.08,1.36,1.36,0,0,0-.34.21,2.15,2.15,0,0,0-.31.35,3.17,3.17,0,0,0-.28.49c-.08.19-.16.39-.24.63s-.13.48-.19.76a12.44,12.44,0,0,0-.22,1.9,23.18,23.18,0,0,0,0,2.36c0,.86.12,1.77.25,2.75s.29,2,.5,3.08c.16.8.33,1.6.53,2.39s.4,1.58.62,2.34.46,1.52.71,2.24.5,1.44.77,2.12.53,1.33.81,1.94.55,1.2.83,1.74.56,1,.83,1.5.53.86.79,1.21.33.45.49.64.31.36.45.5.29.27.42.38a3.48,3.48,0,0,0,.39.27l85,47.57c.35-.77.72-1.53,1.1-2.28L251.88,96.29A2.28,2.28,0,0,1,251.49,96Z" transform="translate(0 0)"/>
    <path class="cls-2" d="M381.92,115.08c1.57-.15,3.15-.23,4.73-.23s3.15.08,4.72.23h.06l.27-.18a55.35,55.35,0,0,0-8.74-.09c-.35,0-.7.07-1,.1l-.31.2Z" transform="translate(0 0)"/>
    <polygon class="cls-2" points="339.08 150.21 339.08 150.2 339.08 150.21 339.08 150.21"/>
    <path class="cls-2" d="M338.31,147.31a4.13,4.13,0,0,1,.49.6,3.78,3.78,0,0,1,.36.69,2.3,2.3,0,0,1,.19.69,1,1,0,0,1,0,.29s0,0,0,0h0a.64.64,0,0,1,0,.2.13.13,0,0,1,0,.06h0a.45.45,0,0,1-.06.12.2.2,0,0,1,0,.08h0s0,.05-.06.07l-.08.07,1.44-1v0a46.57,46.57,0,0,1,1.6-4.47c.6-1.47,1.28-2.9,2-4.3.12-.23.26-.46.39-.69l-5.09,3.38c-.65,1.2-1.27,2.43-1.83,3.69l.12.07A2.84,2.84,0,0,1,338.31,147.31Z" transform="translate(0 0)"/>
    <path class="cls-2" d="M395.94,112.07l23.31-15.63V90.11l-32,21.25A58.06,58.06,0,0,1,395.94,112.07Z" transform="translate(0 0)"/>
    <path class="cls-4" d="M243.93,68.06a6.67,6.67,0,0,0-.19.77,12.25,12.25,0,0,0-.24,1.91,23.37,23.37,0,0,0,0,2.37c0,.86.11,1.78.24,2.76s.28,2,.49,3.09c.16.81.33,1.61.53,2.41s.4,1.57.62,2.34.46,1.52.7,2.25.51,1.44.77,2.12.54,1.34.81,2,.56,1.2.83,1.74.56,1,.83,1.5a13.63,13.63,0,0,0,.8,1.22c.17.24.33.45.49.64s.31.36.45.5a4.7,4.7,0,0,0,.43.38,2.28,2.28,0,0,0,.39.27L335.8,142.9c.25-.49.51-1,.77-1.45-.14-.28-.27-.57-.4-.86-.48-1.06-.92-2.17-1.33-3.32s-.79-2.33-1.13-3.55-.64-2.45-.9-3.71-.47-2.53-.63-3.8c-.12-1-.21-1.88-.27-2.78s-.08-1.75-.08-2.57,0-1.6.1-2.35a20.75,20.75,0,0,1,.28-2.09c.09-.48.19-.92.3-1.35.08-.26.17-.49.25-.73L244,67.93A.69.69,0,0,1,243.93,68.06Z" transform="translate(0 0)"/>
    <path class="cls-2" d="M333.29,111.41a2.51,2.51,0,0,1,.58.42,2.51,2.51,0,0,0-.58-.42L245.79,66h0Z" transform="translate(0 0)"/>
    <path class="cls-5" d="M334.91,114.52v0a.3.3,0,0,1,0,.1S334.9,114.55,334.91,114.52Z" transform="translate(0 0)"/>
    <path class="cls-5" d="M334.8,114.75a0,0,0,0,1,0,0,.23.23,0,0,1-.07.07Z" transform="translate(0 0)"/>
    <path class="cls-5" d="M346.58,136.36q1.32-2,2.82-3.82t3.17-3.51a45.91,45.91,0,0,1,3.51-3.19,47.23,47.23,0,0,1,3.79-2.83q2-1.32,4.06-2.45t4.28-2c1.45-.6,2.94-1.14,4.45-1.6s3-.84,4.58-1.15,2.9-.5,4.36-.66l.31-.2a54.36,54.36,0,0,0-42.46,28.2l5.09-3.38C345.18,138.59,345.85,137.46,346.58,136.36Z" transform="translate(0 0)"/>
    <path class="cls-5" d="M334.65,114.89a.66.66,0,0,1-.38.11,1.1,1.1,0,0,1-.54-.16l-1-.5c-.08.24-.17.47-.25.73-.11.43-.21.87-.3,1.35a20.75,20.75,0,0,0-.28,2.09c-.06.75-.1,1.53-.1,2.35s0,1.68.08,2.57.15,1.82.27,2.78c.16,1.27.37,2.55.63,3.8s.56,2.5.9,3.71.71,2.4,1.13,3.55.85,2.26,1.33,3.32c.13.29.26.58.4.86,9.16-16.75,26.47-28.6,46.16-30,1.52-.11,3-.13,4.54-.12l32-21.25V61.46l-84.62,53.45Z" transform="translate(0 0)"/>
    <path class="cls-5" d="M335,114.23h0s0,.07,0,.1S335,114.26,335,114.23Z" transform="translate(0 0)"/>
    <path class="cls-2" d="M359.66,2.42a3.77,3.77,0,0,0-.66,0,3.88,3.88,0,0,0-.61.1,3.57,3.57,0,0,0-.57.23L241,64.57l.09,0s0,0,.06,0a.61.61,0,0,0,.13,0l.21-.08h.18l.12,0h.29l.44.06.1,0h0l.06,0a3.42,3.42,0,0,1,.61.25L245.79,66l87.5,45.4a2.51,2.51,0,0,1,.58.42,3.91,3.91,0,0,1,.89,1.32,3.28,3.28,0,0,1,.19.73,1.3,1.3,0,0,1,0,.34h0s0,.06,0,.09a.86.86,0,0,1,0,.17h0v0s0,0,0,.08l-.06.13a0,0,0,0,0,0,0l-.06,0-.06.07,0,0,0,0,84.62-53.45v-37L360.37,2.61A4,4,0,0,0,359.66,2.42Z" transform="translate(0 0)"/>
    <path class="cls-2" d="M338.68,150.3a.64.64,0,0,0,.4-.09h0l.08-.07s0,0,.06-.07a.2.2,0,0,0,0-.08.45.45,0,0,0,.06-.12h0a.13.13,0,0,0,0-.06.64.64,0,0,0,0-.2s0,0,0,0a1,1,0,0,0,0-.29,2.3,2.3,0,0,0-.19-.69,3.78,3.78,0,0,0-.36-.69,4.13,4.13,0,0,0-.49-.6,2.84,2.84,0,0,0-.57-.43l-.12-.07q-.54,1.2-1,2.43l1.55.88A1.24,1.24,0,0,0,338.68,150.3Z" transform="translate(0 0)"/>
    <path class="cls-2" d="M334.7,145.18l-85-47.57a3.48,3.48,0,0,1-.39-.27c-.13-.11-.27-.23-.42-.38s-.29-.31-.45-.5-.32-.4-.49-.64-.52-.76-.79-1.21-.55-1-.83-1.5-.56-1.12-.83-1.74-.55-1.26-.81-1.94-.52-1.39-.77-2.12-.48-1.47-.71-2.24-.43-1.54-.62-2.34-.37-1.59-.53-2.39c-.21-1.08-.38-2.11-.5-3.08s-.21-1.89-.25-2.75a23.18,23.18,0,0,1,0-2.36,12.44,12.44,0,0,1,.22-1.9c.06-.28.12-.53.19-.76s.16-.44.24-.63a3.17,3.17,0,0,1,.28-.49,2.15,2.15,0,0,1,.31-.35,1.36,1.36,0,0,1,.34-.21,1.4,1.4,0,0,1,.34-.08,1.61,1.61,0,0,1,.37,0,1.66,1.66,0,0,1,.38.15h0l88.78,46.41,1,.5a1.1,1.1,0,0,0,.54.16.66.66,0,0,0,.38-.11l0,0,.06-.07a.23.23,0,0,0,.07-.07l.06-.13a.3.3,0,0,0,0-.1h0a.86.86,0,0,0,0-.17s0-.06,0-.1a1.3,1.3,0,0,0,0-.34,3.28,3.28,0,0,0-.19-.73,3.91,3.91,0,0,0-.89-1.32,2.51,2.51,0,0,0-.58-.42L245.79,66l-2.45-1.27a3.42,3.42,0,0,0-.61-.25l-.1,0-.1,0-.44-.06h-.29l-.12,0a2.23,2.23,0,0,0-.39.09.61.61,0,0,1-.13,0s0,0-.06,0a1.93,1.93,0,0,0-.49.31,3.47,3.47,0,0,0-.65.83,6.33,6.33,0,0,0-.49,1.17,10.59,10.59,0,0,0-.32,1.46A17.27,17.27,0,0,0,239,70c0,.62,0,1.28,0,2s.06,1.42.13,2.19.17,1.56.29,2.38.27,1.68.44,2.56c.23,1.18.5,2.35.81,3.5s.63,2.28,1,3.39.75,2.18,1.15,3.22.83,2,1.28,3c.22.47.45.94.68,1.39s.47.89.71,1.32.49.84.74,1.23.51.78.77,1.15.53.71.8,1,.55.63.83.91.56.54.84.77a8,8,0,0,0,.85.58l83.4,47C334,146.78,334.34,146,334.7,145.18Z" transform="translate(0 0)"/>
    <path class="cls-1" d="M5.74,220.17,0,234.47v14.16L9.47,225A42.36,42.36,0,0,0,5.74,220.17Z" transform="translate(0 0)"/>
    <path class="cls-1" d="M13.9,214l-.29-.11c.08.09.15.18.23.26Z" transform="translate(0 0)"/>
    <path class="cls-1" d="M138.14,276.29,133,289.08h5.68l5.47-13.63A41.54,41.54,0,0,0,138.14,276.29Z" transform="translate(0 0)"/>
    <path class="cls-1" d="M153.72,276.07l-5.21,13h5.68l4.67-11.65A42.14,42.14,0,0,0,153.72,276.07Z" transform="translate(0 0)"/>
    <path class="cls-1" d="M40.93,274.68l13.21-32.92a47.9,47.9,0,0,0-6.34,1.62L37.48,269.13A48,48,0,0,0,40.93,274.68Z" transform="translate(0 0)"/>
    <path class="cls-1" d="M53.14,285.6l17.37-43.3a39.77,39.77,0,0,0-5.3-1L48.65,282.63A38.8,38.8,0,0,0,53.14,285.6Z" transform="translate(0 0)"/>
    <path class="cls-1" d="M80,245.89,62.66,289.08h5.68l16.22-40.45A39,39,0,0,0,80,245.89Z" transform="translate(0 0)"/>
    <path class="cls-1" d="M92.5,256,79.25,289.08h5.67l11.17-27.84A43,43,0,0,0,92.5,256Z" transform="translate(0 0)"/>
    <path class="cls-1" d="M116,285.69c7.28-4.06,14.46-7.74,22.12-9.4a41.54,41.54,0,0,1,6-.84,37.72,37.72,0,0,1,9.56.62,42.14,42.14,0,0,1,5.14,1.36c.89.29,1.79.61,2.71,1a5,5,0,0,0,3.75-9.35c-21-8.41-37.62-1.25-52.31,6.8.64,2,1.24,4,1.84,6C115.24,283.13,115.63,284.41,116,285.69Z" transform="translate(0 0)"/>
    <path class="cls-1" d="M104.05,280.89a98.1,98.1,0,0,1-17.63,8.19h20.12c-.45-1.46-.89-2.9-1.32-4.33S104.44,282.17,104.05,280.89Z" transform="translate(0 0)"/>
    <path class="cls-1" d="M53.14,285.6a38.8,38.8,0,0,1-4.49-3,37.91,37.91,0,0,1-7.72-7.95,48,48,0,0,1-3.45-5.55,100.06,100.06,0,0,1-6.86-17.7l-3.51,2c-1.79,1-3.61,2-5.46,3,3.69,11.66,8.47,23.7,18.94,32.62H61c-.82-.28-1.65-.57-2.49-.91A44.42,44.42,0,0,1,53.14,285.6Z" transform="translate(0 0)"/>
    <path class="cls-1" d="M5.74,220.17A42.36,42.36,0,0,1,9.47,225c4.2,6.39,6.77,13.83,9.17,21.6l3.52-2c1.78-1,3.6-2,5.45-3.05-3-9.54-6.77-19.33-13.77-27.47-.08-.08-.15-.17-.23-.26A47.43,47.43,0,0,0,0,203.1V215A37.84,37.84,0,0,1,5.74,220.17Z" transform="translate(0 0)"/>
    <path class="cls-2" d="M114.85,281.83c-.6-2-1.2-4-1.84-6-5-16-12.14-32.66-33.1-41.06s-37.62-1.25-52.3,6.8c-1.85,1-3.67,2-5.45,3.05l-3.52,2c-6.17,3.44-12.26,6.61-18.64,8.5v10.41c7.78-1.9,14.92-5.39,21.65-9.08,1.85-1,3.67-2,5.46-3l3.51-2a101.32,101.32,0,0,1,17.18-8.05,47.9,47.9,0,0,1,6.34-1.62,38.07,38.07,0,0,1,11.07-.42,39.77,39.77,0,0,1,5.3,1,44.22,44.22,0,0,1,5.65,1.85c1.35.54,2.61,1.12,3.82,1.74a39,39,0,0,1,4.58,2.74A37.3,37.3,0,0,1,92.5,256a43,43,0,0,1,3.59,5.21c3.5,5.93,5.8,12.66,8,19.65.39,1.28.78,2.56,1.17,3.86s.87,2.87,1.32,4.33h10.55c-.36-1.12-.72-2.25-1.07-3.39S115.24,283.13,114.85,281.83Z" transform="translate(0 0)"/>
    <path class="cls-5" d="M410.76,168.54a2,2,0,0,0,4,0A2,2,0,0,0,410.76,168.54Z" transform="translate(0 0)"/>
    <path class="cls-5" d="M413.42,123q-2-1.32-4.06-2.45c-1.39-.74-2.82-1.42-4.27-2s-2.95-1.14-4.46-1.6-3-.84-4.58-1.15-3.07-.53-4.62-.69h-.06c-1.57-.15-3.15-.23-4.72-.23s-3.16.08-4.73.23l-.32,0c-1.46.16-2.91.37-4.36.66s-3.07.69-4.58,1.15-3,1-4.45,1.6-2.89,1.29-4.28,2-2.74,1.57-4.06,2.45a47.23,47.23,0,0,0-3.79,2.83,45.91,45.91,0,0,0-3.51,3.19q-1.67,1.68-3.17,3.51t-2.82,3.82c-.73,1.1-1.4,2.23-2,3.38-.13.23-.27.46-.39.69-.74,1.4-1.42,2.83-2,4.3a46.57,46.57,0,0,0-1.6,4.47v0a46.9,46.9,0,0,0-1.13,4.57c-.31,1.55-.54,3.12-.7,4.69s-.23,3.16-.23,4.75.08,3.16.23,4.74.39,3.15.7,4.7.69,3.09,1.14,4.61,1,3,1.6,4.47,1.28,2.89,2,4.29a46.66,46.66,0,0,0,2.43,4.08c.88,1.31,1.82,2.59,2.82,3.81s2.06,2.4,3.17,3.52,2.29,2.18,3.51,3.19a47.23,47.23,0,0,0,3.79,2.83q2,1.32,4.06,2.44c1.39.75,2.82,1.42,4.28,2a46.2,46.2,0,0,0,4.45,1.6c1.51.46,3,.85,4.58,1.16s3.11.54,4.68.69a46.63,46.63,0,0,0,9.45,0c1.57-.15,3.13-.39,4.68-.69s3.07-.7,4.58-1.16a47.37,47.37,0,0,0,4.46-1.6c1.45-.61,2.88-1.28,4.27-2s2.74-1.56,4.06-2.44a47.23,47.23,0,0,0,3.79-2.83c.7-.57,1.38-1.17,2-1.79V127.62c-.66-.61-1.34-1.21-2-1.78A47.23,47.23,0,0,0,413.42,123Zm-3.34,49.61a1.29,1.29,0,0,0-1.35-.05l-15.15,8.64a1.3,1.3,0,0,1-1.37,0c-4.28-2.77-8.67-5.35-13.1-7.87a1.32,1.32,0,0,0-2,1.12c0,.37,0,.73,0,1.09a1.32,1.32,0,0,0,.68,1.18c4.57,2.53,9.11,5.06,13.7,7.59a1.32,1.32,0,0,0,1.38-.06,4.88,4.88,0,1,1,2.76,8.89,4.92,4.92,0,0,1-4.88-5.05,1.32,1.32,0,0,0-.67-1.22l-15.24-8.45a1.32,1.32,0,0,1-.68-1.18c.13-5.22.16-10.45.15-15.68a1.32,1.32,0,0,0-1.94-1.16l-.6.32a1.3,1.3,0,0,0-.69,1.17q0,7.88.11,15.75a1.34,1.34,0,0,0,.75,1.19,4.87,4.87,0,1,1-4.41,0,1.33,1.33,0,0,0,.74-1.19c0-5.86-.08-11.66-.12-17.49a1.32,1.32,0,0,1,.7-1.18c4.47-2.36,9-4.92,13.44-7.47a1.31,1.31,0,0,0,.05-2.25l-.61-.39a1.31,1.31,0,0,0-1.36,0l-13.59,7.76a1.32,1.32,0,0,0-.67,1.19,4.88,4.88,0,1,1-4.87-4.77,4.84,4.84,0,0,1,2.82.91,1.31,1.31,0,0,0,1.4.06l15-8.56a1.3,1.3,0,0,1,1.33,0l13.05,7.71a1.32,1.32,0,0,0,2-1.1l0-.88a1.3,1.3,0,0,0-.68-1.2l-13.76-7.63a1.32,1.32,0,0,0-1.37,0,4.8,4.8,0,0,1-2.65.79,4.88,4.88,0,1,1,4.87-4.57,1.27,1.27,0,0,0,.66,1.23l15.21,8.43a1.33,1.33,0,0,1,.68,1.19c-.13,5.19-.15,10.46-.14,15.67a1.32,1.32,0,0,0,1.94,1.16l.6-.32a1.3,1.3,0,0,0,.69-1.17c0-5.06-.07-10.53-.11-15.64a1.32,1.32,0,0,0-.74-1.18,4.87,4.87,0,1,1,4.4,0,1.32,1.32,0,0,0-.74,1.19c0,5.81.09,11.53.12,17.36a1.33,1.33,0,0,1-.7,1.17c-4.87,2.57-8.93,4.88-13.43,7.46a1.32,1.32,0,0,0-.06,2.26l.61.39a1.32,1.32,0,0,0,1.37,0l13.57-7.74a1.34,1.34,0,0,0,.66-1.24,4.87,4.87,0,1,1,2.2,3.79Z" transform="translate(0 0)"/>
    <path class="cls-5" d="M396.78,168.13v-9.64a1.3,1.3,0,0,0-.67-1.14l-8.45-4.84a1.33,1.33,0,0,0-1.31,0l-8.44,4.84a1.32,1.32,0,0,0-.67,1.14v9.64a1.32,1.32,0,0,0,.67,1.14l1.57.9,6.87,3.93a1.31,1.31,0,0,0,1.31,0l8.45-4.84A1.32,1.32,0,0,0,396.78,168.13Z" transform="translate(0 0)"/>
    <path class="cls-5" d="M359.26,157.86a2,2,0,1,0,4,0A2,2,0,0,0,359.26,157.86Z" transform="translate(0 0)"/>
    <path class="cls-5" d="M406.28,143.6a2,2,0,1,0-4,0A2,2,0,0,0,406.28,143.6Z" transform="translate(0 0)"/>
    <path class="cls-5" d="M376.43,138.26a2,2,0,1,0,4,0A2,2,0,0,0,376.43,138.26Z" transform="translate(0 0)"/>
    <path class="cls-5" d="M367.77,183.15a2,2,0,0,0,4,0A2,2,0,0,0,367.77,183.15Z" transform="translate(0 0)"/>
    <path class="cls-5" d="M397.63,188.23a2,2,0,0,0-4,0A2,2,0,0,0,397.63,188.23Z" transform="translate(0 0)"/>
    <polygon class="cls-1" points="361.35 228.66 358.02 228.9 358.02 236.25 361.35 236.02 361.35 228.66"/>
    <path class="cls-1" d="M368.61,258.64a3.57,3.57,0,0,0,.48,1.67h34.59a3.57,3.57,0,0,0,.48-1.67,1.68,1.68,0,0,1,1.67-1.68H366.94A1.68,1.68,0,0,1,368.61,258.64Z" transform="translate(0 0)"/>
    <path class="cls-1" d="M366.94,257h-5.59v-6.88l-3.33.24v8.32a1.67,1.67,0,0,0,1.67,1.67h5.83a6.25,6.25,0,0,1-.25-1.67A1.68,1.68,0,0,1,366.94,257Z" transform="translate(0 0)"/>
    <path class="cls-1" d="M412.23,232.48l3.33-.24v-4.69a18,18,0,0,1,.21-2.67l-3.4.23a22,22,0,0,0-.14,2.44Z" transform="translate(0 0)"/>
    <path class="cls-1" d="M413.06,221.71l3.6-.25a17.66,17.66,0,0,1,2.59-4.64v-4.88A21,21,0,0,0,413.06,221.71Z" transform="translate(0 0)"/>
    <polygon class="cls-1" points="361.35 239.37 358.02 239.61 358.02 246.96 361.35 246.73 361.35 239.37"/>
    <path class="cls-1" d="M412.23,257h-6.4a1.68,1.68,0,0,1,1.67,1.68,6.25,6.25,0,0,1-.25,1.67h6.64a1.67,1.67,0,0,0,1.67-1.67V246.31l-3.33.23Z" transform="translate(0 0)"/>
    <polygon class="cls-1" points="415.56 242.95 415.56 235.6 412.23 235.83 412.23 243.19 415.56 242.95"/>
    <path class="cls-1" d="M387.27,111.36c-1.51,0-3,0-4.54.12-19.69,1.37-37,13.22-46.16,30-.26.48-.52,1-.77,1.45-.38.75-.75,1.51-1.1,2.28s-.71,1.6-1,2.41A55.61,55.61,0,0,0,330,162.47a57.46,57.46,0,0,0,21.29,51.25,17.73,17.73,0,0,1,6.65,11.83l3.33-.23a21.06,21.06,0,0,0-7.9-14.22,54.16,54.16,0,0,1-20.06-48.27,52.1,52.1,0,0,1,3.33-13.59q.48-1.23,1-2.43c.56-1.26,1.18-2.49,1.83-3.69a54.36,54.36,0,0,1,42.46-28.2c.35,0,.7-.08,1-.1a55.35,55.35,0,0,1,8.74.09,53,53,0,0,1,27.55,10.7v-4.13a56.21,56.21,0,0,0-23.31-9.41A58.06,58.06,0,0,0,387.27,111.36Z" transform="translate(0 0)"/>
    <path class="cls-1" d="M405.83,257a1.68,1.68,0,0,0-1.67,1.68,3.57,3.57,0,0,1-.48,1.67c-1.76,3.23-8.36,6.27-17.3,6.27s-15.53-3-17.29-6.27a3.57,3.57,0,0,1-.48-1.67,1.67,1.67,0,1,0-3.34,0,6.25,6.25,0,0,0,.25,1.67c1.48,5.51,10.1,9.62,20.86,9.62s19.39-4.11,20.87-9.62a6.25,6.25,0,0,0,.25-1.67A1.68,1.68,0,0,0,405.83,257Z" transform="translate(0 0)"/>
    <path class="cls-1" d="M413.06,221.71l-51.83,3.61-3.33.23-4.78.33a1.67,1.67,0,0,0,.11,3.34h.12l4.67-.32,3.33-.24,51-3.55,3.4-.23,3.48-.25v-3.35l-2.59.18Z" transform="translate(0 0)"/>
    <path class="cls-1" d="M412.23,232.48,361.35,236l-3.33.23-4.9.34a1.67,1.67,0,0,0,.11,3.34h.12l4.67-.32,3.33-.24,50.88-3.54,3.33-.23,3.69-.26V232l-3.69.25Z" transform="translate(0 0)"/>
    <path class="cls-1" d="M412.23,243.19l-50.88,3.54L358,247l-4.9.34a1.68,1.68,0,0,0,.11,3.35h.12l4.67-.32,3.33-.24,50.88-3.54,3.33-.23,3.69-.26V242.7l-3.69.25Z" transform="translate(0 0)"/>
    <path class="cls-6" d="M412.75,163.66a4.91,4.91,0,0,0-4.87,5.17,1.34,1.34,0,0,1-.66,1.24l-13.57,7.74a1.32,1.32,0,0,1-1.37,0l-.61-.39a1.32,1.32,0,0,1,.06-2.26c4.5-2.58,8.56-4.89,13.43-7.46a1.33,1.33,0,0,0,.7-1.17c0-5.83-.08-11.55-.12-17.36a1.32,1.32,0,0,1,.74-1.19,4.87,4.87,0,1,0-4.4,0,1.32,1.32,0,0,1,.74,1.18c0,5.11.08,10.58.11,15.64a1.3,1.3,0,0,1-.69,1.17l-.6.32a1.32,1.32,0,0,1-1.94-1.16c0-5.21,0-10.48.14-15.67a1.33,1.33,0,0,0-.68-1.19L384,139.8a1.27,1.27,0,0,1-.66-1.23,4.88,4.88,0,1,0-4.87,4.57,4.8,4.8,0,0,0,2.65-.79,1.32,1.32,0,0,1,1.37,0l13.76,7.63a1.3,1.3,0,0,1,.68,1.2l0,.88a1.32,1.32,0,0,1-2,1.1l-13.05-7.71a1.3,1.3,0,0,0-1.33,0l-15,8.56a1.31,1.31,0,0,1-1.4-.06,4.88,4.88,0,1,0-2.82,8.84,4.9,4.9,0,0,0,4.87-5,1.32,1.32,0,0,1,.67-1.19l13.59-7.76a1.31,1.31,0,0,1,1.36,0l.61.39a1.31,1.31,0,0,1-.05,2.25c-4.44,2.55-9,5.11-13.44,7.47a1.32,1.32,0,0,0-.7,1.18c0,5.83.08,11.63.12,17.49a1.33,1.33,0,0,1-.74,1.19,4.87,4.87,0,1,0,4.41,0,1.34,1.34,0,0,1-.75-1.19q-.06-7.87-.11-15.75a1.3,1.3,0,0,1,.69-1.17l.6-.32a1.32,1.32,0,0,1,1.94,1.16c0,5.23,0,10.46-.15,15.68a1.32,1.32,0,0,0,.68,1.18l15.24,8.45a1.32,1.32,0,0,1,.67,1.22,4.88,4.88,0,1,0,4.88-4.7,4.83,4.83,0,0,0-2.76.86,1.32,1.32,0,0,1-1.38.06c-4.59-2.53-9.13-5.06-13.7-7.59a1.32,1.32,0,0,1-.68-1.18c0-.36,0-.72,0-1.09a1.32,1.32,0,0,1,2-1.12c4.43,2.52,8.82,5.1,13.1,7.87a1.3,1.3,0,0,0,1.37,0l15.15-8.64a1.29,1.29,0,0,1,1.35.05,4.88,4.88,0,1,0,2.67-9ZM402.3,143.6a2,2,0,1,1,4,0A2,2,0,0,1,402.3,143.6Zm-23.88-3.35a2,2,0,1,1,2-2A2,2,0,0,1,378.42,140.25Zm-17.17,19.6a2,2,0,1,1,2-2A2,2,0,0,1,361.25,159.85Zm10.49,23.3a2,2,0,0,1-4,0A2,2,0,0,1,371.74,183.15Zm23.9,3.1a2,2,0,1,1-2,2A2,2,0,0,1,395.64,186.25Zm-9.29-12.15-6.87-3.93-1.57-.9a1.32,1.32,0,0,1-.67-1.14v-9.64a1.32,1.32,0,0,1,.67-1.14l8.44-4.84a1.33,1.33,0,0,1,1.31,0l8.45,4.84a1.3,1.3,0,0,1,.67,1.14v9.64a1.32,1.32,0,0,1-.67,1.14l-8.45,4.84A1.31,1.31,0,0,1,386.35,174.1Zm26.4-3.58a2,2,0,1,1,2-2A2,2,0,0,1,412.75,170.52Z" transform="translate(0 0)"/>
  </g>
</svg>
